<?xml version="1.0" encoding="utf-8" standalone="no"?>
<!DOCTYPE svg PUBLIC "-//W3C//DTD SVG 1.1//EN"
  "http://www.w3.org/Graphics/SVG/1.1/DTD/svg11.dtd">
<!-- Created with matplotlib (https://matplotlib.org/) -->
<svg height="360pt" version="1.1" viewBox="0 0 504 360" width="504pt" xmlns="http://www.w3.org/2000/svg" xmlns:xlink="http://www.w3.org/1999/xlink">
 <metadata>
  <rdf:RDF xmlns:cc="http://creativecommons.org/ns#" xmlns:dc="http://purl.org/dc/elements/1.1/" xmlns:rdf="http://www.w3.org/1999/02/22-rdf-syntax-ns#">
   <cc:Work>
    <dc:type rdf:resource="http://purl.org/dc/dcmitype/StillImage"/>
    <dc:date>2021-09-02T14:25:57.481268</dc:date>
    <dc:format>image/svg+xml</dc:format>
    <dc:creator>
     <cc:Agent>
      <dc:title>Matplotlib v3.3.4, https://matplotlib.org/</dc:title>
     </cc:Agent>
    </dc:creator>
   </cc:Work>
  </rdf:RDF>
 </metadata>
 <defs>
  <style type="text/css">*{stroke-linecap:butt;stroke-linejoin:round;}</style>
 </defs>
 <g id="figure_1">
  <g id="patch_1">
   <path d="M 0 360 
L 504 360 
L 504 0 
L 0 0 
z
" style="fill:none;"/>
  </g>
  <g id="patch_2">
   <path d="M 74.2 357.8 
L 429.8 357.8 
L 429.8 2.2 
L 74.2 2.2 
z
" style="fill:#ffffff;"/>
  </g>
  <g id="pane3d_1">
   <g id="patch_3">
    <path d="M 101.050252 270.120436 
L 218.480986 171.687667 
L 216.848586 29.730017 
L 93.798187 119.526594 
" style="fill:#f2f2f2;opacity:0.5;stroke:#f2f2f2;stroke-linejoin:miter;"/>
   </g>
  </g>
  <g id="pane3d_2">
   <g id="patch_4">
    <path d="M 218.480986 171.687667 
L 406.915413 226.458116 
L 413.639974 79.610898 
L 216.848586 29.730017 
" style="fill:#e6e6e6;opacity:0.5;stroke:#e6e6e6;stroke-linejoin:miter;"/>
   </g>
  </g>
  <g id="pane3d_3">
   <g id="patch_5">
    <path d="M 101.050252 270.120436 
L 300.799949 335.358687 
L 406.915413 226.458116 
L 218.480986 171.687667 
" style="fill:#ececec;opacity:0.5;stroke:#ececec;stroke-linejoin:miter;"/>
   </g>
  </g>
  <g id="axis3d_1">
   <g id="line2d_1">
    <path d="M 101.050252 270.120436 
L 300.799949 335.358687 
" style="fill:none;stroke:#000000;stroke-linecap:square;stroke-width:0.8;"/>
   </g>
   <g id="text_1">
    <!--  -->
    <g transform="translate(191.622338 307.721947)rotate(-341.912962)scale(0.22 -0.22)"/>
    <!--  -->
    <g transform="translate(183.974063 331.139811)rotate(-341.912962)scale(0.22 -0.22)"/>
    <!-- x-position  -->
    <g transform="translate(121.623872 336.69203)rotate(-341.912962)scale(0.22 -0.22)">
     <defs>
      <path d="M 54.890625 54.6875 
L 35.109375 28.078125 
L 55.90625 0 
L 45.3125 0 
L 29.390625 21.484375 
L 13.484375 0 
L 2.875 0 
L 24.125 28.609375 
L 4.6875 54.6875 
L 15.28125 54.6875 
L 29.78125 35.203125 
L 44.28125 54.6875 
z
" id="DejaVuSans-120"/>
      <path d="M 4.890625 31.390625 
L 31.203125 31.390625 
L 31.203125 23.390625 
L 4.890625 23.390625 
z
" id="DejaVuSans-45"/>
      <path d="M 18.109375 8.203125 
L 18.109375 -20.796875 
L 9.078125 -20.796875 
L 9.078125 54.6875 
L 18.109375 54.6875 
L 18.109375 46.390625 
Q 20.953125 51.265625 25.265625 53.625 
Q 29.59375 56 35.59375 56 
Q 45.5625 56 51.78125 48.09375 
Q 58.015625 40.1875 58.015625 27.296875 
Q 58.015625 14.40625 51.78125 6.484375 
Q 45.5625 -1.421875 35.59375 -1.421875 
Q 29.59375 -1.421875 25.265625 0.953125 
Q 20.953125 3.328125 18.109375 8.203125 
z
M 48.6875 27.296875 
Q 48.6875 37.203125 44.609375 42.84375 
Q 40.53125 48.484375 33.40625 48.484375 
Q 26.265625 48.484375 22.1875 42.84375 
Q 18.109375 37.203125 18.109375 27.296875 
Q 18.109375 17.390625 22.1875 11.75 
Q 26.265625 6.109375 33.40625 6.109375 
Q 40.53125 6.109375 44.609375 11.75 
Q 48.6875 17.390625 48.6875 27.296875 
z
" id="DejaVuSans-112"/>
      <path d="M 30.609375 48.390625 
Q 23.390625 48.390625 19.1875 42.75 
Q 14.984375 37.109375 14.984375 27.296875 
Q 14.984375 17.484375 19.15625 11.84375 
Q 23.34375 6.203125 30.609375 6.203125 
Q 37.796875 6.203125 41.984375 11.859375 
Q 46.1875 17.53125 46.1875 27.296875 
Q 46.1875 37.015625 41.984375 42.703125 
Q 37.796875 48.390625 30.609375 48.390625 
z
M 30.609375 56 
Q 42.328125 56 49.015625 48.375 
Q 55.71875 40.765625 55.71875 27.296875 
Q 55.71875 13.875 49.015625 6.21875 
Q 42.328125 -1.421875 30.609375 -1.421875 
Q 18.84375 -1.421875 12.171875 6.21875 
Q 5.515625 13.875 5.515625 27.296875 
Q 5.515625 40.765625 12.171875 48.375 
Q 18.84375 56 30.609375 56 
z
" id="DejaVuSans-111"/>
      <path d="M 44.28125 53.078125 
L 44.28125 44.578125 
Q 40.484375 46.53125 36.375 47.5 
Q 32.28125 48.484375 27.875 48.484375 
Q 21.1875 48.484375 17.84375 46.4375 
Q 14.5 44.390625 14.5 40.28125 
Q 14.5 37.15625 16.890625 35.375 
Q 19.28125 33.59375 26.515625 31.984375 
L 29.59375 31.296875 
Q 39.15625 29.25 43.1875 25.515625 
Q 47.21875 21.78125 47.21875 15.09375 
Q 47.21875 7.46875 41.1875 3.015625 
Q 35.15625 -1.421875 24.609375 -1.421875 
Q 20.21875 -1.421875 15.453125 -0.5625 
Q 10.6875 0.296875 5.421875 2 
L 5.421875 11.28125 
Q 10.40625 8.6875 15.234375 7.390625 
Q 20.0625 6.109375 24.8125 6.109375 
Q 31.15625 6.109375 34.5625 8.28125 
Q 37.984375 10.453125 37.984375 14.40625 
Q 37.984375 18.0625 35.515625 20.015625 
Q 33.0625 21.96875 24.703125 23.78125 
L 21.578125 24.515625 
Q 13.234375 26.265625 9.515625 29.90625 
Q 5.8125 33.546875 5.8125 39.890625 
Q 5.8125 47.609375 11.28125 51.796875 
Q 16.75 56 26.8125 56 
Q 31.78125 56 36.171875 55.265625 
Q 40.578125 54.546875 44.28125 53.078125 
z
" id="DejaVuSans-115"/>
      <path d="M 9.421875 54.6875 
L 18.40625 54.6875 
L 18.40625 0 
L 9.421875 0 
z
M 9.421875 75.984375 
L 18.40625 75.984375 
L 18.40625 64.59375 
L 9.421875 64.59375 
z
" id="DejaVuSans-105"/>
      <path d="M 18.3125 70.21875 
L 18.3125 54.6875 
L 36.8125 54.6875 
L 36.8125 47.703125 
L 18.3125 47.703125 
L 18.3125 18.015625 
Q 18.3125 11.328125 20.140625 9.421875 
Q 21.96875 7.515625 27.59375 7.515625 
L 36.8125 7.515625 
L 36.8125 0 
L 27.59375 0 
Q 17.1875 0 13.234375 3.875 
Q 9.28125 7.765625 9.28125 18.015625 
L 9.28125 47.703125 
L 2.6875 47.703125 
L 2.6875 54.6875 
L 9.28125 54.6875 
L 9.28125 70.21875 
z
" id="DejaVuSans-116"/>
      <path d="M 54.890625 33.015625 
L 54.890625 0 
L 45.90625 0 
L 45.90625 32.71875 
Q 45.90625 40.484375 42.875 44.328125 
Q 39.84375 48.1875 33.796875 48.1875 
Q 26.515625 48.1875 22.3125 43.546875 
Q 18.109375 38.921875 18.109375 30.90625 
L 18.109375 0 
L 9.078125 0 
L 9.078125 54.6875 
L 18.109375 54.6875 
L 18.109375 46.1875 
Q 21.34375 51.125 25.703125 53.5625 
Q 30.078125 56 35.796875 56 
Q 45.21875 56 50.046875 50.171875 
Q 54.890625 44.34375 54.890625 33.015625 
z
" id="DejaVuSans-110"/>
      <path id="DejaVuSans-32"/>
     </defs>
     <use xlink:href="#DejaVuSans-120"/>
     <use x="59.179688" xlink:href="#DejaVuSans-45"/>
     <use x="95.263672" xlink:href="#DejaVuSans-112"/>
     <use x="158.740234" xlink:href="#DejaVuSans-111"/>
     <use x="219.921875" xlink:href="#DejaVuSans-115"/>
     <use x="272.021484" xlink:href="#DejaVuSans-105"/>
     <use x="299.804688" xlink:href="#DejaVuSans-116"/>
     <use x="339.013672" xlink:href="#DejaVuSans-105"/>
     <use x="366.796875" xlink:href="#DejaVuSans-111"/>
     <use x="427.978516" xlink:href="#DejaVuSans-110"/>
     <use x="491.357422" xlink:href="#DejaVuSans-32"/>
    </g>
    <!-- (cm) -->
    <g transform="translate(144.583576 370.106459)rotate(-341.912962)scale(0.22 -0.22)">
     <defs>
      <path d="M 31 75.875 
Q 24.46875 64.65625 21.28125 53.65625 
Q 18.109375 42.671875 18.109375 31.390625 
Q 18.109375 20.125 21.3125 9.0625 
Q 24.515625 -2 31 -13.1875 
L 23.1875 -13.1875 
Q 15.875 -1.703125 12.234375 9.375 
Q 8.59375 20.453125 8.59375 31.390625 
Q 8.59375 42.28125 12.203125 53.3125 
Q 15.828125 64.359375 23.1875 75.875 
z
" id="DejaVuSans-40"/>
      <path d="M 48.78125 52.59375 
L 48.78125 44.1875 
Q 44.96875 46.296875 41.140625 47.34375 
Q 37.3125 48.390625 33.40625 48.390625 
Q 24.65625 48.390625 19.8125 42.84375 
Q 14.984375 37.3125 14.984375 27.296875 
Q 14.984375 17.28125 19.8125 11.734375 
Q 24.65625 6.203125 33.40625 6.203125 
Q 37.3125 6.203125 41.140625 7.25 
Q 44.96875 8.296875 48.78125 10.40625 
L 48.78125 2.09375 
Q 45.015625 0.34375 40.984375 -0.53125 
Q 36.96875 -1.421875 32.421875 -1.421875 
Q 20.0625 -1.421875 12.78125 6.34375 
Q 5.515625 14.109375 5.515625 27.296875 
Q 5.515625 40.671875 12.859375 48.328125 
Q 20.21875 56 33.015625 56 
Q 37.15625 56 41.109375 55.140625 
Q 45.0625 54.296875 48.78125 52.59375 
z
" id="DejaVuSans-99"/>
      <path d="M 52 44.1875 
Q 55.375 50.25 60.0625 53.125 
Q 64.75 56 71.09375 56 
Q 79.640625 56 84.28125 50.015625 
Q 88.921875 44.046875 88.921875 33.015625 
L 88.921875 0 
L 79.890625 0 
L 79.890625 32.71875 
Q 79.890625 40.578125 77.09375 44.375 
Q 74.3125 48.1875 68.609375 48.1875 
Q 61.625 48.1875 57.5625 43.546875 
Q 53.515625 38.921875 53.515625 30.90625 
L 53.515625 0 
L 44.484375 0 
L 44.484375 32.71875 
Q 44.484375 40.625 41.703125 44.40625 
Q 38.921875 48.1875 33.109375 48.1875 
Q 26.21875 48.1875 22.15625 43.53125 
Q 18.109375 38.875 18.109375 30.90625 
L 18.109375 0 
L 9.078125 0 
L 9.078125 54.6875 
L 18.109375 54.6875 
L 18.109375 46.1875 
Q 21.1875 51.21875 25.484375 53.609375 
Q 29.78125 56 35.6875 56 
Q 41.65625 56 45.828125 52.96875 
Q 50 49.953125 52 44.1875 
z
" id="DejaVuSans-109"/>
      <path d="M 8.015625 75.875 
L 15.828125 75.875 
Q 23.140625 64.359375 26.78125 53.3125 
Q 30.421875 42.28125 30.421875 31.390625 
Q 30.421875 20.453125 26.78125 9.375 
Q 23.140625 -1.703125 15.828125 -13.1875 
L 8.015625 -13.1875 
Q 14.5 -2 17.703125 9.0625 
Q 20.90625 20.125 20.90625 31.390625 
Q 20.90625 42.671875 17.703125 53.65625 
Q 14.5 64.65625 8.015625 75.875 
z
" id="DejaVuSans-41"/>
     </defs>
     <use xlink:href="#DejaVuSans-40"/>
     <use x="39.013672" xlink:href="#DejaVuSans-99"/>
     <use x="93.994141" xlink:href="#DejaVuSans-109"/>
     <use x="191.40625" xlink:href="#DejaVuSans-41"/>
    </g>
   </g>
   <g id="Line3DCollection_1">
    <path d="M 113.148142 274.071607 
L 229.940991 175.018638 
L 228.793129 32.757611 
" style="fill:none;stroke:#b0b0b0;stroke-width:0.8;"/>
    <path d="M 165.907908 291.302946 
L 279.847194 189.524401 
L 280.845152 45.951281 
" style="fill:none;stroke:#b0b0b0;stroke-width:0.8;"/>
    <path d="M 220.193806 309.03272 
L 331.075545 204.41446 
L 334.336721 59.509835 
" style="fill:none;stroke:#b0b0b0;stroke-width:0.8;"/>
    <path d="M 276.073024 327.282873 
L 383.679288 219.704291 
L 389.328392 73.44862 
" style="fill:none;stroke:#b0b0b0;stroke-width:0.8;"/>
   </g>
   <g id="xtick_1">
    <g id="line2d_2">
     <path d="M 114.165168 273.209059 
L 111.109727 275.800403 
" style="fill:none;stroke:#000000;stroke-linecap:square;stroke-width:0.8;"/>
    </g>
    <g id="text_2">
     <!-- 0 -->
     <g transform="translate(98.627379 306.484198)scale(0.22 -0.22)">
      <defs>
       <path d="M 31.78125 66.40625 
Q 24.171875 66.40625 20.328125 58.90625 
Q 16.5 51.421875 16.5 36.375 
Q 16.5 21.390625 20.328125 13.890625 
Q 24.171875 6.390625 31.78125 6.390625 
Q 39.453125 6.390625 43.28125 13.890625 
Q 47.125 21.390625 47.125 36.375 
Q 47.125 51.421875 43.28125 58.90625 
Q 39.453125 66.40625 31.78125 66.40625 
z
M 31.78125 74.21875 
Q 44.046875 74.21875 50.515625 64.515625 
Q 56.984375 54.828125 56.984375 36.375 
Q 56.984375 17.96875 50.515625 8.265625 
Q 44.046875 -1.421875 31.78125 -1.421875 
Q 19.53125 -1.421875 13.0625 8.265625 
Q 6.59375 17.96875 6.59375 36.375 
Q 6.59375 54.828125 13.0625 64.515625 
Q 19.53125 74.21875 31.78125 74.21875 
z
" id="DejaVuSans-48"/>
      </defs>
      <use xlink:href="#DejaVuSans-48"/>
     </g>
    </g>
   </g>
   <g id="xtick_2">
    <g id="line2d_3">
     <path d="M 166.901234 290.415638 
L 163.916933 293.081425 
" style="fill:none;stroke:#000000;stroke-linecap:square;stroke-width:0.8;"/>
    </g>
    <g id="text_3">
     <!-- 20 -->
     <g transform="translate(144.429579 323.988518)scale(0.22 -0.22)">
      <defs>
       <path d="M 19.1875 8.296875 
L 53.609375 8.296875 
L 53.609375 0 
L 7.328125 0 
L 7.328125 8.296875 
Q 12.9375 14.109375 22.625 23.890625 
Q 32.328125 33.6875 34.8125 36.53125 
Q 39.546875 41.84375 41.421875 45.53125 
Q 43.3125 49.21875 43.3125 52.78125 
Q 43.3125 58.59375 39.234375 62.25 
Q 35.15625 65.921875 28.609375 65.921875 
Q 23.96875 65.921875 18.8125 64.3125 
Q 13.671875 62.703125 7.8125 59.421875 
L 7.8125 69.390625 
Q 13.765625 71.78125 18.9375 73 
Q 24.125 74.21875 28.421875 74.21875 
Q 39.75 74.21875 46.484375 68.546875 
Q 53.21875 62.890625 53.21875 53.421875 
Q 53.21875 48.921875 51.53125 44.890625 
Q 49.859375 40.875 45.40625 35.40625 
Q 44.1875 33.984375 37.640625 27.21875 
Q 31.109375 20.453125 19.1875 8.296875 
z
" id="DejaVuSans-50"/>
      </defs>
      <use xlink:href="#DejaVuSans-50"/>
      <use x="63.623047" xlink:href="#DejaVuSans-48"/>
     </g>
    </g>
   </g>
   <g id="xtick_3">
    <g id="line2d_4">
     <path d="M 221.161627 308.11957 
L 218.253891 310.863054 
" style="fill:none;stroke:#000000;stroke-linecap:square;stroke-width:0.8;"/>
    </g>
    <g id="text_4">
     <!-- 40 -->
     <g transform="translate(198.76222 342.000616)scale(0.22 -0.22)">
      <defs>
       <path d="M 37.796875 64.3125 
L 12.890625 25.390625 
L 37.796875 25.390625 
z
M 35.203125 72.90625 
L 47.609375 72.90625 
L 47.609375 25.390625 
L 58.015625 25.390625 
L 58.015625 17.1875 
L 47.609375 17.1875 
L 47.609375 0 
L 37.796875 0 
L 37.796875 17.1875 
L 4.890625 17.1875 
L 4.890625 26.703125 
z
" id="DejaVuSans-52"/>
      </defs>
      <use xlink:href="#DejaVuSans-52"/>
      <use x="63.623047" xlink:href="#DejaVuSans-48"/>
     </g>
    </g>
   </g>
   <g id="xtick_4">
    <g id="line2d_5">
     <path d="M 277.013404 326.342734 
L 274.188049 329.167362 
" style="fill:none;stroke:#000000;stroke-linecap:square;stroke-width:0.8;"/>
    </g>
    <g id="text_5">
     <!-- 60 -->
     <g transform="translate(254.694181 360.542914)scale(0.22 -0.22)">
      <defs>
       <path d="M 33.015625 40.375 
Q 26.375 40.375 22.484375 35.828125 
Q 18.609375 31.296875 18.609375 23.390625 
Q 18.609375 15.53125 22.484375 10.953125 
Q 26.375 6.390625 33.015625 6.390625 
Q 39.65625 6.390625 43.53125 10.953125 
Q 47.40625 15.53125 47.40625 23.390625 
Q 47.40625 31.296875 43.53125 35.828125 
Q 39.65625 40.375 33.015625 40.375 
z
M 52.59375 71.296875 
L 52.59375 62.3125 
Q 48.875 64.0625 45.09375 64.984375 
Q 41.3125 65.921875 37.59375 65.921875 
Q 27.828125 65.921875 22.671875 59.328125 
Q 17.53125 52.734375 16.796875 39.40625 
Q 19.671875 43.65625 24.015625 45.921875 
Q 28.375 48.1875 33.59375 48.1875 
Q 44.578125 48.1875 50.953125 41.515625 
Q 57.328125 34.859375 57.328125 23.390625 
Q 57.328125 12.15625 50.6875 5.359375 
Q 44.046875 -1.421875 33.015625 -1.421875 
Q 20.359375 -1.421875 13.671875 8.265625 
Q 6.984375 17.96875 6.984375 36.375 
Q 6.984375 53.65625 15.1875 63.9375 
Q 23.390625 74.21875 37.203125 74.21875 
Q 40.921875 74.21875 44.703125 73.484375 
Q 48.484375 72.75 52.59375 71.296875 
z
" id="DejaVuSans-54"/>
      </defs>
      <use xlink:href="#DejaVuSans-54"/>
      <use x="63.623047" xlink:href="#DejaVuSans-48"/>
     </g>
    </g>
   </g>
  </g>
  <g id="axis3d_2">
   <g id="line2d_6">
    <path d="M 406.915413 226.458116 
L 300.799949 335.358687 
" style="fill:none;stroke:#000000;stroke-linecap:square;stroke-width:0.8;"/>
   </g>
   <g id="text_6">
    <!--  -->
    <g transform="translate(361.077299 284.920296)rotate(-45.742112)scale(0.22 -0.22)"/>
    <!--  -->
    <g transform="translate(378.721165 302.112924)rotate(-45.742112)scale(0.22 -0.22)"/>
    <!-- time  -->
    <g transform="translate(376.581729 339.608086)rotate(-45.742112)scale(0.22 -0.22)">
     <defs>
      <path d="M 56.203125 29.59375 
L 56.203125 25.203125 
L 14.890625 25.203125 
Q 15.484375 15.921875 20.484375 11.0625 
Q 25.484375 6.203125 34.421875 6.203125 
Q 39.59375 6.203125 44.453125 7.46875 
Q 49.3125 8.734375 54.109375 11.28125 
L 54.109375 2.78125 
Q 49.265625 0.734375 44.1875 -0.34375 
Q 39.109375 -1.421875 33.890625 -1.421875 
Q 20.796875 -1.421875 13.15625 6.1875 
Q 5.515625 13.8125 5.515625 26.8125 
Q 5.515625 40.234375 12.765625 48.109375 
Q 20.015625 56 32.328125 56 
Q 43.359375 56 49.78125 48.890625 
Q 56.203125 41.796875 56.203125 29.59375 
z
M 47.21875 32.234375 
Q 47.125 39.59375 43.09375 43.984375 
Q 39.0625 48.390625 32.421875 48.390625 
Q 24.90625 48.390625 20.390625 44.140625 
Q 15.875 39.890625 15.1875 32.171875 
z
" id="DejaVuSans-101"/>
     </defs>
     <use xlink:href="#DejaVuSans-116"/>
     <use x="39.208984" xlink:href="#DejaVuSans-105"/>
     <use x="66.992188" xlink:href="#DejaVuSans-109"/>
     <use x="164.404297" xlink:href="#DejaVuSans-101"/>
     <use x="225.927734" xlink:href="#DejaVuSans-32"/>
    </g>
    <!-- (ms) -->
    <g transform="translate(396.541824 354.423694)rotate(-45.742112)scale(0.22 -0.22)">
     <use xlink:href="#DejaVuSans-40"/>
     <use x="39.013672" xlink:href="#DejaVuSans-109"/>
     <use x="136.425781" xlink:href="#DejaVuSans-115"/>
     <use x="188.525391" xlink:href="#DejaVuSans-41"/>
    </g>
   </g>
   <g id="Line3DCollection_2">
    <path d="M 102.307427 113.316938 
L 109.142222 263.337586 
L 308.142318 327.82361 
" style="fill:none;stroke:#b0b0b0;stroke-width:0.8;"/>
    <path d="M 133.321307 90.684421 
L 138.671213 238.585801 
L 334.897957 300.365742 
" style="fill:none;stroke:#b0b0b0;stroke-width:0.8;"/>
    <path d="M 163.023816 69.008883 
L 167.004617 214.83618 
L 360.514465 274.076903 
" style="fill:none;stroke:#b0b0b0;stroke-width:0.8;"/>
    <path d="M 191.496404 48.230885 
L 194.213605 192.029066 
L 385.063074 248.883991 
" style="fill:none;stroke:#b0b0b0;stroke-width:0.8;"/>
   </g>
   <g id="xtick_5">
    <g id="line2d_7">
     <path d="M 306.465338 327.280184 
L 311.500614 328.911867 
" style="fill:none;stroke:#000000;stroke-linecap:square;stroke-width:0.8;"/>
    </g>
    <g id="text_7">
     <!-- 0 -->
     <g transform="translate(314.022261 357.961443)scale(0.22 -0.22)">
      <use xlink:href="#DejaVuSans-48"/>
     </g>
    </g>
   </g>
   <g id="xtick_6">
    <g id="line2d_8">
     <path d="M 333.24617 299.845694 
L 338.20571 301.407153 
" style="fill:none;stroke:#000000;stroke-linecap:square;stroke-width:0.8;"/>
    </g>
    <g id="text_8">
     <!-- 5 -->
     <g transform="translate(340.509383 330.199491)scale(0.22 -0.22)">
      <defs>
       <path d="M 10.796875 72.90625 
L 49.515625 72.90625 
L 49.515625 64.59375 
L 19.828125 64.59375 
L 19.828125 46.734375 
Q 21.96875 47.46875 24.109375 47.828125 
Q 26.265625 48.1875 28.421875 48.1875 
Q 40.625 48.1875 47.75 41.5 
Q 54.890625 34.8125 54.890625 23.390625 
Q 54.890625 11.625 47.5625 5.09375 
Q 40.234375 -1.421875 26.90625 -1.421875 
Q 22.3125 -1.421875 17.546875 -0.640625 
Q 12.796875 0.140625 7.71875 1.703125 
L 7.71875 11.625 
Q 12.109375 9.234375 16.796875 8.0625 
Q 21.484375 6.890625 26.703125 6.890625 
Q 35.15625 6.890625 40.078125 11.328125 
Q 45.015625 15.765625 45.015625 23.390625 
Q 45.015625 31 40.078125 35.4375 
Q 35.15625 39.890625 26.703125 39.890625 
Q 22.75 39.890625 18.8125 39.015625 
Q 14.890625 38.140625 10.796875 36.28125 
z
" id="DejaVuSans-53"/>
      </defs>
      <use xlink:href="#DejaVuSans-53"/>
     </g>
    </g>
   </g>
   <g id="xtick_7">
    <g id="line2d_9">
     <path d="M 358.887269 273.578756 
L 363.772887 275.07443 
" style="fill:none;stroke:#000000;stroke-linecap:square;stroke-width:0.8;"/>
    </g>
    <g id="text_9">
     <!-- 10 -->
     <g transform="translate(358.869573 303.620021)scale(0.22 -0.22)">
      <defs>
       <path d="M 12.40625 8.296875 
L 28.515625 8.296875 
L 28.515625 63.921875 
L 10.984375 60.40625 
L 10.984375 69.390625 
L 28.421875 72.90625 
L 38.28125 72.90625 
L 38.28125 8.296875 
L 54.390625 8.296875 
L 54.390625 0 
L 12.40625 0 
z
" id="DejaVuSans-49"/>
      </defs>
      <use xlink:href="#DejaVuSans-49"/>
      <use x="63.623047" xlink:href="#DejaVuSans-48"/>
     </g>
    </g>
   </g>
   <g id="xtick_8">
    <g id="line2d_10">
     <path d="M 383.459874 248.406391 
L 388.273361 249.84035 
" style="fill:none;stroke:#000000;stroke-linecap:square;stroke-width:0.8;"/>
    </g>
    <g id="text_10">
     <!-- 15 -->
     <g transform="translate(383.170907 278.14906)scale(0.22 -0.22)">
      <use xlink:href="#DejaVuSans-49"/>
      <use x="63.623047" xlink:href="#DejaVuSans-53"/>
     </g>
    </g>
   </g>
  </g>
  <g id="axis3d_3">
   <g id="line2d_11">
    <path d="M 406.915413 226.458116 
L 413.639974 79.610898 
" style="fill:none;stroke:#000000;stroke-linecap:square;stroke-width:0.8;"/>
   </g>
   <g id="text_11">
    <!--  -->
    <g transform="translate(419.797551 147.811991)rotate(-87.378092)scale(0.22 -0.22)"/>
    <!--  -->
    <g transform="translate(444.406949 148.938927)rotate(-87.378092)scale(0.22 -0.22)"/>
    <!-- y-position  -->
    <g transform="translate(466.392737 207.358792)rotate(-87.378092)scale(0.22 -0.22)">
     <defs>
      <path d="M 32.171875 -5.078125 
Q 28.375 -14.84375 24.75 -17.8125 
Q 21.140625 -20.796875 15.09375 -20.796875 
L 7.90625 -20.796875 
L 7.90625 -13.28125 
L 13.1875 -13.28125 
Q 16.890625 -13.28125 18.9375 -11.515625 
Q 21 -9.765625 23.484375 -3.21875 
L 25.09375 0.875 
L 2.984375 54.6875 
L 12.5 54.6875 
L 29.59375 11.921875 
L 46.6875 54.6875 
L 56.203125 54.6875 
z
" id="DejaVuSans-121"/>
     </defs>
     <use xlink:href="#DejaVuSans-121"/>
     <use x="57.429688" xlink:href="#DejaVuSans-45"/>
     <use x="93.513672" xlink:href="#DejaVuSans-112"/>
     <use x="156.990234" xlink:href="#DejaVuSans-111"/>
     <use x="218.171875" xlink:href="#DejaVuSans-115"/>
     <use x="270.271484" xlink:href="#DejaVuSans-105"/>
     <use x="298.054688" xlink:href="#DejaVuSans-116"/>
     <use x="337.263672" xlink:href="#DejaVuSans-105"/>
     <use x="365.046875" xlink:href="#DejaVuSans-111"/>
     <use x="426.228516" xlink:href="#DejaVuSans-110"/>
     <use x="489.607422" xlink:href="#DejaVuSans-32"/>
    </g>
    <!-- (cm) -->
    <g transform="translate(492.466275 176.512671)rotate(-87.378092)scale(0.22 -0.22)">
     <use xlink:href="#DejaVuSans-40"/>
     <use x="39.013672" xlink:href="#DejaVuSans-99"/>
     <use x="93.994141" xlink:href="#DejaVuSans-109"/>
     <use x="191.40625" xlink:href="#DejaVuSans-41"/>
    </g>
   </g>
   <g id="Line3DCollection_3">
    <path d="M 408.567008 190.391512 
L 218.079419 136.766416 
L 99.271364 233.180665 
" style="fill:none;stroke:#b0b0b0;stroke-width:0.8;"/>
    <path d="M 410.20398 154.644212 
L 217.681819 102.190063 
L 97.50677 196.537738 
" style="fill:none;stroke:#b0b0b0;stroke-width:0.8;"/>
    <path d="M 411.876652 118.117327 
L 217.275969 66.896352 
L 95.702197 159.06461 
" style="fill:none;stroke:#b0b0b0;stroke-width:0.8;"/>
   </g>
   <g id="xtick_9">
    <g id="line2d_12">
     <path d="M 406.967469 189.941218 
L 411.769931 191.293183 
" style="fill:none;stroke:#000000;stroke-linecap:square;stroke-width:0.8;"/>
    </g>
    <g id="text_12">
     <!-- −0.5 -->
     <g transform="translate(400.31506 204.554365)scale(0.22 -0.22)">
      <defs>
       <path d="M 10.59375 35.5 
L 73.1875 35.5 
L 73.1875 27.203125 
L 10.59375 27.203125 
z
" id="DejaVuSans-8722"/>
       <path d="M 10.6875 12.40625 
L 21 12.40625 
L 21 0 
L 10.6875 0 
z
" id="DejaVuSans-46"/>
      </defs>
      <use xlink:href="#DejaVuSans-8722"/>
      <use x="83.789062" xlink:href="#DejaVuSans-48"/>
      <use x="147.412109" xlink:href="#DejaVuSans-46"/>
      <use x="179.199219" xlink:href="#DejaVuSans-53"/>
     </g>
    </g>
   </g>
   <g id="xtick_10">
    <g id="line2d_13">
     <path d="M 408.586533 154.203526 
L 413.442806 155.526655 
" style="fill:none;stroke:#000000;stroke-linecap:square;stroke-width:0.8;"/>
    </g>
    <g id="text_13">
     <!-- 0.0 -->
     <g transform="translate(411.364586 168.861604)scale(0.22 -0.22)">
      <use xlink:href="#DejaVuSans-48"/>
      <use x="63.623047" xlink:href="#DejaVuSans-46"/>
      <use x="95.410156" xlink:href="#DejaVuSans-48"/>
     </g>
    </g>
   </g>
   <g id="xtick_11">
    <g id="line2d_14">
     <path d="M 410.240892 117.686778 
L 415.152193 118.979485 
" style="fill:none;stroke:#000000;stroke-linecap:square;stroke-width:0.8;"/>
    </g>
    <g id="text_14">
     <!-- 0.5 -->
     <g transform="translate(413.236312 132.392253)scale(0.22 -0.22)">
      <use xlink:href="#DejaVuSans-48"/>
      <use x="63.623047" xlink:href="#DejaVuSans-46"/>
      <use x="95.410156" xlink:href="#DejaVuSans-53"/>
     </g>
    </g>
   </g>
  </g>
  <g id="axes_1">
   <g id="Line3DCollection_4"/>
   <g id="Line3DCollection_5"/>
   <g id="Line3DCollection_6"/>
   <g id="Line3DCollection_7"/>
   <g id="Line3DCollection_8">
    <path clip-path="url(#pa8b7e36091)" d="M 399.113864 149.492867 
L 374.100167 146.781944 
L 349.477729 143.314482 
L 325.23375 138.468664 
L 301.334666 131.914569 
L 277.736702 123.673045 
L 254.398279 114.108581 
L 231.291081 103.85791 
" style="fill:none;stroke:#6282ea;stroke-width:3;"/>
   </g>
   <g id="Line3DCollection_9">
    <path clip-path="url(#pa8b7e36091)" d="M 399.113864 149.492867 
L 373.202724 172.472262 
L 348.216805 189.047366 
L 324.084226 195.014051 
L 300.591115 188.229786 
L 277.457025 168.846149 
L 254.416144 139.270909 
L 231.291081 103.85791 
" style="fill:none;stroke:#8db0fe;stroke-width:3;"/>
   </g>
   <g id="Line3DCollection_10">
    <path clip-path="url(#pa8b7e36091)" d="M 399.113864 149.492867 
L 374.658138 130.809394 
L 350.269394 114.601345 
L 325.959295 102.778913 
L 301.803895 96.376045 
L 277.912224 95.322808 
L 254.387176 98.470165 
L 231.291081 103.85791 
" style="fill:none;stroke:#b9d0f9;stroke-width:3;"/>
   </g>
   <g id="Line3DCollection_11">
    <path clip-path="url(#pa8b7e36091)" d="M 399.113864 149.492867 
L 373.585522 161.514243 
L 348.752787 169.607636 
L 324.571945 171.023028 
L 300.906607 164.335007 
L 277.575925 149.641628 
L 254.408523 128.536676 
L 231.291081 103.85791 
" style="fill:none;stroke:#f5c4ac;stroke-width:3;"/>
   </g>
   <g id="Line3DCollection_12">
    <path clip-path="url(#pa8b7e36091)" d="M 399.113864 149.492867 
L 373.479324 164.554277 
L 348.603817 175.010706 
L 324.436254 177.697713 
L 300.818835 170.982707 
L 277.54288 154.978918 
L 254.410637 131.514414 
L 231.291081 103.85791 
" style="fill:none;stroke:#f4987a;stroke-width:3;"/>
   </g>
   <g id="Line3DCollection_13">
    <path clip-path="url(#pa8b7e36091)" d="M 399.113864 149.492867 
L 375.108874 117.906544 
L 350.913281 91.248 
L 326.551594 73.643545 
L 302.186906 67.367542 
L 278.054942 72.271129 
L 254.378209 85.840514 
L 231.291081 103.85791 
" style="fill:none;stroke:#dd5f4b;stroke-width:3;"/>
   </g>
   <g id="Line3DCollection_14">
    <path clip-path="url(#pa8b7e36091)" d="M 399.113864 149.492867 
L 375.188582 115.624818 
L 351.027554 87.103375 
L 326.656918 68.462622 
L 302.25501 62.2095 
L 278.080267 68.180651 
L 254.376623 83.607406 
L 231.291081 103.85791 
" style="fill:none;stroke:#dddcdc;stroke-width:3;"/>
   </g>
   <g id="Line3DCollection_15">
    <path clip-path="url(#pa8b7e36091)" d="M 399.113864 149.492867 
L 375.339086 111.316472 
L 351.243662 79.265289 
L 326.856272 58.656371 
L 302.38391 52.446822 
L 278.128158 60.445469 
L 254.37363 79.391109 
L 231.291081 103.85791 
" style="fill:none;stroke:#3b4cc0;stroke-width:3;"/>
   </g>
   <g id="Line3DCollection_16">
    <path clip-path="url(#pa8b7e36091)" d="M 193.317263 260.095261 
L 193.388599 260.183307 
L 197.252423 262.777314 
L 204.312123 266.455493 
L 214.231516 270.887096 
L 238.784527 278.672328 
L 250.999766 281.243303 
L 260.648183 282.833085 
L 266.9306 283.422245 
L 267.11369 283.413317 
L 269.920908 282.837604 
L 271.559141 281.894784 
L 272.081845 280.603004 
L 271.478044 279.065552 
L 271.318659 278.909943 
L 266.753333 276.026709 
L 259.038916 272.162431 
L 249.982474 268.217403 
L 225.568458 260.565346 
L 214.907677 258.317733 
L 205.116783 256.667211 
L 198.426854 255.987893 
L 198.107639 255.990992 
L 195.41088 256.463668 
L 193.628205 257.329345 
L 192.91269 258.533894 
L 193.317263 260.095261 
" style="fill:none;stroke:#6282ea;stroke-width:3;"/>
    <path clip-path="url(#pa8b7e36091)" d="M 243.561448 215.18755 
L 243.763683 215.430926 
L 246.988194 217.530716 
L 253.553397 220.823286 
L 264.100994 225.322667 
L 264.224142 225.371174 
L 288.154915 232.577833 
L 288.298459 232.609568 
L 301.241357 235.167762 
L 310.202276 236.523705 
L 315.441896 236.945847 
L 315.959264 236.915015 
L 318.503462 236.342335 
L 319.920937 235.433585 
L 320.250955 234.201657 
L 319.60418 232.958157 
L 319.094266 232.528376 
L 314.288449 229.769958 
L 306.311365 226.07253 
L 298.525722 222.895164 
L 274.728757 215.807219 
L 265.682973 213.962375 
L 255.787564 212.312741 
L 249.023165 211.594743 
L 248.089301 211.58812 
L 245.794025 211.932467 
L 243.994585 212.699052 
L 243.237442 213.779835 
L 243.561448 215.18755 
" style="fill:none;stroke:#6282ea;stroke-width:3;"/>
   </g>
   <g id="Line3DCollection_17">
    <path clip-path="url(#pa8b7e36091)" d="M 187.037865 263.870881 
L 188.450686 264.570067 
L 204.417118 270.844181 
L 211.419054 273.447709 
L 236.006355 281.266159 
L 243.743111 283.345437 
L 262.171577 287.981642 
L 264.057876 288.325048 
L 272.453331 289.512784 
L 278.390413 289.918996 
L 282.714815 289.814046 
L 285.879755 289.342983 
L 288.132924 288.585297 
L 289.598542 287.581175 
L 290.312804 286.342898 
L 290.233394 284.857999 
L 289.228037 283.085815 
L 287.03599 280.945575 
L 283.179536 278.288905 
L 276.760769 274.836632 
L 276.180385 274.56046 
L 256.938596 267.202691 
L 252.712393 265.668623 
L 228.332453 258.04886 
L 223.82789 256.852358 
L 202.988097 251.655274 
L 202.280929 251.526691 
L 193.869356 250.304211 
L 187.939654 249.857419 
L 183.604032 249.910246 
L 180.395055 250.317491 
L 178.059336 251.000651 
L 176.468835 251.920357 
L 175.582576 253.064528 
L 175.435315 254.444957 
L 176.146923 256.100416 
L 177.957556 258.107967 
L 181.309752 260.609223 
L 187.037865 263.870881 
" style="fill:none;stroke:#8db0fe;stroke-width:3;"/>
    <path clip-path="url(#pa8b7e36091)" d="M 236.991314 218.479134 
L 239.172689 219.509489 
L 252.213194 224.397012 
L 261.63126 227.731871 
L 285.594897 234.967985 
L 295.993631 237.611454 
L 311.023685 241.178727 
L 313.917683 241.67154 
L 321.707614 242.670506 
L 327.224938 242.983589 
L 331.235751 242.843319 
L 334.15274 242.375099 
L 336.20082 241.647473 
L 337.490194 240.694326 
L 338.047437 239.524375 
L 337.822428 238.123385 
L 336.674748 236.450242 
L 334.332222 234.424741 
L 330.296439 231.899688 
L 323.982915 228.763096 
L 323.298133 228.499299 
L 302.227386 220.926218 
L 301.062214 220.526978 
L 277.298138 213.467919 
L 276.061556 213.153367 
L 253.396712 207.710821 
L 252.640446 207.544958 
L 244.576411 206.377941 
L 238.631118 205.898996 
L 234.3121 205.90426 
L 231.130826 206.249435 
L 228.822364 206.856443 
L 227.25059 207.685419 
L 226.366943 208.722564 
L 226.196948 209.976253 
L 226.847053 211.479209 
L 228.53546 213.297923 
L 231.665138 215.554832 
L 236.991314 218.479134 
" style="fill:none;stroke:#8db0fe;stroke-width:3;"/>
   </g>
   <g id="Line3DCollection_18">
    <path clip-path="url(#pa8b7e36091)" d="M 115.474015 192.970144 
L 116.767563 191.945017 
L 118.05876 190.921753 
L 119.347614 189.900347 
L 120.634131 188.880792 
L 121.918317 187.863085 
L 123.200178 186.84722 
L 124.479721 185.833192 
L 125.756952 184.820996 
L 127.031878 183.810628 
L 128.304504 182.802081 
L 129.574837 181.795352 
L 130.842883 180.790436 
L 132.108648 179.787327 
L 133.372138 178.786021 
L 134.633359 177.786513 
L 135.892319 176.788797 
L 137.149021 175.79287 
L 138.403474 174.798726 
L 139.655682 173.806361 
L 140.905652 172.81577 
L 142.153389 171.826948 
L 143.3989 170.83989 
L 144.642191 169.854591 
L 145.883268 168.871048 
L 147.122135 167.889255 
L 148.358801 166.909207 
L 149.593269 165.930901 
L 150.825547 164.95433 
L 152.055639 163.979491 
L 153.283553 163.00638 
L 154.509292 162.034991 
L 155.732864 161.065319 
L 156.954274 160.097361 
L 158.173528 159.131112 
L 159.390632 158.166567 
L 160.60559 157.203722 
L 161.818409 156.242572 
L 163.029095 155.283114 
L 164.237652 154.325341 
L 165.444088 153.36925 
L 166.648406 152.414837 
L 167.850614 151.462097 
L 169.050716 150.511026 
L 170.248717 149.561619 
L 171.444625 148.613872 
L 172.638443 147.66778 
L 173.830177 146.72334 
L 175.019833 145.780547 
L 176.207417 144.839396 
L 177.392933 143.899884 
L 178.576387 142.962005 
L 179.757785 142.025757 
L 180.937131 141.091134 
L 182.114432 140.158133 
L 183.289692 139.226748 
L 184.462916 138.296977 
L 185.634111 137.368814 
L 186.803281 136.442256 
L 187.970432 135.517298 
L 189.135568 134.593937 
L 190.298695 133.672168 
L 191.459819 132.751986 
L 192.618943 131.833389 
L 193.776075 130.916371 
L 194.931218 130.00093 
L 196.084377 129.08706 
L 197.235559 128.174757 
L 198.384767 127.264018 
L 199.532008 126.354839 
L 200.677285 125.447216 
L 201.820605 124.541144 
L 202.961971 123.63662 
L 204.10139 122.733639 
L 205.238866 121.832198 
L 206.374404 120.932293 
L 207.508009 120.03392 
L 208.639686 119.137075 
L 209.76944 118.241754 
L 210.897275 117.347953 
L 212.023197 116.455669 
L 213.147211 115.564896 
L 214.269321 114.675633 
L 215.389532 113.787874 
L 216.507849 112.901617 
L 217.624277 112.016856 
L 218.738821 111.133589 
L 219.851485 110.251812 
" style="fill:none;stroke:#3b4cc0;stroke-width:3;"/>
   </g>
   <g id="Line3DCollection_19">
    <path clip-path="url(#pa8b7e36091)" d="M 161.714652 255.830658 
L 163.825726 257.549487 
L 165.18196 258.371801 
L 173.352951 262.416147 
L 185.349713 267.324919 
L 196.514386 271.247123 
L 209.090223 275.568 
L 233.70586 283.414008 
L 247.044314 287.348901 
L 259.182597 290.845243 
L 273.556999 294.308348 
L 284.647159 296.348337 
L 286.754526 296.614241 
L 290.787386 296.811776 
L 294.866237 296.620392 
L 297.941864 296.111708 
L 300.360975 295.396554 
L 302.308799 294.534201 
L 303.886359 293.557064 
L 305.144256 292.481505 
L 306.097232 291.312519 
L 306.728067 290.045025 
L 306.982889 288.662458 
L 306.755362 287.131867 
L 305.850241 285.392605 
L 303.899382 283.330199 
L 301.822638 281.790685 
L 299.627765 280.547232 
L 290.196231 276.159808 
L 279.084119 271.778528 
L 261.431703 265.753673 
L 254.944797 263.584347 
L 230.592777 255.990941 
L 223.975131 254.072601 
L 206.002165 248.977627 
L 193.939014 246.105739 
L 182.778586 244.020436 
L 179.854973 243.646384 
L 176.536488 243.469458 
L 172.480422 243.602145 
L 169.402353 244.041961 
L 166.953913 244.68059 
L 164.951106 245.460883 
L 163.293983 246.35188 
L 161.931969 247.338037 
L 160.848864 248.414585 
L 160.058399 249.586187 
L 159.607909 250.868163 
L 159.592117 252.290912 
L 160.185221 253.910186 
L 161.714652 255.830658 
" style="fill:none;stroke:#b9d0f9;stroke-width:3;"/>
    <path clip-path="url(#pa8b7e36091)" d="M 212.838922 211.197468 
L 215.174208 213.011948 
L 215.909644 213.439352 
L 223.340336 217.003888 
L 236.294739 222.066211 
L 241.882525 223.938174 
L 259.474583 229.695423 
L 283.465507 236.956083 
L 302.166774 242.175899 
L 308.25375 243.832472 
L 323.735364 247.341381 
L 333.84968 249.037712 
L 334.983488 249.168039 
L 339.376235 249.346997 
L 343.156242 249.129613 
L 346.009811 248.634055 
L 348.250625 247.955523 
L 350.047178 247.145213 
L 351.491127 246.231049 
L 352.627334 245.22682 
L 353.466614 244.136069 
L 353.988581 242.952998 
L 354.136076 241.660867 
L 353.798147 240.226973 
L 352.771183 238.591178 
L 350.668623 236.639203 
L 348.922039 235.455712 
L 346.008329 233.931834 
L 336.018472 229.649156 
L 326.670036 226.188692 
L 303.127606 218.598631 
L 279.39036 211.56305 
L 255.433668 205.063507 
L 245.373956 202.752575 
L 233.815452 200.603691 
L 230.037752 200.119928 
L 227.357138 199.966728 
L 223.315641 200.047891 
L 220.283531 200.430108 
L 217.894053 201.004959 
L 215.954832 201.71563 
L 214.36132 202.531315 
L 213.059725 203.436266 
L 212.030844 204.425031 
L 211.284763 205.500925 
L 210.863547 206.676884 
L 210.853326 207.97916 
L 211.412873 209.456001 
L 212.838922 211.197468 
" style="fill:none;stroke:#b9d0f9;stroke-width:3;"/>
   </g>
   <g id="Line3DCollection_20">
    <path clip-path="url(#pa8b7e36091)" d="M 114.265517 164.654061 
L 115.583566 163.938102 
L 116.923145 163.800921 
L 118.282749 164.2228 
L 119.660419 165.17215 
L 121.053801 166.606293 
L 122.460205 168.4725 
L 123.876678 170.709244 
L 125.300077 173.24764 
L 126.727143 176.013027 
L 128.15458 178.926636 
L 129.579124 181.907305 
L 130.997613 184.873205 
L 132.407055 187.743521 
L 133.804679 190.440073 
L 135.187989 192.888833 
L 136.554805 195.021314 
L 137.903297 196.775828 
L 139.232006 198.098576 
L 140.539869 198.944587 
L 141.826219 199.278466 
L 143.090794 199.074989 
L 144.333725 198.3195 
L 145.555527 197.008145 
L 146.757078 195.147918 
L 147.939595 192.756539 
L 149.104604 189.862139 
L 150.253903 186.502789 
L 151.389526 182.725837 
L 152.513697 178.587081 
L 153.628785 174.149779 
L 154.737255 169.483493 
L 155.841617 164.662797 
L 156.944377 159.765843 
L 158.04798 154.872825 
L 159.154767 150.064359 
L 160.266923 145.41981 
L 161.386431 141.015599 
L 162.515033 136.923536 
L 163.654195 133.20922 
L 164.805078 129.930549 
L 165.968517 127.136378 
L 167.145008 124.865378 
L 168.334702 123.145124 
L 169.537408 121.991438 
L 170.752608 121.408021 
L 171.979476 121.386378 
L 173.216904 121.906036 
L 174.463537 122.935058 
L 175.717813 124.430818 
L 176.978007 126.341034 
L 178.242272 128.605004 
L 179.508691 131.155014 
L 180.775323 133.917886 
L 182.040246 136.816598 
L 183.301602 139.771961 
L 184.557634 142.704288 
L 185.806722 145.535034 
L 187.047415 148.188359 
L 188.278452 150.592603 
L 189.498783 152.681633 
L 190.707582 154.396053 
L 191.904257 155.684266 
L 193.08845 156.503365 
L 194.260038 156.819865 
L 195.419124 156.610256 
L 196.56603 155.861386 
L 197.701275 154.570667 
L 198.825568 152.746102 
L 199.939778 150.406144 
L 201.044916 147.579371 
L 202.142107 144.303998 
L 203.232564 140.627209 
L 204.317563 136.604325 
L 205.398409 132.297814 
L 206.47641 127.776142 
L 207.552851 123.112491 
L 208.628962 118.383345 
L 209.705895 113.666984 
L 210.784697 109.04189 
L 211.866295 104.585118 
L 212.951469 100.370653 
L 214.040845 96.467791 
L 215.134879 92.939601 
L 216.233857 89.84149 
L 217.337886 87.219927 
L 218.446903 85.111362 
L 219.56068 83.541364 
" style="fill:none;stroke:#6282ea;stroke-width:3;"/>
   </g>
   <g id="Line3DCollection_21">
    <path clip-path="url(#pa8b7e36091)" d="M 114.265517 164.654061 
L 115.583566 163.938102 
L 116.923145 163.800921 
L 118.282749 164.2228 
L 119.660419 165.17215 
L 121.053801 166.606293 
L 122.460205 168.4725 
L 123.876678 170.709244 
L 125.300077 173.24764 
L 126.727143 176.013027 
L 128.15458 178.926636 
L 129.579124 181.907305 
L 130.997613 184.873205 
L 132.407055 187.743521 
L 133.804679 190.440073 
L 135.187989 192.888833 
L 136.554805 195.021314 
L 137.903297 196.775828 
L 139.232006 198.098576 
L 140.539869 198.944587 
L 141.826219 199.278466 
L 143.090794 199.074989 
L 144.333725 198.3195 
L 145.555527 197.008145 
L 146.757078 195.147918 
L 147.939595 192.756539 
L 149.104604 189.862139 
L 150.253903 186.502789 
L 151.389526 182.725837 
L 152.513697 178.587081 
L 153.628785 174.149779 
L 154.737255 169.483493 
L 155.841617 164.662797 
L 156.944377 159.765843 
L 158.04798 154.872825 
L 159.154767 150.064359 
L 160.266923 145.41981 
L 161.386431 141.015599 
L 162.515033 136.923536 
L 163.654195 133.20922 
L 164.805078 129.930549 
L 165.968517 127.136378 
L 167.145008 124.865378 
L 168.334702 123.145124 
L 169.537408 121.991438 
L 170.752608 121.408021 
L 171.979476 121.386378 
L 173.216904 121.906036 
L 174.463537 122.935058 
L 175.717813 124.430818 
L 176.978007 126.341034 
L 178.242272 128.605004 
L 179.508691 131.155014 
L 180.775323 133.917886 
L 182.040246 136.816598 
L 183.301602 139.771961 
L 184.557634 142.704288 
L 185.806722 145.535034 
L 187.047415 148.188359 
L 188.278452 150.592603 
L 189.498783 152.681633 
L 190.707582 154.396053 
L 191.904257 155.684266 
L 193.08845 156.503365 
L 194.260038 156.819865 
L 195.419124 156.610256 
L 196.56603 155.861386 
L 197.701275 154.570667 
L 198.825568 152.746102 
L 199.939778 150.406144 
L 201.044916 147.579371 
L 202.142107 144.303998 
L 203.232564 140.627209 
L 204.317563 136.604325 
L 205.398409 132.297814 
L 206.47641 127.776142 
L 207.552851 123.112491 
L 208.628962 118.383345 
L 209.705895 113.666984 
L 210.784697 109.04189 
L 211.866295 104.585118 
L 212.951469 100.370653 
L 214.040845 96.467791 
L 215.134879 92.939601 
L 216.233857 89.84149 
L 217.337886 87.219927 
L 218.446903 85.111362 
L 219.56068 83.541364 
" style="fill:none;stroke:#dd5f4b;stroke-width:3;"/>
   </g>
   <g id="Line3DCollection_22">
    <path clip-path="url(#pa8b7e36091)" d="M 166.951435 280.974098 
L 168.727908 280.053925 
L 171.641278 279.503188 
L 171.641368 279.503184 
L 178.297272 280.161048 
L 188.040976 281.812068 
L 199.526513 284.275306 
L 224.257968 292.235001 
L 233.945163 296.601095 
L 241.525627 300.556416 
L 245.966125 303.507325 
L 245.966164 303.507371 
L 246.528376 305.211488 
L 245.903435 306.535451 
" style="fill:none;stroke:#dd5f4b;stroke-width:3;"/>
    <path clip-path="url(#pa8b7e36091)" d="M 341.424015 214.40004 
L 339.003728 214.970544 
L 338.333876 215.014114 
L 333.578464 214.661597 
L 324.942196 213.409802 
L 312.452005 211.023147 
L 311.467972 210.811677 
L 287.8395 203.870507 
L 286.994268 203.545114 
L 276.815077 199.288568 
L 270.485668 196.169835 
L 267.560667 194.290084 
L 267.298888 193.978089 
L 267.015096 192.640157 
" style="fill:none;stroke:#dd5f4b;stroke-width:3;"/>
    <path clip-path="url(#pa8b7e36091)" d="M 218.9186 237.21069 
L 218.554302 235.728626 
L 219.290234 234.587928 
L 221.080614 233.773358 
L 223.571773 233.369081 
L 224.201915 233.368488 
L 230.927993 234.067801 
L 240.769475 235.717848 
L 250.617301 237.759559 
L 274.719818 245.121466 
L 283.142251 248.670944 
L 290.988764 252.449374 
L 295.67573 255.268505 
L 296.005535 255.566913 
L 296.637008 256.951307 
L 296.212523 258.212442 
L 294.686868 259.137937 
L 292.013789 259.712375 
L 291.65848 259.731622 
L 285.910281 259.230895 
L 276.612172 257.762549 
L 263.947243 255.179244 
L 239.708323 247.691668 
L 229.403283 243.195622 
L 222.594717 239.716936 
L 219.057348 237.379621 
L 218.9186 237.21069 
" style="fill:none;stroke:#dd5f4b;stroke-width:3;"/>
   </g>
   <g id="Line3DCollection_23">
    <path clip-path="url(#pa8b7e36091)" d="M 113.246368 140.774588 
L 114.585255 140.323499 
L 115.9661 140.944721 
L 117.386047 142.60025 
L 118.841369 145.229322 
L 120.327587 148.750093 
L 121.839598 153.061861 
L 123.37182 158.047724 
L 124.918336 163.577578 
L 126.473053 169.51133 
L 128.029843 175.702239 
L 129.582683 182.000247 
L 131.125787 188.255238 
L 132.653719 194.320136 
L 134.161492 200.053769 
L 135.644649 205.323479 
L 137.099333 210.007432 
L 138.522333 213.996617 
L 139.911122 217.196549 
L 141.263872 219.528651 
L 142.579467 220.931361 
L 143.85749 221.360955 
L 145.098217 220.792103 
L 146.302583 219.21818 
L 147.472151 216.651328 
L 148.609075 213.122276 
L 149.716044 208.679911 
L 150.796228 203.390599 
L 151.85322 197.337244 
L 152.890959 190.618063 
L 153.913664 183.345076 
L 154.925747 175.642306 
L 155.93173 167.643664 
L 156.936157 159.490556 
L 157.943502 151.329212 
L 158.958076 143.307775 
L 159.983934 135.573204 
L 161.024792 128.268049 
L 162.08394 121.527192 
L 163.164172 115.474628 
L 164.26772 110.220419 
L 165.396212 105.857894 
L 166.550631 102.461224 
L 167.731306 100.083467 
L 168.937912 98.755143 
L 170.169491 98.483433 
L 171.42449 99.251999 
L 172.700814 101.021469 
L 173.995899 103.730531 
L 175.306786 107.29762 
L 176.630213 111.623095 
L 177.962702 116.59185 
L 179.300659 122.076225 
L 180.64046 127.939136 
L 181.978543 134.037301 
L 183.311488 140.22448 
L 184.636083 146.354622 
L 185.949395 152.284859 
L 187.248813 157.878286 
L 188.532094 163.006483 
L 189.797386 167.551755 
L 191.043252 171.409073 
L 192.268676 174.487718 
L 193.473063 176.712629 
L 194.656229 178.02547 
L 195.818392 178.385417 
L 196.960145 177.769694 
L 198.082432 176.173855 
L 199.186513 173.611813 
L 200.273937 170.115643 
L 201.346496 165.735121 
L 202.406186 160.537019 
L 203.455162 154.604137 
L 204.495694 148.034061 
L 205.530118 140.93763 
L 206.560786 133.437127 
L 207.590019 125.664167 
L 208.620055 117.757319 
L 209.653007 109.85946 
L 210.690811 102.114914 
L 211.735191 94.666422 
L 212.787619 87.651999 
L 213.849283 81.201776 
L 214.921067 75.434904 
L 216.003532 70.456626 
L 217.096914 66.355619 
L 218.20112 63.201698 
L 219.315745 61.043992 
" style="fill:none;stroke:#8db0fe;stroke-width:3;"/>
   </g>
   <g id="Line3DCollection_24">
    <path clip-path="url(#pa8b7e36091)" d="M 113.246368 140.774588 
L 114.585255 140.323499 
L 115.9661 140.944721 
L 117.386047 142.60025 
L 118.841369 145.229322 
L 120.327587 148.750093 
L 121.839598 153.061861 
L 123.37182 158.047724 
L 124.918336 163.577578 
L 126.473053 169.51133 
L 128.029843 175.702239 
L 129.582683 182.000247 
L 131.125787 188.255238 
L 132.653719 194.320136 
L 134.161492 200.053769 
L 135.644649 205.323479 
L 137.099333 210.007432 
L 138.522333 213.996617 
L 139.911122 217.196549 
L 141.263872 219.528651 
L 142.579467 220.931361 
L 143.85749 221.360955 
L 145.098217 220.792103 
L 146.302583 219.21818 
L 147.472151 216.651328 
L 148.609075 213.122276 
L 149.716044 208.679911 
L 150.796228 203.390599 
L 151.85322 197.337244 
L 152.890959 190.618063 
L 153.913664 183.345076 
L 154.925747 175.642306 
L 155.93173 167.643664 
L 156.936157 159.490556 
L 157.943502 151.329212 
L 158.958076 143.307775 
L 159.983934 135.573204 
L 161.024792 128.268049 
L 162.08394 121.527192 
L 163.164172 115.474628 
L 164.26772 110.220419 
L 165.396212 105.857894 
L 166.550631 102.461224 
L 167.731306 100.083467 
L 168.937912 98.755143 
L 170.169491 98.483433 
L 171.42449 99.251999 
L 172.700814 101.021469 
L 173.995899 103.730531 
L 175.306786 107.29762 
L 176.630213 111.623095 
L 177.962702 116.59185 
L 179.300659 122.076225 
L 180.64046 127.939136 
L 181.978543 134.037301 
L 183.311488 140.22448 
L 184.636083 146.354622 
L 185.949395 152.284859 
L 187.248813 157.878286 
L 188.532094 163.006483 
L 189.797386 167.551755 
L 191.043252 171.409073 
L 192.268676 174.487718 
L 193.473063 176.712629 
L 194.656229 178.02547 
L 195.818392 178.385417 
L 196.960145 177.769694 
L 198.082432 176.173855 
L 199.186513 173.611813 
L 200.273937 170.115643 
L 201.346496 165.735121 
L 202.406186 160.537019 
L 203.455162 154.604137 
L 204.495694 148.034061 
L 205.530118 140.93763 
L 206.560786 133.437127 
L 207.590019 125.664167 
L 208.620055 117.757319 
L 209.653007 109.85946 
L 210.690811 102.114914 
L 211.735191 94.666422 
L 212.787619 87.651999 
L 213.849283 81.201776 
L 214.921067 75.434904 
L 216.003532 70.456626 
L 217.096914 66.355619 
L 218.20112 63.201698 
L 219.315745 61.043992 
" style="fill:none;stroke:#f4987a;stroke-width:3;"/>
   </g>
   <g id="Line3DCollection_25">
    <path clip-path="url(#pa8b7e36091)" d="M 149.577245 275.349062 
L 151.179898 274.3796 
L 153.532484 273.654718 
L 156.759008 273.213519 
L 161.107232 273.13478 
L 167.034505 273.564336 
L 175.406684 274.778597 
L 176.69274 275.015629 
L 196.261523 279.996726 
L 202.395643 281.663098 
L 227.092445 289.5886 
L 232.833695 291.736098 
L 250.836857 298.840905 
L 251.882793 299.35681 
L 258.17508 302.891317 
L 261.939659 305.620128 
L 264.053071 307.823022 
L 264.983149 309.649153 
L 264.985066 311.179644 
L 264.187023 312.454911 
" style="fill:none;stroke:#f4987a;stroke-width:3;"/>
    <path clip-path="url(#pa8b7e36091)" d="M 358.873882 219.503018 
L 356.922018 220.216339 
L 354.121401 220.682492 
L 350.257767 220.837778 
L 344.937235 220.565458 
L 337.430321 219.649576 
L 334.072938 219.096319 
L 320.615634 215.991429 
L 308.999024 213.116801 
L 285.33828 206.14775 
L 274.813527 202.507255 
L 263.130039 198.22618 
L 260.592071 197.053635 
L 255.455456 194.280807 
L 252.432087 192.134225 
L 250.803087 190.401101 
L 250.183838 188.967452 
L 250.36641 187.771474 
" style="fill:none;stroke:#f4987a;stroke-width:3;"/>
    <path clip-path="url(#pa8b7e36091)" d="M 212.490903 240.735097 
L 206.967656 237.648197 
L 203.728385 235.273292 
L 201.979416 233.363267 
L 201.29849 231.786501 
L 201.456672 230.471431 
L 202.34093 229.382427 
L 203.921193 228.509473 
L 206.242259 227.865539 
L 209.436205 227.490249 
L 213.76214 227.461873 
L 219.697887 227.925101 
L 228.15403 229.155937 
L 228.287334 229.179856 
L 250.408857 234.587436 
L 253.281497 235.333935 
L 277.350527 242.665313 
L 280.051674 243.617571 
L 300.545662 251.21723 
L 300.656007 251.267937 
L 307.201314 254.6433 
L 311.148078 257.232152 
L 313.416412 259.313347 
L 314.494223 261.034607 
L 314.647916 262.476398 
L 314.013837 263.679614 
L 312.638239 264.657641 
L 310.48981 265.400049 
L 307.451477 265.869927 
L 303.287192 265.99348 
L 297.564505 265.635893 
L 289.478629 264.546556 
L 287.074479 264.123339 
L 270.388917 260.047281 
L 261.281996 257.667642 
L 237.009508 250.148812 
L 228.764423 247.158124 
L 214.297491 241.608198 
L 212.490903 240.735097 
" style="fill:none;stroke:#f4987a;stroke-width:3;"/>
   </g>
   <g id="Line3DCollection_26">
    <path clip-path="url(#pa8b7e36091)" d="M 112.566883 124.853715 
L 113.919752 124.581325 
L 115.328346 125.713851 
L 116.788868 128.200243 
L 118.296357 131.958976 
L 119.844848 136.880471 
L 121.427559 142.830264 
L 123.037085 149.652785 
L 124.665607 157.17556 
L 126.305099 165.213683 
L 127.947525 173.574373 
L 129.585027 182.06148 
L 131.210094 190.479783 
L 132.815704 198.639012 
L 134.395455 206.357486 
L 135.943657 213.465344 
L 137.455417 219.80733 
L 138.926685 225.245159 
L 140.354297 229.659449 
L 141.735986 232.951272 
L 143.070386 235.04335 
L 144.357016 235.880925 
L 145.596261 235.432335 
L 146.789334 233.689332 
L 147.938233 230.667136 
L 149.045692 226.404242 
L 150.115121 220.961977 
L 151.150541 214.423775 
L 152.156509 206.894164 
L 153.138036 198.497417 
L 154.100503 189.375849 
L 155.049558 179.687724 
L 155.991014 169.60475 
L 156.930741 159.309153 
L 157.874545 148.990344 
L 158.828049 138.841195 
L 159.796574 129.053998 
L 160.785019 119.816181 
L 161.797747 111.305891 
L 162.838485 103.687582 
L 163.91023 97.107767 
L 165.015182 91.691081 
L 166.15469 87.53684 
L 167.329231 84.716232 
L 168.538403 83.270274 
L 169.780957 83.208647 
L 171.054842 84.509436 
L 172.357283 87.119822 
L 173.684875 90.957662 
L 175.03369 95.913894 
L 176.399402 101.855655 
L 177.777413 108.629955 
L 179.16298 116.067764 
L 180.551341 123.988334 
L 181.937834 132.203607 
L 183.317999 140.522563 
L 184.687677 148.755375 
L 186.043084 156.717286 
L 187.380873 164.232134 
L 188.698186 171.135473 
L 189.992682 177.277284 
L 191.262557 182.524262 
L 192.506552 186.761706 
L 193.723943 189.89503 
L 194.914535 191.850924 
L 196.07863 192.5782 
L 197.217009 192.048352 
L 198.330887 190.255842 
L 199.421882 187.218134 
L 200.491966 182.97547 
L 201.543421 177.590389 
L 202.578788 171.146968 
L 203.600815 163.749764 
L 204.612399 155.522427 
L 205.616528 146.605961 
L 206.616224 137.156598 
L 207.614476 127.343277 
L 208.614185 117.344725 
L 209.618096 107.346134 
L 210.628743 97.535497 
L 211.648393 88.099639 
L 212.678993 79.220039 
L 213.722128 71.06855 
L 214.778989 63.803149 
L 215.850345 57.563863 
L 216.936531 52.469034 
L 218.037453 48.61207 
L 219.152597 46.058821 
" style="fill:none;stroke:#b9d0f9;stroke-width:3;"/>
   </g>
   <g id="Line3DCollection_27">
    <path clip-path="url(#pa8b7e36091)" d="M 112.566883 124.853715 
L 113.919752 124.581325 
L 115.328346 125.713851 
L 116.788868 128.200243 
L 118.296357 131.958976 
L 119.844848 136.880471 
L 121.427559 142.830264 
L 123.037085 149.652785 
L 124.665607 157.17556 
L 126.305099 165.213683 
L 127.947525 173.574373 
L 129.585027 182.06148 
L 131.210094 190.479783 
L 132.815704 198.639012 
L 134.395455 206.357486 
L 135.943657 213.465344 
L 137.455417 219.80733 
L 138.926685 225.245159 
L 140.354297 229.659449 
L 141.735986 232.951272 
L 143.070386 235.04335 
L 144.357016 235.880925 
L 145.596261 235.432335 
L 146.789334 233.689332 
L 147.938233 230.667136 
L 149.045692 226.404242 
L 150.115121 220.961977 
L 151.150541 214.423775 
L 152.156509 206.894164 
L 153.138036 198.497417 
L 154.100503 189.375849 
L 155.049558 179.687724 
L 155.991014 169.60475 
L 156.930741 159.309153 
L 157.874545 148.990344 
L 158.828049 138.841195 
L 159.796574 129.053998 
L 160.785019 119.816181 
L 161.797747 111.305891 
L 162.838485 103.687582 
L 163.91023 97.107767 
L 165.015182 91.691081 
L 166.15469 87.53684 
L 167.329231 84.716232 
L 168.538403 83.270274 
L 169.780957 83.208647 
L 171.054842 84.509436 
L 172.357283 87.119822 
L 173.684875 90.957662 
L 175.03369 95.913894 
L 176.399402 101.855655 
L 177.777413 108.629955 
L 179.16298 116.067764 
L 180.551341 123.988334 
L 181.937834 132.203607 
L 183.317999 140.522563 
L 184.687677 148.755375 
L 186.043084 156.717286 
L 187.380873 164.232134 
L 188.698186 171.135473 
L 189.992682 177.277284 
L 191.262557 182.524262 
L 192.506552 186.761706 
L 193.723943 189.89503 
L 194.914535 191.850924 
L 196.07863 192.5782 
L 197.217009 192.048352 
L 198.330887 190.255842 
L 199.421882 187.218134 
L 200.491966 182.97547 
L 201.543421 177.590389 
L 202.578788 171.146968 
L 203.600815 163.749764 
L 204.612399 155.522427 
L 205.616528 146.605961 
L 206.616224 137.156598 
L 207.614476 127.343277 
L 208.614185 117.344725 
L 209.618096 107.346134 
L 210.628743 97.535497 
L 211.648393 88.099639 
L 212.678993 79.220039 
L 213.722128 71.06855 
L 214.778989 63.803149 
L 215.850345 57.563863 
L 216.936531 52.469034 
L 218.037453 48.61207 
L 219.152597 46.058821 
" style="fill:none;stroke:#f5c4ac;stroke-width:3;"/>
   </g>
   <g id="Line3DCollection_28">
    <path clip-path="url(#pa8b7e36091)" d="M 134.861024 270.584566 
L 136.256732 269.554044 
L 137.949311 268.621931 
L 139.987731 267.803661 
L 142.469701 267.130296 
L 145.575209 266.659219 
L 149.643945 266.49886 
L 153.292226 266.685807 
L 155.786889 267.004696 
L 166.769452 269.060883 
L 179.830076 272.228473 
L 194.742361 276.552546 
L 204.747213 279.522105 
L 229.415554 287.419638 
L 239.222295 290.795477 
L 253.861642 295.943001 
L 265.834702 300.821262 
L 275.001002 305.271463 
L 276.846355 306.361601 
L 279.079543 308.097416 
L 280.952385 310.22054 
L 281.793392 312.016438 
L 281.962032 313.599858 
L 281.649553 315.031784 
L 280.960046 316.345315 
L 279.945739 317.556924 
" style="fill:none;stroke:#f5c4ac;stroke-width:3;"/>
    <path clip-path="url(#pa8b7e36091)" d="M 373.942262 223.909562 
L 372.560413 224.794668 
L 370.834256 225.580834 
L 368.676507 226.242119 
L 365.926424 226.730887 
L 362.285493 226.958775 
L 357.729761 226.79094 
L 357.042718 226.715589 
L 347.375237 225.167762 
L 331.403624 221.653663 
L 328.01175 220.755544 
L 306.948323 215.031432 
L 283.26082 208.039179 
L 263.465848 201.710543 
L 260.35471 200.691736 
L 246.974179 195.57649 
L 239.882622 192.223571 
L 239.4354 191.968799 
L 236.996465 190.114839 
L 235.619936 188.45426 
L 235.077463 187.042112 
L 235.086437 185.794734 
L 235.495248 184.66719 
L 236.22179 183.63507 
" style="fill:none;stroke:#f5c4ac;stroke-width:3;"/>
    <path clip-path="url(#pa8b7e36091)" d="M 187.762856 233.086984 
L 186.285837 231.259052 
L 185.70938 229.71329 
L 185.721829 228.352652 
L 186.156887 227.125297 
L 186.924223 226.00298 
L 187.979183 224.971621 
L 189.309888 224.027256 
L 190.93405 223.175009 
L 192.903851 222.430529 
L 195.321518 221.824688 
L 198.375175 221.414448 
L 202.422204 221.308122 
L 205.418368 221.473758 
L 208.769409 221.902748 
L 220.121598 224.01891 
L 231.185017 226.605602 
L 252.335618 232.470663 
L 255.455598 233.354519 
L 279.49725 240.661033 
L 282.555326 241.655259 
L 303.335236 248.54467 
L 313.572708 252.454123 
L 323.27842 256.7858 
L 325.829412 258.173544 
L 327.743805 259.529303 
L 329.771148 261.534748 
L 330.738178 263.220724 
L 331.02206 264.701548 
L 330.82216 266.037588 
L 330.247098 267.261659 
L 329.352391 268.390419 
L 328.156853 269.429319 
L 326.64774 270.374119 
L 324.777375 271.209797 
L 322.449527 271.906272 
L 319.487545 272.408484 
L 315.561703 272.613765 
L 311.343 272.42484 
L 309.736307 272.231327 
L 299.148417 270.371527 
L 284.198142 266.879022 
L 275.202127 264.361102 
L 259.069459 259.73337 
L 234.769158 252.188544 
L 219.577035 247.095955 
L 211.311145 244.261218 
L 198.817166 239.267009 
L 191.027145 235.472654 
L 189.988918 234.856622 
L 187.762856 233.086984 
" style="fill:none;stroke:#f5c4ac;stroke-width:3;"/>
   </g>
   <g id="Line3DCollection_29">
    <path clip-path="url(#pa8b7e36091)" d="M 112.328445 119.266928 
L 113.686237 119.057645 
L 115.104614 120.370665 
L 116.579439 123.150198 
L 118.105308 127.307185 
L 119.675722 132.722002 
L 121.283297 139.248005 
L 122.919974 146.715725 
L 124.577257 154.937531 
L 126.246435 163.712573 
L 127.918798 172.831789 
L 129.585845 182.08283 
L 131.239463 191.254735 
L 132.872086 200.142269 
L 134.476823 208.549816 
L 136.047569 216.294809 
L 137.579078 223.210665 
L 139.067025 229.14924 
L 140.508035 233.982823 
L 141.899697 237.605718 
L 143.240569 239.935441 
L 144.530153 240.913598 
L 145.768876 240.506445 
L 146.958047 238.705205 
L 148.099813 235.526113 
L 149.197104 231.010229 
L 150.253573 225.222992 
L 151.273527 218.253503 
L 152.261848 210.213498 
L 153.223911 201.235989 
L 154.165491 191.473513 
L 155.092657 181.09597 
L 156.011669 170.287999 
L 156.928853 159.245897 
L 157.850478 148.17406 
L 158.78263 137.280995 
L 159.731074 126.774945 
L 160.701132 116.859225 
L 161.69755 107.727389 
L 162.724391 99.558372 
L 163.78493 92.511792 
L 164.881576 86.723585 
L 166.015815 82.302169 
L 167.18818 79.325311 
L 168.398247 77.837848 
L 169.644662 77.850369 
L 170.925199 79.338938 
L 172.23684 82.245855 
L 173.575877 86.481427 
L 174.938036 91.926656 
L 176.31861 98.436706 
L 177.712602 105.844994 
L 179.114859 113.967711 
L 180.520218 122.608593 
L 181.923629 131.563765 
L 183.32027 140.626486 
L 184.70565 149.591663 
L 186.075693 158.260031 
L 187.426802 166.441925 
L 188.755909 173.960598 
L 190.060511 180.655066 
L 191.338681 186.382496 
L 192.589083 191.020154 
L 193.810954 194.466948 
L 195.004096 196.644602 
L 196.168849 197.498503 
L 197.306055 196.998258 
L 198.417025 195.137974 
L 199.503499 191.936287 
L 200.567593 187.436143 
L 201.611756 181.704313 
L 202.638714 174.830633 
L 203.651415 166.926931 
L 204.65297 158.125621 
L 205.64659 148.577906 
L 206.635525 138.451574 
L 207.622999 127.928357 
L 208.612138 117.200838 
L 209.605911 106.468912 
L 210.607062 95.935845 
L 211.618049 85.803982 
L 212.640991 76.270189 
L 213.677615 67.521176 
L 214.729223 59.72881 
L 215.796661 53.04562 
L 216.880304 47.600646 
L 217.980059 43.495827 
L 219.095376 40.803077 
" style="fill:none;stroke:#dddcdc;stroke-width:3;"/>
   </g>
   <g id="Line3DCollection_30">
    <path clip-path="url(#pa8b7e36091)" d="M 121.152165 266.146211 
L 122.413312 265.077635 
L 123.672216 264.010958 
L 124.928883 262.946177 
L 126.183319 261.883286 
L 127.43553 260.82228 
L 128.685523 259.763154 
L 129.933302 258.705903 
L 131.178875 257.650523 
L 132.422246 256.597007 
L 133.663421 255.545352 
L 158.579653 262.099712 
L 182.595751 269.771493 
L 206.921768 277.542276 
L 231.563743 285.413988 
L 256.527871 293.388611 
L 281.820512 301.468175 
L 306.343101 310.771909 
L 305.203953 311.923479 
L 304.062697 313.077181 
L 302.919327 314.23302 
L 301.773836 315.391003 
L 300.626219 316.551136 
L 299.476469 317.713424 
L 298.324582 318.877873 
L 297.17055 320.04449 
L 296.014368 321.213281 
L 294.856029 322.384252 
" style="fill:none;stroke:#dddcdc;stroke-width:3;"/>
    <path clip-path="url(#pa8b7e36091)" d="M 388.156483 228.066319 
L 387.163679 229.06995 
L 386.169159 230.075315 
L 385.172919 231.082419 
L 384.174955 232.091266 
L 383.175262 233.101861 
L 382.173836 234.114209 
L 381.170672 235.128313 
L 380.165765 236.144179 
L 379.159111 237.161811 
L 378.150706 238.181213 
L 353.346013 231.103539 
L 329.043258 223.915019 
L 305.038409 216.814617 
L 281.326022 209.800722 
L 257.900784 202.871762 
L 234.757511 196.026206 
L 212.108497 189.078389 
L 213.213009 188.14253 
L 214.315682 187.208228 
L 215.416522 186.275481 
L 216.515532 185.344283 
L 217.612718 184.414631 
L 218.708084 183.486521 
L 219.801634 182.55995 
L 220.893373 181.634913 
L 221.983306 180.711407 
L 223.071437 179.789427 
" style="fill:none;stroke:#dddcdc;stroke-width:3;"/>
    <path clip-path="url(#pa8b7e36091)" d="M 161.617609 231.859608 
L 162.807789 230.851162 
L 163.995914 229.844457 
L 165.181987 228.83949 
L 166.366015 227.836256 
L 167.548003 226.834752 
L 168.727956 225.834971 
L 169.905878 224.83691 
L 171.081777 223.840565 
L 172.255656 222.84593 
L 173.427521 221.853002 
L 174.597377 220.861776 
L 175.765229 219.872249 
L 176.931083 218.884414 
L 178.094943 217.898269 
L 179.256815 216.913808 
L 180.416703 215.931028 
L 181.574613 214.949924 
L 182.730551 213.970492 
L 183.884519 212.992727 
L 185.036525 212.016626 
L 186.186573 211.042184 
L 210.317058 217.224838 
L 233.74617 224.330317 
L 257.466148 231.524008 
L 281.482442 238.807565 
L 305.80064 246.182681 
L 330.426471 253.651096 
L 354.463216 262.127024 
L 353.411363 263.190348 
L 352.357638 264.255564 
L 351.302038 265.322676 
L 350.244557 266.39169 
L 349.18519 267.46261 
L 348.123931 268.535442 
L 347.060777 269.61019 
L 345.995721 270.68686 
L 344.92876 271.765458 
L 343.859887 272.845987 
L 342.789097 273.928454 
L 341.716386 275.012864 
L 340.641747 276.099222 
L 339.565177 277.187532 
L 338.48667 278.277801 
L 337.40622 279.370034 
L 336.323822 280.464236 
L 335.239471 281.560412 
L 334.153162 282.658568 
L 333.064889 283.758709 
L 331.974647 284.86084 
L 306.602825 277.088081 
L 281.647051 269.323103 
L 257.009102 261.657015 
L 232.682945 254.087942 
L 208.662699 246.614053 
L 184.942629 239.233563 
L 161.617609 231.859608 
" style="fill:none;stroke:#dddcdc;stroke-width:3;"/>
   </g>
   <g id="Line3DCollection_31">
    <path clip-path="url(#pa8b7e36091)" d="M 118.120587 193.776007 
L 119.41265 192.749415 
L 120.702365 191.72469 
L 121.989736 190.701826 
L 123.274772 189.680819 
L 124.557478 188.661662 
L 125.83786 187.644351 
L 127.115925 186.628882 
L 128.391679 185.615249 
L 129.665128 184.603446 
L 130.93628 183.59347 
L 132.205138 182.585316 
L 133.471711 181.578977 
L 134.736004 180.57445 
L 135.998024 179.57173 
L 137.257776 178.570811 
L 138.515266 177.571689 
L 139.770501 176.574358 
L 141.023487 175.578815 
L 142.274229 174.585055 
L 143.522735 173.593072 
L 144.769009 172.602861 
L 146.013057 171.614419 
L 147.254887 170.62774 
L 148.494503 169.64282 
L 149.731912 168.659653 
L 150.967119 167.678236 
L 152.20013 166.698564 
L 153.430951 165.720631 
L 154.659589 164.744433 
L 155.886048 163.769967 
L 157.110335 162.797226 
L 158.332455 161.826207 
L 159.552415 160.856905 
L 160.770219 159.889315 
L 161.985873 158.923433 
L 163.199384 157.959254 
L 164.410757 156.996774 
L 165.619997 156.035988 
L 166.82711 155.076893 
L 168.032103 154.119482 
L 169.234979 153.163753 
L 170.435745 152.2097 
L 171.634407 151.25732 
L 172.83097 150.306607 
L 174.025439 149.357557 
L 175.21782 148.410167 
L 176.408119 147.464431 
L 177.596341 146.520345 
L 178.782491 145.577906 
L 179.966574 144.637108 
L 181.148597 143.697948 
L 182.328564 142.760421 
L 183.506482 141.824522 
L 184.682354 140.890249 
L 185.856187 139.957595 
L 187.027986 139.026558 
L 188.197755 138.097134 
L 189.365502 137.169316 
L 190.53123 136.243103 
L 191.694944 135.318489 
L 192.856651 134.395471 
L 194.016355 133.474043 
L 195.174062 132.554203 
L 196.329776 131.635946 
L 197.483502 130.719268 
L 198.635247 129.804165 
L 199.785015 128.890632 
L 200.93281 127.978667 
L 202.078639 127.068264 
L 203.222506 126.15942 
L 204.364416 125.25213 
L 205.504374 124.346392 
L 206.642386 123.4422 
L 207.778455 122.539551 
L 208.912588 121.638441 
L 210.044789 120.738866 
L 211.175063 119.840822 
L 212.303415 118.944305 
L 213.42985 118.049312 
L 214.554373 117.155837 
L 215.676988 116.263878 
L 216.7977 115.373431 
L 217.916515 114.484492 
L 219.033437 113.597057 
L 220.148471 112.711121 
L 221.261621 111.826683 
L 222.372893 110.943736 
" style="fill:none;stroke:#0000ff;stroke-opacity:0.3;stroke-width:3;"/>
    <path clip-path="url(#pa8b7e36091)" d="M 141.367682 168.639183 
L 142.671042 167.95505 
L 143.994204 167.936959 
L 145.335622 168.56205 
L 146.693339 169.793713 
L 148.065038 171.582518 
L 149.448112 173.867435 
L 150.839728 176.577323 
L 152.236904 179.632621 
L 153.636579 182.947199 
L 155.035689 186.430307 
L 156.43123 189.98857 
L 157.820326 193.527977 
L 159.200284 196.95582 
L 160.568645 200.182541 
L 161.923229 203.123453 
L 163.262166 205.700316 
L 164.583924 207.84274 
L 165.887326 209.48941 
L 167.171562 210.589114 
L 168.436191 211.101584 
L 169.681133 210.998139 
L 170.906667 210.262126 
L 172.113405 208.889171 
L 173.302276 206.887232 
L 174.474499 204.276461 
L 175.631548 201.088866 
L 176.775122 197.36778 
L 177.907105 193.167144 
L 179.029524 188.550584 
L 180.144508 183.590309 
L 181.254242 178.365824 
L 182.360925 172.962469 
L 183.466717 167.469802 
L 184.573702 161.979853 
L 185.683841 156.585263 
L 186.798933 151.377362 
L 187.920576 146.444209 
L 189.050137 141.868654 
L 190.188722 137.726469 
L 191.337159 134.084598 
L 192.495984 130.999578 
L 193.665433 128.516196 
L 194.845445 126.666402 
L 196.035672 125.468536 
L 197.235495 124.926893 
L 198.444048 125.031626 
L 199.660247 125.759008 
L 200.882826 127.072044 
L 202.110373 128.921385 
L 203.341374 131.24655 
L 204.574252 133.97738 
L 205.807411 137.0357 
L 207.039272 140.337121 
L 208.268315 143.792937 
L 209.493114 147.312067 
L 210.712361 150.802984 
L 211.924896 154.175598 
L 213.129728 157.34304 
L 214.326045 160.22334 
L 215.513228 162.740944 
L 216.690855 164.828076 
L 217.858699 166.425917 
L 219.016725 167.485603 
L 220.165079 167.969026 
L 221.304079 167.84945 
L 222.434199 167.111925 
L 223.556048 165.753516 
L 224.670354 163.783331 
L 225.777938 161.222363 
L 226.879695 158.103139 
L 227.976565 154.469175 
L 229.069516 150.374242 
L 230.159511 145.881443 
L 231.247493 141.062108 
L 232.334355 135.994507 
L 233.420924 130.762406 
L 234.507939 125.45347 
L 235.596037 120.157536 
L 236.685738 114.964801 
L 237.777431 109.963936 
L 238.871376 105.240187 
L 239.96769 100.873495 
L 241.066356 96.936695 
L 242.167227 93.493835 
L 243.270031 90.598678 
L 244.374386 88.293422 
L 245.479818 86.607682 
" style="fill:none;stroke:#0000ff;stroke-opacity:0.3;stroke-width:3;"/>
    <path clip-path="url(#pa8b7e36091)" d="M 165.575825 149.318755 
L 166.880585 148.919702 
L 168.214682 149.743256 
L 169.575554 151.745563 
L 170.960045 154.856551 
L 172.364501 158.981938 
L 173.784885 164.005869 
L 175.216895 169.794068 
L 176.65608 176.19737 
L 178.097962 183.055491 
L 179.538141 190.200907 
L 180.9724 197.462719 
L 182.396791 204.670377 
L 183.807713 211.657193 
L 185.201971 218.263569 
L 186.576825 224.339888 
L 187.930021 229.74905 
L 189.259813 234.368653 
L 190.564971 238.092798 
L 191.844776 240.833569 
L 193.099009 242.522185 
L 194.327933 243.109848 
L 195.532261 242.568317 
L 196.71313 240.890226 
L 197.872056 238.089141 
L 199.010898 234.199373 
L 200.131808 229.275537 
L 201.237184 223.391851 
L 202.32962 216.64115 
L 203.411847 209.133593 
L 204.486681 200.995066 
L 205.556964 192.365225 
L 206.625503 183.395203 
L 207.695016 174.244966 
L 208.768071 165.080332 
L 209.847031 156.069691 
L 210.934004 147.380479 
L 212.030798 139.175478 
L 213.138877 131.609033 
L 214.259336 124.823316 
L 215.392876 118.944732 
L 216.539797 114.08063 
L 217.699999 110.316427 
L 218.872992 107.713278 
L 220.057928 106.306384 
L 221.253633 106.10403 
L 222.45865 107.087372 
L 223.671299 109.211013 
L 224.88973 112.404311 
L 226.111986 116.573378 
L 227.336068 121.603675 
L 228.559993 127.363089 
L 229.781852 133.705361 
L 230.99986 140.473749 
L 232.212405 147.504778 
L 233.418077 154.631976 
L 234.615704 161.689472 
L 235.804364 168.5154 
L 236.9834 174.955009 
L 238.15242 180.863475 
L 239.311292 186.108352 
L 240.460133 190.571688 
L 241.599293 194.151783 
L 242.729328 196.764626 
L 243.850979 198.345009 
L 244.96514 198.847352 
L 246.072827 198.246249 
L 247.175143 196.536757 
L 248.273248 193.734432 
L 249.368319 189.875111 
L 250.46152 185.01444 
L 251.553965 179.227141 
L 252.646689 172.605994 
L 253.740613 165.260516 
L 254.836522 157.31533 
L 255.935033 148.9082 
L 257.036583 140.187725 
L 258.141407 131.310706 
L 259.24953 122.43919 
L 260.360764 113.737242 
L 261.474708 105.367489 
L 262.590762 97.487515 
L 263.708138 90.246197 
L 264.825888 83.780104 
L 265.942934 78.21006 
L 267.058102 73.638007 
L 268.17016 70.144299 
L 269.277868 67.785525 
" style="fill:none;stroke:#0000ff;stroke-opacity:0.3;stroke-width:3;"/>
    <path clip-path="url(#pa8b7e36091)" d="M 190.748693 141.603487 
L 192.042608 141.363391 
L 193.362604 142.667623 
L 194.705862 145.459434 
L 196.069049 149.648259 
L 197.448427 155.112489 
L 198.839977 161.70309 
L 200.23952 169.247892 
L 201.642843 177.556354 
L 203.045806 186.424596 
L 204.444456 195.640505 
L 205.835108 204.98874 
L 207.214429 214.25548 
L 208.57949 223.232809 
L 209.927818 231.722664 
L 211.257415 239.540287 
L 212.566779 246.517174 
L 213.854899 252.50354 
L 215.12125 257.370316 
L 216.365766 261.010716 
L 217.58882 263.341439 
L 218.791184 264.303522 
L 219.973993 263.86291 
L 221.138702 262.010756 
L 222.28704 258.76347 
L 223.420961 254.162532 
L 224.542597 248.27405 
L 225.654204 241.188051 
L 226.758113 233.017459 
L 227.856673 223.896744 
L 228.952206 213.980172 
L 230.046947 203.439637 
L 231.142998 192.462032 
L 232.24228 181.246135 
L 233.346487 169.99903 
L 234.457044 158.932059 
L 235.575078 148.256395 
L 236.701388 138.178305 
L 237.836427 128.894229 
L 238.980301 120.585838 
L 240.132764 113.41524 
L 241.293243 107.520528 
L 242.460856 103.01186 
L 243.634455 99.968261 
L 244.812673 98.435287 
L 245.993973 98.423684 
L 247.176713 99.9091 
L 248.359208 102.832869 
L 249.539791 107.10382 
L 250.716872 112.601028 
L 251.888998 119.177355 
L 253.054895 126.663626 
L 254.213516 134.873245 
L 255.364064 143.607056 
L 256.506016 152.65827 
L 257.639131 161.817287 
L 258.763454 170.87628 
L 259.879304 179.633425 
L 260.987257 187.896714 
L 262.088126 195.487297 
L 263.18293 202.24235 
L 264.272861 208.017467 
L 265.359244 212.68861 
L 266.443503 216.153646 
L 267.527116 218.333518 
L 268.611574 219.173086 
L 269.698337 218.641673 
L 270.788797 216.733346 
L 271.884233 213.466944 
L 272.985772 208.885857 
L 274.094351 203.057546 
L 275.210686 196.072789 
L 276.335235 188.044614 
L 277.468177 179.106892 
L 278.609387 169.412543 
L 279.758423 159.131326 
L 280.914518 148.44718 
L 282.076583 137.55511 
L 283.24322 126.657615 
L 284.412738 115.960696 
L 285.583194 105.669502 
L 286.75243 95.983713 
L 287.918129 87.092773 
L 289.077877 79.171124 
L 290.229235 72.373623 
L 291.369811 66.831311 
L 292.497336 62.647723 
L 293.609744 59.895904 
" style="fill:none;stroke:#0000ff;stroke-opacity:0.3;stroke-width:3;"/>
    <path clip-path="url(#pa8b7e36091)" d="M 216.680608 148.989714 
L 217.952555 148.739189 
L 219.23885 150.040181 
L 220.537126 152.835629 
L 221.844758 157.034475 
L 223.158952 162.514459 
L 224.476837 169.125763 
L 225.795559 176.695336 
L 227.11236 185.031682 
L 228.424663 193.929933 
L 229.730127 203.17698 
L 231.026707 212.556506 
L 232.312692 221.853755 
L 233.586728 230.859944 
L 234.847836 239.376212 
L 236.095412 247.217089 
L 237.329219 254.213449 
L 238.549367 260.214978 
L 239.756291 265.092163 
L 240.95072 268.737871 
L 242.133635 271.068532 
L 243.306237 272.025004 
L 244.469899 271.57313 
L 245.626121 269.70404 
L 246.776491 266.4342 
L 247.922631 261.805224 
L 249.066157 255.883438 
L 250.208632 248.759166 
L 251.35152 240.545717 
L 252.496151 231.378032 
L 253.643673 221.410936 
L 254.795025 210.816971 
L 255.950901 199.783761 
L 257.111729 188.510893 
L 258.27765 177.206323 
L 259.448511 166.08232 
L 260.623863 155.351013 
L 261.80297 145.219632 
L 262.98483 135.885562 
L 264.168201 127.531368 
L 265.351644 120.319975 
L 266.533572 114.390181 
L 267.712299 109.852718 
L 268.886108 106.787019 
L 270.05331 105.238878 
L 271.212309 105.219093 
L 272.361666 106.703176 
L 273.500148 109.632144 
L 274.626784 113.914342 
L 275.7409 119.428213 
L 276.842147 126.025865 
L 277.930523 133.537276 
L 279.006371 141.774938 
L 280.070377 150.538749 
L 281.123555 159.62097 
L 282.167218 168.811067 
L 283.202945 177.900322 
L 284.232543 186.686079 
L 285.258 194.975567 
L 286.281439 202.589253 
L 287.30507 209.363715 
L 288.331133 215.154039 
L 289.361855 219.835764 
L 290.399392 223.306419 
L 291.445786 225.486696 
L 292.502916 226.321283 
L 293.572449 225.779414 
L 294.655802 223.85514 
L 295.754097 220.567368 
L 296.868125 215.959628 
L 297.998313 210.099607 
L 299.144698 203.078386 
L 300.306897 195.009382 
L 301.484099 186.026938 
L 302.675051 176.28453 
L 303.878063 165.952557 
L 305.091021 155.215676 
L 306.311411 144.269682 
L 307.536354 133.31792 
L 308.762664 122.567282 
L 309.986903 112.223837 
L 311.205467 102.488182 
L 312.414669 93.550654 
L 313.610837 85.586539 
L 314.790417 78.751457 
L 315.95008 73.177103 
L 317.086822 68.967536 
L 318.198062 66.196172 
" style="fill:none;stroke:#0000ff;stroke-opacity:0.3;stroke-width:3;"/>
    <path clip-path="url(#pa8b7e36091)" d="M 243.0338 171.688437 
L 244.276721 171.255531 
L 245.520992 172.062189 
L 246.765107 174.063853 
L 248.007565 177.189342 
L 249.246918 181.342904 
L 250.481826 186.40691 
L 251.711099 192.245064 
L 252.933733 198.706005 
L 254.148941 205.627152 
L 255.356174 212.838641 
L 256.555133 220.167254 
L 257.74577 227.440201 
L 258.928287 234.488672 
L 260.103123 241.151104 
L 261.270931 247.276099 
L 262.432562 252.72498 
L 263.589028 257.373975 
L 264.741476 261.116042 
L 265.891148 263.862338 
L 267.039349 265.543374 
L 268.187404 266.109862 
L 269.336624 265.53329 
L 270.488263 263.806225 
L 271.643484 260.942385 
L 272.803322 256.976441 
L 273.968646 251.963584 
L 275.140136 245.978821 
L 276.318243 239.115992 
L 277.503177 231.486479 
L 278.694878 223.217596 
L 279.893011 214.450634 
L 281.096956 205.338546 
L 282.305808 196.043284 
L 283.518391 186.732787 
L 284.733277 177.57766 
L 285.948809 168.747605 
L 287.163144 160.407661 
L 288.374294 152.714365 
L 289.580184 145.811947 
L 290.778704 139.828676 
L 291.967779 134.873505 
L 293.145429 131.033139 
L 294.309839 128.369659 
L 295.459415 126.918796 
L 296.592843 126.688949 
L 297.709139 127.66097 
L 298.807685 129.788745 
L 299.888256 133.000542 
L 300.95104 137.201041 
L 301.996635 142.273988 
L 303.026044 148.085324 
L 304.04065 154.486685 
L 305.042189 161.319126 
L 306.032706 168.416933 
L 307.014513 175.611413 
L 307.990129 182.734553 
L 308.962228 189.622455 
L 309.933581 196.118489 
L 310.906993 202.076122 
L 311.885249 207.361396 
L 312.871051 211.855051 
L 313.866968 215.454293 
L 314.875379 218.074225 
L 315.898425 219.648972 
L 316.937967 220.132497 
L 317.995535 219.499149 
L 319.072299 217.743948 
L 320.169029 214.882622 
L 321.286071 210.951387 
L 322.423319 206.00648 
L 323.580206 200.123423 
L 324.755687 193.396004 
L 325.948244 185.934954 
L 327.155893 177.866315 
L 328.376204 169.329456 
L 329.606331 160.474758 
L 330.843054 151.460954 
L 332.082837 142.452144 
L 333.32189 133.614527 
L 334.556254 125.112901 
L 335.781883 117.107 
L 336.994746 109.747781 
L 338.190926 103.173752 
L 339.366727 97.507481 
L 340.518775 92.852401 
L 341.644119 89.29005 
L 342.740319 86.87785 
" style="fill:none;stroke:#0000ff;stroke-opacity:0.3;stroke-width:3;"/>
    <path clip-path="url(#pa8b7e36091)" d="M 269.464191 206.537028 
L 270.676412 205.789221 
L 271.882957 205.722639 
L 273.083207 206.313849 
L 274.276655 207.525341 
L 275.462925 209.306477 
L 276.641791 211.594757 
L 277.813185 214.317346 
L 278.977206 217.392814 
L 280.134117 220.733038 
L 281.284347 224.245203 
L 282.42848 227.833843 
L 283.567239 231.402882 
L 284.701474 234.857611 
L 285.832141 238.106575 
L 286.960278 241.063327 
L 288.086979 243.648028 
L 289.213371 245.788875 
L 290.340582 247.42334 
L 291.469717 248.499216 
L 292.601828 248.97546 
L 293.737886 248.822848 
L 294.878758 248.024419 
L 296.025179 246.575726 
L 297.177732 244.484891 
L 298.336826 241.772462 
L 299.502682 238.471077 
L 300.675317 234.624924 
L 301.854535 230.289014 
L 303.039923 225.528249 
L 304.230852 220.416305 
L 305.426478 215.034325 
L 306.625756 209.469433 
L 307.827454 203.81309 
L 309.030177 198.15931 
L 310.23239 192.602765 
L 311.432454 187.236815 
L 312.628661 182.151507 
L 313.819274 177.431582 
L 315.002572 173.154564 
L 316.176892 169.388955 
L 317.340675 166.192624 
L 318.49251 163.61141 
L 319.631178 161.678019 
L 320.755681 160.411219 
L 321.865284 159.815394 
L 322.959534 159.880446 
L 324.03828 160.582069 
L 325.101683 161.882369 
L 326.15022 163.730817 
L 327.184676 166.0655 
L 328.206128 168.814618 
L 329.215929 171.898192 
L 330.215674 175.229913 
L 331.207169 178.719089 
L 332.192393 182.272633 
L 333.173453 185.797036 
L 334.152541 189.20029 
L 335.131887 192.393713 
L 336.113713 195.293647 
L 337.100185 197.823015 
L 338.093371 199.912692 
L 339.095195 201.502707 
L 340.107398 202.543254 
L 341.131502 202.995501 
L 342.168775 202.832209 
L 343.220201 202.038156 
L 344.286456 200.610362 
L 345.36789 198.558122 
L 346.464508 195.902844 
L 347.575964 192.67769 
L 348.70156 188.927032 
L 349.840245 184.705702 
L 350.99063 180.078064 
L 352.151003 175.116886 
L 353.319357 169.902038 
L 354.493421 164.519023 
L 355.6707 159.057345 
L 356.848524 153.608761 
L 358.024098 148.265418 
L 359.194563 143.117932 
L 360.357059 138.253441 
L 361.508789 133.753685 
L 362.647087 129.69315 
L 363.769483 126.137352 
L 364.873766 123.141292 
L 365.958046 120.748141 
L 367.020799 118.988199 
" style="fill:none;stroke:#0000ff;stroke-opacity:0.3;stroke-width:3;"/>
    <path clip-path="url(#pa8b7e36091)" d="M 295.747146 247.862097 
L 296.931736 246.734778 
L 298.114069 245.609607 
L 299.294153 244.486577 
L 300.471993 243.365683 
L 301.647595 242.246917 
L 302.820966 241.130275 
L 303.992113 240.01575 
L 305.161041 238.903336 
L 306.327758 237.793027 
L 307.492269 236.684817 
L 308.65458 235.578701 
L 309.814698 234.474671 
L 310.972628 233.372723 
L 312.128378 232.272851 
L 313.281953 231.175047 
L 314.43336 230.079308 
L 315.582604 228.985627 
L 316.729692 227.893998 
L 317.874629 226.804415 
L 319.017422 225.716873 
L 320.158077 224.631365 
L 321.296599 223.547887 
L 322.432995 222.466433 
L 323.567271 221.386996 
L 324.699432 220.309572 
L 325.829485 219.234154 
L 326.957435 218.160737 
L 328.083288 217.089316 
L 329.20705 216.019884 
L 330.328728 214.952437 
L 331.448326 213.886968 
L 332.56585 212.823473 
L 333.681307 211.761945 
L 334.794701 210.70238 
L 335.906039 209.644772 
L 337.015327 208.589116 
L 338.122569 207.535405 
L 339.227772 206.483636 
L 340.330942 205.433801 
L 341.432083 204.385897 
L 342.531202 203.339917 
L 343.628304 202.295857 
L 344.723395 201.253711 
L 345.816479 200.213474 
L 346.907564 199.175141 
L 347.996653 198.138706 
L 349.083753 197.104164 
L 350.168869 196.07151 
L 351.252007 195.040739 
L 352.333171 194.011846 
L 353.412368 192.984826 
L 354.489602 191.959673 
L 355.564879 190.936382 
L 356.638204 189.914949 
L 357.709584 188.895368 
L 358.779022 187.877634 
L 359.846524 186.861743 
L 360.912095 185.847689 
L 361.975742 184.835467 
L 363.037468 183.825072 
L 364.097279 182.8165 
L 365.15518 181.809745 
L 366.211177 180.804803 
L 367.265274 179.801668 
L 368.317477 178.800336 
L 369.367791 177.800802 
L 370.416221 176.803061 
L 371.462771 175.807108 
L 372.507447 174.812939 
L 373.550255 173.820548 
L 374.591198 172.829932 
L 375.630283 171.841084 
L 376.667513 170.854001 
L 377.702894 169.868678 
L 378.736431 168.885109 
L 379.768129 167.903291 
L 380.797993 166.923218 
L 381.826027 165.944887 
L 382.852236 164.968292 
L 383.876626 163.993428 
L 384.899201 163.020292 
L 385.919966 162.048878 
L 386.938926 161.079182 
L 387.956085 160.1112 
L 388.971448 159.144926 
L 389.985021 158.180357 
L 390.996807 157.217488 
" style="fill:none;stroke:#0000ff;stroke-opacity:0.3;stroke-width:3;"/>
    <path clip-path="url(#pa8b7e36091)" d="M 118.120587 193.776007 
L 141.367682 168.639183 
L 165.575825 149.318755 
L 190.748693 141.603487 
L 216.680608 148.989714 
L 243.0338 171.688437 
L 269.464191 206.537028 
L 295.747146 247.862097 
" style="fill:none;stroke:#0000ff;stroke-opacity:0.3;stroke-width:3;"/>
    <path clip-path="url(#pa8b7e36091)" d="M 120.702365 191.72469 
L 143.994204 167.936959 
L 168.214682 149.743256 
L 193.362604 142.667623 
L 219.23885 150.040181 
L 245.520992 172.062189 
L 271.882957 205.722639 
L 298.114069 245.609607 
" style="fill:none;stroke:#0000ff;stroke-opacity:0.3;stroke-width:3;"/>
    <path clip-path="url(#pa8b7e36091)" d="M 123.274772 189.680819 
L 146.693339 169.793713 
L 170.960045 154.856551 
L 196.069049 149.648259 
L 221.844758 157.034475 
L 248.007565 177.189342 
L 274.276655 207.525341 
L 300.471993 243.365683 
" style="fill:none;stroke:#0000ff;stroke-opacity:0.3;stroke-width:3;"/>
    <path clip-path="url(#pa8b7e36091)" d="M 125.83786 187.644351 
L 149.448112 173.867435 
L 173.784885 164.005869 
L 198.839977 161.70309 
L 224.476837 169.125763 
L 250.481826 186.40691 
L 276.641791 211.594757 
L 302.820966 241.130275 
" style="fill:none;stroke:#0000ff;stroke-opacity:0.3;stroke-width:3;"/>
    <path clip-path="url(#pa8b7e36091)" d="M 128.391679 185.615249 
L 152.236904 179.632621 
L 176.65608 176.19737 
L 201.642843 177.556354 
L 227.11236 185.031682 
L 252.933733 198.706005 
L 278.977206 217.392814 
L 305.161041 238.903336 
" style="fill:none;stroke:#0000ff;stroke-opacity:0.3;stroke-width:3;"/>
    <path clip-path="url(#pa8b7e36091)" d="M 130.93628 183.59347 
L 155.035689 186.430307 
L 179.538141 190.200907 
L 204.444456 195.640505 
L 229.730127 203.17698 
L 255.356174 212.838641 
L 281.284347 224.245203 
L 307.492269 236.684817 
" style="fill:none;stroke:#0000ff;stroke-opacity:0.3;stroke-width:3;"/>
    <path clip-path="url(#pa8b7e36091)" d="M 133.471711 181.578977 
L 157.820326 193.527977 
L 182.396791 204.670377 
L 207.214429 214.25548 
L 232.312692 221.853755 
L 257.74577 227.440201 
L 283.567239 231.402882 
L 309.814698 234.474671 
" style="fill:none;stroke:#0000ff;stroke-opacity:0.3;stroke-width:3;"/>
    <path clip-path="url(#pa8b7e36091)" d="M 135.998024 179.57173 
L 160.568645 200.182541 
L 185.201971 218.263569 
L 209.927818 231.722664 
L 234.847836 239.376212 
L 260.103123 241.151104 
L 285.832141 238.106575 
L 312.128378 232.272851 
" style="fill:none;stroke:#0000ff;stroke-opacity:0.3;stroke-width:3;"/>
    <path clip-path="url(#pa8b7e36091)" d="M 138.515266 177.571689 
L 163.262166 205.700316 
L 187.930021 229.74905 
L 212.566779 246.517174 
L 237.329219 254.213449 
L 262.432562 252.72498 
L 288.086979 243.648028 
L 314.43336 230.079308 
" style="fill:none;stroke:#0000ff;stroke-opacity:0.3;stroke-width:3;"/>
    <path clip-path="url(#pa8b7e36091)" d="M 141.023487 175.578815 
L 165.887326 209.48941 
L 190.564971 238.092798 
L 215.12125 257.370316 
L 239.756291 265.092163 
L 264.741476 261.116042 
L 290.340582 247.42334 
L 316.729692 227.893998 
" style="fill:none;stroke:#0000ff;stroke-opacity:0.3;stroke-width:3;"/>
    <path clip-path="url(#pa8b7e36091)" d="M 143.522735 173.593072 
L 168.436191 211.101584 
L 193.099009 242.522185 
L 217.58882 263.341439 
L 242.133635 271.068532 
L 267.039349 265.543374 
L 292.601828 248.97546 
L 319.017422 225.716873 
" style="fill:none;stroke:#0000ff;stroke-opacity:0.3;stroke-width:3;"/>
    <path clip-path="url(#pa8b7e36091)" d="M 146.013057 171.614419 
L 170.906667 210.262126 
L 195.532261 242.568317 
L 219.973993 263.86291 
L 244.469899 271.57313 
L 269.336624 265.53329 
L 294.878758 248.024419 
L 321.296599 223.547887 
" style="fill:none;stroke:#0000ff;stroke-opacity:0.3;stroke-width:3;"/>
    <path clip-path="url(#pa8b7e36091)" d="M 148.494503 169.64282 
L 173.302276 206.887232 
L 197.872056 238.089141 
L 222.28704 258.76347 
L 246.776491 266.4342 
L 271.643484 260.942385 
L 297.177732 244.484891 
L 323.567271 221.386996 
" style="fill:none;stroke:#0000ff;stroke-opacity:0.3;stroke-width:3;"/>
    <path clip-path="url(#pa8b7e36091)" d="M 150.967119 167.678236 
L 175.631548 201.088866 
L 200.131808 229.275537 
L 224.542597 248.27405 
L 249.066157 255.883438 
L 273.968646 251.963584 
L 299.502682 238.471077 
L 325.829485 219.234154 
" style="fill:none;stroke:#0000ff;stroke-opacity:0.3;stroke-width:3;"/>
    <path clip-path="url(#pa8b7e36091)" d="M 153.430951 165.720631 
L 177.907105 193.167144 
L 202.32962 216.64115 
L 226.758113 233.017459 
L 251.35152 240.545717 
L 276.318243 239.115992 
L 301.854535 230.289014 
L 328.083288 217.089316 
" style="fill:none;stroke:#0000ff;stroke-opacity:0.3;stroke-width:3;"/>
    <path clip-path="url(#pa8b7e36091)" d="M 155.886048 163.769967 
L 180.144508 183.590309 
L 204.486681 200.995066 
L 228.952206 213.980172 
L 253.643673 221.410936 
L 278.694878 223.217596 
L 304.230852 220.416305 
L 330.328728 214.952437 
" style="fill:none;stroke:#0000ff;stroke-opacity:0.3;stroke-width:3;"/>
    <path clip-path="url(#pa8b7e36091)" d="M 158.332455 161.826207 
L 182.360925 172.962469 
L 206.625503 183.395203 
L 231.142998 192.462032 
L 255.950901 199.783761 
L 281.096956 205.338546 
L 306.625756 209.469433 
L 332.56585 212.823473 
" style="fill:none;stroke:#0000ff;stroke-opacity:0.3;stroke-width:3;"/>
    <path clip-path="url(#pa8b7e36091)" d="M 160.770219 159.889315 
L 184.573702 161.979853 
L 208.768071 165.080332 
L 233.346487 169.99903 
L 258.27765 177.206323 
L 283.518391 186.732787 
L 309.030177 198.15931 
L 334.794701 210.70238 
" style="fill:none;stroke:#0000ff;stroke-opacity:0.3;stroke-width:3;"/>
    <path clip-path="url(#pa8b7e36091)" d="M 163.199384 157.959254 
L 186.798933 151.377362 
L 210.934004 147.380479 
L 235.575078 148.256395 
L 260.623863 155.351013 
L 285.948809 168.747605 
L 311.432454 187.236815 
L 337.015327 208.589116 
" style="fill:none;stroke:#0000ff;stroke-opacity:0.3;stroke-width:3;"/>
    <path clip-path="url(#pa8b7e36091)" d="M 165.619997 156.035988 
L 189.050137 141.868654 
L 213.138877 131.609033 
L 237.836427 128.894229 
L 262.98483 135.885562 
L 288.374294 152.714365 
L 313.819274 177.431582 
L 339.227772 206.483636 
" style="fill:none;stroke:#0000ff;stroke-opacity:0.3;stroke-width:3;"/>
    <path clip-path="url(#pa8b7e36091)" d="M 168.032103 154.119482 
L 191.337159 134.084598 
L 215.392876 118.944732 
L 240.132764 113.41524 
L 265.351644 120.319975 
L 290.778704 139.828676 
L 316.176892 169.388955 
L 341.432083 204.385897 
" style="fill:none;stroke:#0000ff;stroke-opacity:0.3;stroke-width:3;"/>
    <path clip-path="url(#pa8b7e36091)" d="M 170.435745 152.2097 
L 193.665433 128.516196 
L 217.699999 110.316427 
L 242.460856 103.01186 
L 267.712299 109.852718 
L 293.145429 131.033139 
L 318.49251 163.61141 
L 343.628304 202.295857 
" style="fill:none;stroke:#0000ff;stroke-opacity:0.3;stroke-width:3;"/>
    <path clip-path="url(#pa8b7e36091)" d="M 172.83097 150.306607 
L 196.035672 125.468536 
L 220.057928 106.306384 
L 244.812673 98.435287 
L 270.05331 105.238878 
L 295.459415 126.918796 
L 320.755681 160.411219 
L 345.816479 200.213474 
" style="fill:none;stroke:#0000ff;stroke-opacity:0.3;stroke-width:3;"/>
    <path clip-path="url(#pa8b7e36091)" d="M 175.21782 148.410167 
L 198.444048 125.031626 
L 222.45865 107.087372 
L 247.176713 99.9091 
L 272.361666 106.703176 
L 297.709139 127.66097 
L 322.959534 159.880446 
L 347.996653 198.138706 
" style="fill:none;stroke:#0000ff;stroke-opacity:0.3;stroke-width:3;"/>
    <path clip-path="url(#pa8b7e36091)" d="M 177.596341 146.520345 
L 200.882826 127.072044 
L 224.88973 112.404311 
L 249.539791 107.10382 
L 274.626784 113.914342 
L 299.888256 133.000542 
L 325.101683 161.882369 
L 350.168869 196.07151 
" style="fill:none;stroke:#0000ff;stroke-opacity:0.3;stroke-width:3;"/>
    <path clip-path="url(#pa8b7e36091)" d="M 179.966574 144.637108 
L 203.341374 131.24655 
L 227.336068 121.603675 
L 251.888998 119.177355 
L 276.842147 126.025865 
L 301.996635 142.273988 
L 327.184676 166.0655 
L 352.333171 194.011846 
" style="fill:none;stroke:#0000ff;stroke-opacity:0.3;stroke-width:3;"/>
    <path clip-path="url(#pa8b7e36091)" d="M 182.328564 142.760421 
L 205.807411 137.0357 
L 229.781852 133.705361 
L 254.213516 134.873245 
L 279.006371 141.774938 
L 304.04065 154.486685 
L 329.215929 171.898192 
L 354.489602 191.959673 
" style="fill:none;stroke:#0000ff;stroke-opacity:0.3;stroke-width:3;"/>
    <path clip-path="url(#pa8b7e36091)" d="M 184.682354 140.890249 
L 208.268315 143.792937 
L 232.212405 147.504778 
L 256.506016 152.65827 
L 281.123555 159.62097 
L 306.032706 168.416933 
L 331.207169 178.719089 
L 356.638204 189.914949 
" style="fill:none;stroke:#0000ff;stroke-opacity:0.3;stroke-width:3;"/>
    <path clip-path="url(#pa8b7e36091)" d="M 187.027986 139.026558 
L 210.712361 150.802984 
L 234.615704 161.689472 
L 258.763454 170.87628 
L 283.202945 177.900322 
L 307.990129 182.734553 
L 333.173453 185.797036 
L 358.779022 187.877634 
" style="fill:none;stroke:#0000ff;stroke-opacity:0.3;stroke-width:3;"/>
    <path clip-path="url(#pa8b7e36091)" d="M 189.365502 137.169316 
L 213.129728 157.34304 
L 236.9834 174.955009 
L 260.987257 187.896714 
L 285.258 194.975567 
L 309.933581 196.118489 
L 335.131887 192.393713 
L 360.912095 185.847689 
" style="fill:none;stroke:#0000ff;stroke-opacity:0.3;stroke-width:3;"/>
    <path clip-path="url(#pa8b7e36091)" d="M 191.694944 135.318489 
L 215.513228 162.740944 
L 239.311292 186.108352 
L 263.18293 202.24235 
L 287.30507 209.363715 
L 311.885249 207.361396 
L 337.100185 197.823015 
L 363.037468 183.825072 
" style="fill:none;stroke:#0000ff;stroke-opacity:0.3;stroke-width:3;"/>
    <path clip-path="url(#pa8b7e36091)" d="M 194.016355 133.474043 
L 217.858699 166.425917 
L 241.599293 194.151783 
L 265.359244 212.68861 
L 289.361855 219.835764 
L 313.866968 215.454293 
L 339.095195 201.502707 
L 365.15518 181.809745 
" style="fill:none;stroke:#0000ff;stroke-opacity:0.3;stroke-width:3;"/>
    <path clip-path="url(#pa8b7e36091)" d="M 196.329776 131.635946 
L 220.165079 167.969026 
L 243.850979 198.345009 
L 267.527116 218.333518 
L 291.445786 225.486696 
L 315.898425 219.648972 
L 341.131502 202.995501 
L 367.265274 179.801668 
" style="fill:none;stroke:#0000ff;stroke-opacity:0.3;stroke-width:3;"/>
    <path clip-path="url(#pa8b7e36091)" d="M 198.635247 129.804165 
L 222.434199 167.111925 
L 246.072827 198.246249 
L 269.698337 218.641673 
L 293.572449 225.779414 
L 317.995535 219.499149 
L 343.220201 202.038156 
L 369.367791 177.800802 
" style="fill:none;stroke:#0000ff;stroke-opacity:0.3;stroke-width:3;"/>
    <path clip-path="url(#pa8b7e36091)" d="M 200.93281 127.978667 
L 224.670354 163.783331 
L 248.273248 193.734432 
L 271.884233 213.466944 
L 295.754097 220.567368 
L 320.169029 214.882622 
L 345.36789 198.558122 
L 371.462771 175.807108 
" style="fill:none;stroke:#0000ff;stroke-opacity:0.3;stroke-width:3;"/>
    <path clip-path="url(#pa8b7e36091)" d="M 203.222506 126.15942 
L 226.879695 158.103139 
L 250.46152 185.01444 
L 274.094351 203.057546 
L 297.998313 210.099607 
L 322.423319 206.00648 
L 347.575964 192.67769 
L 373.550255 173.820548 
" style="fill:none;stroke:#0000ff;stroke-opacity:0.3;stroke-width:3;"/>
    <path clip-path="url(#pa8b7e36091)" d="M 205.504374 124.346392 
L 229.069516 150.374242 
L 252.646689 172.605994 
L 276.335235 188.044614 
L 300.306897 195.009382 
L 324.755687 193.396004 
L 349.840245 184.705702 
L 375.630283 171.841084 
" style="fill:none;stroke:#0000ff;stroke-opacity:0.3;stroke-width:3;"/>
    <path clip-path="url(#pa8b7e36091)" d="M 207.778455 122.539551 
L 231.247493 141.062108 
L 254.836522 157.31533 
L 278.609387 169.412543 
L 302.675051 176.28453 
L 327.155893 177.866315 
L 352.151003 175.116886 
L 377.702894 169.868678 
" style="fill:none;stroke:#0000ff;stroke-opacity:0.3;stroke-width:3;"/>
    <path clip-path="url(#pa8b7e36091)" d="M 210.044789 120.738866 
L 233.420924 130.762406 
L 257.036583 140.187725 
L 280.914518 148.44718 
L 305.091021 155.215676 
L 329.606331 160.474758 
L 354.493421 164.519023 
L 379.768129 167.903291 
" style="fill:none;stroke:#0000ff;stroke-opacity:0.3;stroke-width:3;"/>
    <path clip-path="url(#pa8b7e36091)" d="M 212.303415 118.944305 
L 235.596037 120.157536 
L 259.24953 122.43919 
L 283.24322 126.657615 
L 307.536354 133.31792 
L 332.082837 142.452144 
L 356.848524 153.608761 
L 381.826027 165.944887 
" style="fill:none;stroke:#0000ff;stroke-opacity:0.3;stroke-width:3;"/>
    <path clip-path="url(#pa8b7e36091)" d="M 214.554373 117.155837 
L 237.777431 109.963936 
L 261.474708 105.367489 
L 285.583194 105.669502 
L 309.986903 112.223837 
L 334.556254 125.112901 
L 359.194563 143.117932 
L 383.876626 163.993428 
" style="fill:none;stroke:#0000ff;stroke-opacity:0.3;stroke-width:3;"/>
    <path clip-path="url(#pa8b7e36091)" d="M 216.7977 115.373431 
L 239.96769 100.873495 
L 263.708138 90.246197 
L 287.918129 87.092773 
L 312.414669 93.550654 
L 336.994746 109.747781 
L 361.508789 133.753685 
L 385.919966 162.048878 
" style="fill:none;stroke:#0000ff;stroke-opacity:0.3;stroke-width:3;"/>
    <path clip-path="url(#pa8b7e36091)" d="M 219.033437 113.597057 
L 242.167227 93.493835 
L 265.942934 78.21006 
L 290.229235 72.373623 
L 314.790417 78.751457 
L 339.366727 97.507481 
L 363.769483 126.137352 
L 387.956085 160.1112 
" style="fill:none;stroke:#0000ff;stroke-opacity:0.3;stroke-width:3;"/>
    <path clip-path="url(#pa8b7e36091)" d="M 221.261621 111.826683 
L 244.374386 88.293422 
L 268.17016 70.144299 
L 292.497336 62.647723 
L 317.086822 68.967536 
L 341.644119 89.29005 
L 365.958046 120.748141 
L 389.985021 158.180357 
" style="fill:none;stroke:#0000ff;stroke-opacity:0.3;stroke-width:3;"/>
    <path clip-path="url(#pa8b7e36091)" d="M 222.372893 110.943736 
L 245.479818 86.607682 
L 269.277868 67.785525 
L 293.609744 59.895904 
L 318.198062 66.196172 
L 342.740319 86.87785 
L 367.020799 118.988199 
L 390.996807 157.217488 
" style="fill:none;stroke:#0000ff;stroke-opacity:0.3;stroke-width:3;"/>
   </g>
  </g>
 </g>
 <defs>
  <clipPath id="pa8b7e36091">
   <rect height="355.6" width="355.6" x="74.2" y="2.2"/>
  </clipPath>
 </defs>
</svg>
