<?xml version="1.0" encoding="UTF-8" standalone="no"?>
<svg
   width="4in"
   height="3in"
   viewBox="0 0 101.6 76.200002"
   version="1.1"
   id="svg8"
   inkscape:version="1.2.1 (9c6d41e410, 2022-07-14, custom)"
   sodipodi:docname="freefall.svg"
   inkscape:export-filename="freefall.png"
   inkscape:export-xdpi="600"
   inkscape:export-ydpi="600"
   xmlns:inkscape="http://www.inkscape.org/namespaces/inkscape"
   xmlns:sodipodi="http://sodipodi.sourceforge.net/DTD/sodipodi-0.dtd"
   xmlns="http://www.w3.org/2000/svg"
   xmlns:svg="http://www.w3.org/2000/svg"
   xmlns:rdf="http://www.w3.org/1999/02/22-rdf-syntax-ns#"
   xmlns:cc="http://creativecommons.org/ns#"
   xmlns:dc="http://purl.org/dc/elements/1.1/">
  <defs
     id="defs2">
    <marker
       style="overflow:visible"
       id="TriangleStart"
       refX="0"
       refY="0"
       orient="auto-start-reverse"
       inkscape:stockid="TriangleStart"
       markerWidth="5.3244081"
       markerHeight="6.155385"
       viewBox="0 0 5.3244081 6.1553851"
       inkscape:isstock="true"
       inkscape:collect="always"
       preserveAspectRatio="xMidYMid">
      <path
         transform="scale(0.5)"
         style="fill:context-stroke;fill-rule:evenodd;stroke:context-stroke;stroke-width:1pt"
         d="M 5.77,0 -2.88,5 V -5 Z"
         id="path135" />
    </marker>
  </defs>
  <sodipodi:namedview
     id="base"
     pagecolor="#ffffff"
     bordercolor="#666666"
     borderopacity="1.0"
     inkscape:pageopacity="0.0"
     inkscape:pageshadow="2"
     inkscape:zoom="1.7554908"
     inkscape:cx="135.2898"
     inkscape:cy="131.58713"
     inkscape:document-units="mm"
     inkscape:current-layer="layer1"
     inkscape:document-rotation="0"
     showgrid="false"
     units="in"
     inkscape:window-width="1343"
     inkscape:window-height="908"
     inkscape:window-x="569"
     inkscape:window-y="136"
     inkscape:window-maximized="0"
     inkscape:showpageshadow="2"
     inkscape:pagecheckerboard="0"
     inkscape:deskcolor="#d1d1d1" />
  <metadata
     id="metadata5">
    <rdf:RDF>
      <cc:Work
         rdf:about="">
        <dc:format>image/svg+xml</dc:format>
        <dc:type
           rdf:resource="http://purl.org/dc/dcmitype/StillImage" />
      </cc:Work>
    </rdf:RDF>
  </metadata>
  <g
     inkscape:label="Layer 1"
     inkscape:groupmode="layer"
     id="layer1">
    <rect
       style="fill:#0051b9;stroke:#000000;stroke-width:0.529167;stroke-opacity:1;fill-opacity:1"
       id="rect2595"
       width="108.20844"
       height="79.422363"
       x="-3.3956623"
       y="-1.1499989"
       ry="1.3986466" />
    <path
       style="fill:#ff0000;stroke:#000000;stroke-width:0.529167;fill-opacity:1"
       id="path2485"
       sodipodi:type="arc"
       sodipodi:cx="38.730927"
       sodipodi:cy="34.019066"
       sodipodi:rx="4.5392056"
       sodipodi:ry="4.5392056"
       sodipodi:start="3.1542926"
       sodipodi:end="3.1541765"
       sodipodi:open="true"
       sodipodi:arc-type="arc"
       d="m 34.192087,33.96142 a 4.5392056,4.5392056 0 0 1 4.596354,-4.481195 4.5392056,4.5392056 0 0 1 4.481328,4.596223 4.5392056,4.5392056 0 0 1 -4.596093,4.481462 4.5392056,4.5392056 0 0 1 -4.481596,-4.595963" />
    <path
       style="fill:none;stroke:#000000;stroke-width:0.264583px;stroke-linecap:butt;stroke-linejoin:miter;stroke-opacity:1"
       d="M 36.293242,27.781736 C 35.987823,26.424302 35.969789,27.000877 36.106446,26.061282"
       id="path2587" />
    <path
       style="fill:none;stroke:#000000;stroke-width:0.264583px;stroke-linecap:butt;stroke-linejoin:miter;stroke-opacity:1"
       d="m 38.839491,26.326721 c 0.0381,-2.018881 -0.04443,-0.70064 0.560369,-3.922641"
       id="path2589" />
    <path
       style="fill:none;stroke:#000000;stroke-width:0.264583px;stroke-linecap:butt;stroke-linejoin:miter;stroke-opacity:1"
       d="m 41.336579,26.071106 c 0.825769,-4.505346 0.403825,-2.439998 1.228886,-6.203476"
       id="path2591" />
    <path
       style="fill:none;stroke:#000000;stroke-width:0.264583px;stroke-linecap:butt;stroke-linejoin:miter;stroke-opacity:1"
       d="m 43.007867,28.597722 c 0.101153,-1.214014 0.02,-0.553937 0.275272,-1.976062"
       id="path2593" />
    <path
       style="fill:#ffffff;fill-opacity:1;stroke:#000000;stroke-width:0.264583px;stroke-linecap:butt;stroke-linejoin:miter;stroke-opacity:1"
       d="m 16.252962,12.477 c -0.32314,-0.557111 -2.223913,-2.180747 -2.807149,-2.460219 -0.969134,-0.4643851 -1.903248,-0.4138187 -2.89033,-0.04916 -0.202159,0.074685 -0.398602,0.174389 -0.5702039,0.30477 -0.8074025,0.613453 -1.2189185,0.8488 -1.5434847,1.700798 -0.043415,0.113967 -0.059366,0.243453 -0.039317,0.36375 0.073687,0.442123 0.2885114,0.641015 0.6881733,0.766834 0.00483,0.0015 0.2969326,0.05866 0.3539159,0.04916 0.010224,-0.0017 -0.0013,-0.02363 -0.00983,-0.0295 -0.068851,-0.04734 -0.2335818,-0.122785 -0.3145898,-0.137637 -0.6032905,-0.110606 -0.8356653,0.01856 -1.3468546,0.41291 -0.5683509,0.438446 -1.2603887,1.396489 -1.5533182,2.054723 -0.2223201,0.499569 -0.5548685,1.284783 -0.540703,1.897419 0.022588,0.97688 0.1661846,1.369573 0.9536126,1.897418 0.1846985,0.123811 0.5039915,0.181866 0.7078408,0.235947 0.033069,0.0088 0.082091,-6.35e-4 0.098311,0.02949 0.048758,0.09056 -0.1024853,0.178422 -0.1573041,0.265448 -0.2249601,0.35713 -0.4782595,0.699853 -0.658681,1.081424 -0.743621,1.572677 -1.6981614,3.765817 -0.157295,5.230197 0.8137667,0.773372 3.084002,0.04781 3.4507095,-0.04916 0.3931312,-0.103962 1.8430932,-0.817487 2.3594612,-1.268221 0.183705,-0.160355 0.343214,-0.349852 0.481718,-0.550546 0.02792,-0.04046 0.04564,-0.129213 0,-0.14747 -0.06447,-0.02579 -0.145435,0.0219 -0.196621,0.06882 -0.07375,0.0676 -0.124245,0.161187 -0.157295,0.255615 -0.121266,0.346477 -0.27277,0.88684 -0.176962,1.278054 0.076,0.310338 0.176984,0.622312 0.344091,0.894637 0.438654,0.714848 1.84731,0.888119 2.605232,0.796327 1.851153,-0.22419 3.394403,-0.780497 5.112163,-1.484509 0.340543,-0.139569 0.672992,-0.298667 1.002763,-0.462069 0.358096,-0.177438 1.141365,-0.550522 1.563143,-0.87497 0.09191,-0.0707 0.163592,-0.165403 0.255615,-0.235956 0.07069,-0.0542 0.162071,0.337557 0.383408,0.403085 0.419658,0.124241 0.850518,0.272109 1.28787,0.255605 0.549792,-0.02075 1.704997,-0.475609 2.231658,-0.766825 1.524701,-0.843079 3.524184,-2.103748 4.168375,-3.824339 0.149662,-0.399738 0.247867,-0.818815 0.324424,-1.238729 0.06208,-0.340489 -0.01598,-0.710182 -0.117969,-1.032274 -0.0024,-0.0074 -0.131072,-0.173337 -0.117978,-0.196621 0.02447,-0.04351 0.09197,-0.03884 0.137636,-0.05899 0.06576,-0.02901 0.133874,-0.05343 0.196623,-0.08848 0.382963,-0.213862 0.690425,-0.377624 0.983112,-0.707841 1.146733,-1.293762 1.453655,-2.149675 1.327187,-4.07012 -0.03698,-0.561606 -0.294158,-1.089024 -0.501378,-1.612312 -0.118829,-0.300081 -0.280672,-0.585474 -0.471892,-0.845482 -0.690298,-0.9386132 -1.401614,-1.6268005 -2.615067,-1.6614718 -0.4718,-0.013481 -0.910731,0.0867 -1.327195,0.2949358 -0.0935,0.046749 -0.141195,0.090739 -0.19662,0.1769626 -0.0079,0.01233 -0.01143,0.051446 -0.01966,0.039326 -0.05469,-0.080434 -0.0994,-0.1676197 -0.157294,-0.2457808 C 27.801317,8.0199617 26.51731,7.1894931 25.19397,6.8216444 23.984013,6.485313 23.118656,6.8193144 22.795183,8.0800361 c -0.08035,0.3131584 -0.161745,0.6306823 -0.176962,0.9536263 -0.01457,0.309109 0.04552,0.617674 0.08849,0.9241295 0.0065,0.046466 0.038,0.1697751 0.05898,0.1278081 0.14203,-0.2840678 -0.06038,-0.621796 -0.167128,-0.8553167 -0.417824,-0.9139931 -1.268454,-1.970364 -2.398787,-1.9859 -1.317559,-0.018111 -2.621386,1.3012319 -3.313073,2.2120177 -0.810528,1.067269 -0.888598,1.395654 -0.924121,2.585606 -0.0021,0.06941 0.02787,0.140541 0.06882,0.196621 0.112183,0.153643 0.255611,0.281829 0.383417,0.422744"
       id="path5703"
       sodipodi:nodetypes="cssssscccssssscsssssssssssssssssssssscssccssssscccssccccssccc" />
    <path
       style="fill:#ffffff;fill-opacity:1;stroke:#000000;stroke-width:0.264583px;stroke-linecap:butt;stroke-linejoin:miter;stroke-opacity:1"
       d="m 60.811952,10.626312 c 0,-0.291658 0.06388,-0.590399 0,-0.8749746 -0.03137,-0.1397394 -0.440032,-0.1019654 -0.658691,0.029492 -0.4264,0.2563516 -0.854205,0.5264136 -1.20922,0.8749786 -0.617926,0.606702 -1.254734,1.584011 -1.445173,2.457799 -0.07746,0.355424 -0.142938,0.752721 -0.0098,1.091258 0.446315,1.13507 1.15646,1.044435 2.192322,1.150252 0.147029,0.01502 0.294627,-0.02715 0.442402,-0.02949 0.05934,-9.52e-4 0.148534,-0.03244 0.176953,0.01966 0.03277,0.06007 -0.03375,0.133019 -0.05898,0.196621 -0.05682,0.143194 -0.124518,0.281829 -0.186777,0.422743 -0.101589,0.232672 -0.212198,0.46161 -0.304765,0.698016 -0.640792,1.636497 -1.074754,3.684965 0.157284,5.181037 1.436116,1.743884 4.117424,1.50204 6.026459,0.874979 0.411269,-0.13509 0.801246,-0.329712 1.189551,-0.521054 0.06664,-0.03284 0.122547,-0.08804 0.167129,-0.14747 0.0168,-0.02239 -0.05884,0.0097 -0.07863,0.02949 -0.13141,0.131415 -0.269044,0.373567 -0.294941,0.550546 -0.04892,0.334299 0.04713,0.691324 0.245782,0.963455 0.839771,1.150399 2.544175,1.173921 3.804623,1.042108 1.557142,-0.16284 3.048095,-0.65541 4.502634,-1.209236 0.330994,-0.126029 0.656821,-0.265309 0.983105,-0.403076 0.268195,-0.113241 0.533937,-0.260061 0.806151,-0.363759 0.121343,-0.04622 0.145298,0.08406 0.304765,0.07865 0.138954,-0.0047 0.278366,-0.02393 0.412909,-0.05898 1.033518,-0.269237 2.124562,-0.797546 3.018142,-1.366541 0.762735,-0.485677 1.461336,-0.992662 1.907225,-1.808933 0.452842,-0.828999 0.505529,-1.645648 0.452226,-2.565943 -0.0466,-0.804653 -0.225272,-1.800402 -0.717675,-2.477457 -0.183676,-0.252557 -0.533,-0.42036 -0.776639,-0.599706 -0.154308,-0.113587 -0.693166,-0.538023 -0.82582,-0.639022 -0.9569,-0.728557 -1.954242,-1.441816 -3.027966,-1.985905 -0.300217,-0.15212 -0.608147,-0.299255 -0.933987,-0.38342 -0.567026,-0.146465 -1.146583,-0.257077 -1.730272,-0.304766 -0.571889,-0.04672 -1.430935,0.0463 -2.025195,0.206455 -0.03559,0.0096 -0.687435,0.218997 -0.865134,0.334262 -0.05253,0.03407 -0.09756,0.07971 -0.137637,0.127803 -0.01069,0.01284 0.0021,0.06097 -0.0098,0.04916 -0.05657,-0.05657 -0.09176,-0.13108 -0.137636,-0.196621 C 71.911265,10.79345 71.680805,10.492473 71.400042,10.242904 70.241469,9.2130643 68.964574,8.2808203 67.477433,7.7851007 67.130043,7.6693026 66.140652,7.3997544 65.707844,7.6474642 c -0.505323,0.2892126 -0.852138,0.6593961 -0.933963,1.1994025 -0.0036,0.023654 -0.007,0.2884398 0.059,0.3244329 0.09356,0.051029 0.118316,-0.1197486 0.06881,-0.2162887 C 64.56283,8.294222 64.30692,7.822631 63.613823,7.5196569 62.267843,6.9312876 60.7897,7.6347846 59.946833,8.7288932 c -0.232397,0.30167 -0.501639,0.7648848 -0.19662,1.1207549"
       id="path5705"
       sodipodi:nodetypes="csssscsssccssssssssssssssssssssssssssccssscssssc" />
    <path
       style="fill:#ffffff;fill-opacity:1;stroke:#000000;stroke-width:0.264583px;stroke-linecap:butt;stroke-linejoin:miter;stroke-opacity:1"
       d="m 49.150269,23.656368 c -0.239225,-0.02949 -0.488823,-0.164148 -0.717674,-0.08848 -0.222218,0.07348 -0.348409,0.314426 -0.501385,0.491561 -0.320017,0.370552 -1.054876,1.392053 -0.825802,1.936745 0.215186,0.51167 1.395254,0.404963 1.769589,0.353917 0.124449,-0.01699 0.242983,-0.06381 0.363749,-0.09831 0.02989,-0.0085 0.07865,-0.05899 0.08848,-0.02949 0.01347,0.04041 -0.0072,0.08581 0,0.127804 0.102886,0.600099 0.0733,0.705417 0.65869,1.101101 0.436018,0.294719 1.230704,0.23804 1.72043,0.186788 0.320355,-0.03353 0.745897,-0.102309 0.924139,-0.403077 0.01844,-0.03114 -1.14e-4,-0.07334 0.0098,-0.108143 0.0037,-0.01299 0.0041,0.0271 0.0098,0.03933 0.02061,0.04378 0.03581,0.09243 0.06883,0.127802 0.06041,0.06473 0.127513,0.127015 0.206444,0.167129 0.312896,0.159017 0.58942,0.189497 0.943787,0.137636 0.929849,-0.136078 2.422451,-0.894686 2.585566,-1.936745 0.06399,-0.408823 -0.08573,-0.681643 -0.26543,-1.022439 -0.04519,-0.08569 -0.08993,-0.09078 -0.176971,-0.117978 -0.02212,-0.0069 -0.06881,0.01333 -0.06881,-0.0098 0,-0.06455 0.06387,-0.114128 0.07865,-0.176964 0.02813,-0.119571 0.05217,-0.24111 0.05898,-0.363757 0.03816,-0.686975 -0.419526,-1.483035 -1.101075,-1.690966 -0.635333,-0.193833 -1.240668,0.147633 -1.789255,0.403085 -5.29e-4,2.17e-4 -0.491448,0.2949 -0.629198,0.334259 -0.07499,0.02143 -0.09621,-0.195286 -0.108143,-0.216289 -0.102036,-0.179586 -0.240403,-0.371792 -0.422735,-0.48173 -0.585494,-0.353017 -1.215102,-0.309239 -1.808925,0.0098 -0.260201,0.139814 -0.551762,0.261736 -0.737322,0.491561 -0.188463,0.233421 -0.22284,0.557096 -0.334259,0.835645 z"
       id="path5707"
       sodipodi:nodetypes="csssccsssssscsssssssscscssscscc" />
    <path
       style="fill:#ffffff;fill-opacity:1;stroke:#000000;stroke-width:0.264583px;stroke-linecap:butt;stroke-linejoin:miter;stroke-opacity:1"
       d="m 12.102896,38.472274 c -0.669026,-0.683903 -0.365885,-2.276251 -1.449102,-2.127571 -0.179741,0.02466 -0.364298,0.06596 -0.521054,0.157295 -0.9516482,0.554506 -1.4514247,1.496148 -2.0448615,2.408648 -0.3561485,0.547632 -0.9430057,1.914064 -1.1207411,2.428295 -0.434272,1.256456 -0.6609022,2.272943 -0.2752731,3.647377 0.1753812,0.625083 1.1360473,0.716491 1.6319614,0.727509 0.027617,5.29e-4 0.4500957,-0.114213 0.4718939,0.09831 0.00942,0.0918 -0.05921,0.175228 -0.078652,0.265441 -0.086739,0.402468 -0.2434706,1.185653 -0.2457807,1.622144 -0.00724,1.368933 0.2192869,2.267627 1.2190608,3.273785 0.2005433,0.201821 0.4539923,0.355171 0.7176653,0.462068 1.330219,0.539287 2.273166,0.540121 3.657165,0.373584 0.37602,-0.04525 0.747342,-0.123441 1.120741,-0.186788 0.360657,-0.06118 0.718794,-0.138599 1.081415,-0.186796 0.156062,-0.02074 0.318664,-0.0558 0.471894,-0.01966 0.929174,0.219149 1.389904,1.320032 2.280808,1.543494 0.770774,0.193331 1.556207,0.358889 2.349627,0.403074 1.082232,0.06027 2.887453,-0.448564 3.853786,-0.668514 0.481332,-0.109557 0.547087,-0.141484 1.061756,-0.147469 0.09227,-0.0011 0.183312,0.02172 0.275265,0.02949 0.331571,0.02802 0.654122,0.06612 0.983112,-0.03932 1.081011,-0.346485 1.915092,-1.019215 2.762528,-1.749949 0.385903,-0.332761 1.038625,-0.946965 1.21906,-1.425525 0.150304,-0.398642 0.0945,-1.162957 0.06881,-1.514001 -0.04517,-0.61727 -0.250933,-1.617327 -0.442391,-2.113709 -0.187248,-0.48546 -0.454822,-0.937154 -0.717677,-1.386197 -0.106842,-0.182525 -0.410985,-0.372552 -0.570193,-0.51122 -0.495499,-0.431575 -1.008581,-0.85448 -1.474669,-1.317381 -0.753162,-0.748017 -0.759121,-0.865788 -1.523817,-1.681131 -0.214006,-0.228179 -0.422074,-0.465992 -0.668514,-0.658691 -0.372314,-0.291121 -0.761977,-0.565457 -1.179725,-0.786492 -0.510087,-0.269891 -1.104189,-0.220139 -1.65162,-0.196631 -0.409073,0.01757 -0.63608,0.1148 -1.022431,0.05899 -0.841406,-0.121536 -1.544769,-0.767974 -2.320134,-1.110924 -1.067237,-0.472051 -2.248857,-0.467323 -3.381892,-0.648859 -0.310513,-0.04975 -1.531572,-0.339558 -1.690945,-0.373581 -0.411228,-0.08779 -0.868161,-0.210249 -1.297704,-0.127812 -0.518453,0.0995 -1.295525,0.974955 -1.445165,1.130583 -0.26025,0.270663 -0.24025,0.250595 -0.117978,0.39325"
       id="path5709"
       sodipodi:nodetypes="cccssscsssssssssssscscsssssssssssssssssc" />
    <path
       style="fill:#ff0000;fill-opacity:1;stroke:#000000;stroke-width:0.529167"
       id="path5742"
       sodipodi:type="arc"
       sodipodi:cx="61.433186"
       sodipodi:cy="58.806698"
       sodipodi:rx="4.5392056"
       sodipodi:ry="4.5392056"
       sodipodi:start="3.1542926"
       sodipodi:end="3.1541765"
       sodipodi:open="true"
       sodipodi:arc-type="arc"
       d="m 56.894346,58.749052 a 4.5392056,4.5392056 0 0 1 4.596354,-4.481195 4.5392056,4.5392056 0 0 1 4.481328,4.596223 4.5392056,4.5392056 0 0 1 -4.596093,4.481462 4.5392056,4.5392056 0 0 1 -4.481596,-4.595963" />
    <path
       style="fill:none;stroke:#000000;stroke-width:0.52916667;stroke-linecap:butt;stroke-linejoin:miter;stroke-opacity:1;stroke-dasharray:none;marker-end:url(#TriangleStart)"
       d="M 61.566496,54.271743 V 41.829299"
       id="path5744" />
    <path
       style="fill:#ff0000;fill-opacity:1;stroke:#000000;stroke-width:0.529167"
       id="path5776"
       sodipodi:type="arc"
       sodipodi:cx="85.774872"
       sodipodi:cy="58.806698"
       sodipodi:rx="4.5392056"
       sodipodi:ry="4.5392056"
       sodipodi:start="3.1542926"
       sodipodi:end="3.1541765"
       sodipodi:open="true"
       sodipodi:arc-type="arc"
       d="m 81.236032,58.749052 a 4.5392056,4.5392056 0 0 1 4.596354,-4.481195 4.5392056,4.5392056 0 0 1 4.481329,4.596223 4.5392056,4.5392056 0 0 1 -4.596094,4.481462 4.5392056,4.5392056 0 0 1 -4.481595,-4.595963" />
    <path
       style="fill:none;stroke:#000000;stroke-width:0.529167;stroke-linecap:butt;stroke-linejoin:miter;stroke-dasharray:none;stroke-opacity:1;marker-end:url(#TriangleStart)"
       d="m 85.908171,63.180003 v 8.209111"
       id="path5778"
       sodipodi:nodetypes="cc" />
    <path
       style="fill:none;stroke:#000000;stroke-width:0.529167;stroke-linecap:butt;stroke-linejoin:miter;stroke-dasharray:none;stroke-opacity:1;marker-end:url(#TriangleStart)"
       d="m 61.566496,63.233531 v 4.504944"
       id="path5864"
       sodipodi:nodetypes="cc" />
    <text
       xml:space="preserve"
       style="font-style:normal;font-weight:normal;font-size:6.35px;line-height:1.25;font-family:sans-serif;fill:#000000;fill-opacity:1;stroke:none;stroke-width:0.264583"
       x="64.278397"
       y="44.742878"
       id="text5872"><tspan
         sodipodi:role="line"
         id="tspan5870"
         style="font-size:6.35px;stroke-width:0.264583"
         x="64.278397"
         y="44.742878">F<tspan
   style="font-size:65%;baseline-shift:sub"
   id="tspan5874">D</tspan></tspan></text>
    <text
       xml:space="preserve"
       style="font-style:normal;font-weight:normal;font-size:6.35px;line-height:1.25;font-family:sans-serif;fill:#000000;fill-opacity:1;stroke:none;stroke-width:0.264583"
       x="64.404442"
       y="69.994247"
       id="text5880"><tspan
         sodipodi:role="line"
         id="tspan5878"
         style="font-size:6.35px;stroke-width:0.264583"
         x="64.404442"
         y="69.994247">mg</tspan></text>
    <text
       xml:space="preserve"
       style="font-style:normal;font-weight:normal;font-size:6.35px;line-height:1.25;font-family:sans-serif;fill:#000000;fill-opacity:1;stroke:none;stroke-width:0.264583"
       x="87.687798"
       y="69.994247"
       id="text5884"><tspan
         sodipodi:role="line"
         id="tspan5882"
         style="font-size:6.35px;stroke-width:0.264583"
         x="87.687798"
         y="69.994247">ma</tspan></text>
    <text
       xml:space="preserve"
       style="font-style:normal;font-weight:normal;font-size:10.5833px;line-height:1.25;font-family:sans-serif;fill:#000000;fill-opacity:1;stroke:none;stroke-width:0.264583"
       x="70.848297"
       y="62.599174"
       id="text5888"><tspan
         sodipodi:role="line"
         id="tspan5886"
         style="stroke-width:0.264583"
         x="70.848297"
         y="62.599174">=</tspan></text>
    <rect
       style="fill:none;fill-opacity:1;stroke:#000000;stroke-width:0.529167;stroke-dasharray:none;stroke-opacity:1"
       id="rect5942"
       width="46.075657"
       height="36.59634"
       x="52.535088"
       y="38.006462"
       ry="1.3986466" />
    <rect
       style="fill:none;fill-opacity:1;stroke:#000000;stroke-width:0.529167;stroke-dasharray:none;stroke-opacity:1;opacity:0.28214684"
       id="rect5944"
       width="14.74789"
       height="11.713751"
       x="31.98749"
       y="28.484945"
       ry="1.3986466" />
  </g>
</svg>
