<?xml version="1.0" encoding="UTF-8" standalone="no"?>
<svg
   width="4in"
   height="3in"
   viewBox="0 0 101.6 76.200002"
   version="1.1"
   id="svg8"
   inkscape:version="1.2.1 (9c6d41e410, 2022-07-14, custom)"
   sodipodi:docname="series-springs_01-02.svg"
   inkscape:export-filename="series-springs_01-02.png"
   inkscape:export-xdpi="600"
   inkscape:export-ydpi="600"
   xmlns:inkscape="http://www.inkscape.org/namespaces/inkscape"
   xmlns:sodipodi="http://sodipodi.sourceforge.net/DTD/sodipodi-0.dtd"
   xmlns="http://www.w3.org/2000/svg"
   xmlns:svg="http://www.w3.org/2000/svg"
   xmlns:rdf="http://www.w3.org/1999/02/22-rdf-syntax-ns#"
   xmlns:cc="http://creativecommons.org/ns#"
   xmlns:dc="http://purl.org/dc/elements/1.1/">
  <defs
     id="defs2">
    <marker
       style="overflow:visible"
       id="TriangleStart"
       refX="0"
       refY="0"
       orient="auto-start-reverse"
       inkscape:stockid="TriangleStart"
       markerWidth="5.3244081"
       markerHeight="6.155385"
       viewBox="0 0 5.3244081 6.1553851"
       inkscape:isstock="true"
       inkscape:collect="always"
       preserveAspectRatio="xMidYMid">
      <path
         transform="scale(0.5)"
         style="fill:context-stroke;fill-rule:evenodd;stroke:context-stroke;stroke-width:1pt"
         d="M 5.77,0 -2.88,5 V -5 Z"
         id="path135" />
    </marker>
  </defs>
  <sodipodi:namedview
     id="base"
     pagecolor="#ffffff"
     bordercolor="#666666"
     borderopacity="1.0"
     inkscape:pageopacity="0.0"
     inkscape:pageshadow="2"
     inkscape:zoom="1.7554908"
     inkscape:cx="183.70931"
     inkscape:cy="99.11758"
     inkscape:document-units="mm"
     inkscape:current-layer="layer1"
     inkscape:document-rotation="0"
     showgrid="false"
     units="in"
     inkscape:window-width="1343"
     inkscape:window-height="908"
     inkscape:window-x="569"
     inkscape:window-y="136"
     inkscape:window-maximized="0"
     inkscape:showpageshadow="2"
     inkscape:pagecheckerboard="0"
     inkscape:deskcolor="#d1d1d1" />
  <metadata
     id="metadata5">
    <rdf:RDF>
      <cc:Work
         rdf:about="">
        <dc:format>image/svg+xml</dc:format>
        <dc:type
           rdf:resource="http://purl.org/dc/dcmitype/StillImage" />
      </cc:Work>
    </rdf:RDF>
  </metadata>
  <g
     inkscape:label="Layer 1"
     inkscape:groupmode="layer"
     id="layer1">
    <g
       id="g520"
       transform="matrix(0.04645672,0,0,0.04645672,5.7444087,10.673464)">
      <path
         sodipodi:nodetypes="ccccccccccccccccccccccccccccccccccccccccccccccccccc"
         d="m 452.66077,330.91345 -58.02812,-1.07204 c -0.23701,-14.55728 4.92803,-26.4373 12.25655,-26.4373 11.48305,0 15.26326,11.88002 15.26326,26.51789 0,17.94415 -14.85897,26.51788 -23.57232,26.51788 -8.71337,0 -24.95716,-7.50357 -24.95718,-26.51788 -2e-5,-14.63787 5.16502,-26.51789 12.49354,-26.51789 11.48305,0 15.26326,11.88002 15.26326,26.51789 0,17.94415 -14.85897,26.51788 -23.57232,26.51788 -8.71337,0 -24.95716,-7.50357 -24.95718,-26.51788 -2e-5,-14.63787 5.16502,-26.51789 12.49354,-26.51789 11.48305,0 15.26326,11.88002 15.26326,26.51789 0,17.94415 -14.85897,26.51788 -23.57232,26.51788 -8.71337,0 -24.95716,-7.50357 -24.95716,-26.51788 0,-14.63787 5.16504,-26.51789 12.49356,-26.51789 11.48305,0 15.26326,11.88002 15.26326,26.51789 0,17.94415 -14.85897,26.51788 -23.57232,26.51788 -8.71337,0 -24.95716,-7.50357 -24.95712,-26.51788 5e-5,-14.63787 5.16509,-26.51789 12.49361,-26.51789 11.48305,0 15.26326,11.88002 15.26326,26.51789 0,17.94415 -14.85897,26.51788 -23.57232,26.51788 -8.71337,0 -24.95716,-7.50357 -24.95716,-26.51788 0,-14.63787 5.16504,-26.51789 12.49356,-26.51789 11.48305,0 15.26326,11.88002 15.26326,26.51789 0,17.94415 -14.85897,26.51788 -23.57232,26.51788 -8.71337,0 -24.95716,-7.50357 -24.95716,-26.51788 0,-14.63787 5.16504,-26.51789 12.49356,-26.51789 11.48305,0 15.26326,11.88002 15.26326,26.51789 0,17.94415 -14.85897,26.51788 -23.57232,26.51788 -8.71337,0 -24.95716,-7.50357 -24.95716,-26.51788 0,-14.63787 5.16504,-26.51789 12.49356,-26.51789 11.48305,0 15.26326,11.88002 15.26326,26.51789 0,17.94415 -14.85897,26.51788 -23.57232,26.51788 -8.71337,0 -24.95716,-7.50357 -24.95716,-26.51788 1e-5,-14.63787 5.16505,-26.51789 12.49357,-26.51789 11.48305,0 15.26326,11.88002 15.26326,26.51789 0,17.94415 -14.85897,26.51788 -23.57232,26.51788 -8.71337,0 -24.95716,-7.50357 -24.95716,-26.51788 0,-14.63787 5.16504,-26.51789 12.49356,-26.51789 11.48305,0 15.26326,11.88002 15.26326,26.51789 0,17.94415 -14.85897,26.51788 -23.57232,26.51788 -8.71337,0 -24.95716,-7.50357 -24.95716,-26.51788 0,-14.63787 5.16504,-26.51789 12.49356,-26.51789 11.48305,0 15.26326,11.88002 15.26326,26.51789 0,17.94415 -14.85897,26.51788 -23.57232,26.51788 -8.71337,0 -24.95716,-7.50357 -24.95716,-26.51788 0,-14.63787 5.16504,-26.51789 12.49356,-26.51789 11.48305,0 15.26326,11.88002 15.26326,26.51789 0,17.94415 -14.85897,26.51788 -23.57232,26.51788 -8.71337,0 -24.95716,-7.73288 -24.62406,-26.9765 h -30.83592"
         style="fill:none;fill-opacity:1;fill-rule:nonzero;stroke:#000000;stroke-width:5;stroke-miterlimit:4;stroke-opacity:1"
         id="path5102"
         inkscape:connector-curvature="0" />
    </g>
    <rect
       style="opacity:1;fill:none;fill-opacity:1;stroke:#000000;stroke-width:0.264583;stroke-opacity:1"
       id="rect347"
       width="4.9198656"
       height="7.1675162"
       x="6.1464233"
       y="22.321033"
       ry="1.3986466" />
    <rect
       style="opacity:1;fill:none;fill-opacity:1;stroke:#000000;stroke-width:0.264583;stroke-opacity:1"
       id="rect1267"
       width="4.9198656"
       height="7.1675162"
       x="26.706913"
       y="22.321033"
       ry="1.3986466" />
    <g
       id="g1271"
       transform="matrix(0.04645672,0,0,0.04645672,26.38191,10.673464)">
      <path
         sodipodi:nodetypes="ccccccccccccccccccccccccccccccccccccccccccccccccccc"
         d="m 452.66077,330.91345 -58.02812,-1.07204 c -0.23701,-14.55728 4.92803,-26.4373 12.25655,-26.4373 11.48305,0 15.26326,11.88002 15.26326,26.51789 0,17.94415 -14.85897,26.51788 -23.57232,26.51788 -8.71337,0 -24.95716,-7.50357 -24.95718,-26.51788 -2e-5,-14.63787 5.16502,-26.51789 12.49354,-26.51789 11.48305,0 15.26326,11.88002 15.26326,26.51789 0,17.94415 -14.85897,26.51788 -23.57232,26.51788 -8.71337,0 -24.95716,-7.50357 -24.95718,-26.51788 -2e-5,-14.63787 5.16502,-26.51789 12.49354,-26.51789 11.48305,0 15.26326,11.88002 15.26326,26.51789 0,17.94415 -14.85897,26.51788 -23.57232,26.51788 -8.71337,0 -24.95716,-7.50357 -24.95716,-26.51788 0,-14.63787 5.16504,-26.51789 12.49356,-26.51789 11.48305,0 15.26326,11.88002 15.26326,26.51789 0,17.94415 -14.85897,26.51788 -23.57232,26.51788 -8.71337,0 -24.95716,-7.50357 -24.95712,-26.51788 5e-5,-14.63787 5.16509,-26.51789 12.49361,-26.51789 11.48305,0 15.26326,11.88002 15.26326,26.51789 0,17.94415 -14.85897,26.51788 -23.57232,26.51788 -8.71337,0 -24.95716,-7.50357 -24.95716,-26.51788 0,-14.63787 5.16504,-26.51789 12.49356,-26.51789 11.48305,0 15.26326,11.88002 15.26326,26.51789 0,17.94415 -14.85897,26.51788 -23.57232,26.51788 -8.71337,0 -24.95716,-7.50357 -24.95716,-26.51788 0,-14.63787 5.16504,-26.51789 12.49356,-26.51789 11.48305,0 15.26326,11.88002 15.26326,26.51789 0,17.94415 -14.85897,26.51788 -23.57232,26.51788 -8.71337,0 -24.95716,-7.50357 -24.95716,-26.51788 0,-14.63787 5.16504,-26.51789 12.49356,-26.51789 11.48305,0 15.26326,11.88002 15.26326,26.51789 0,17.94415 -14.85897,26.51788 -23.57232,26.51788 -8.71337,0 -24.95716,-7.50357 -24.95716,-26.51788 1e-5,-14.63787 5.16505,-26.51789 12.49357,-26.51789 11.48305,0 15.26326,11.88002 15.26326,26.51789 0,17.94415 -14.85897,26.51788 -23.57232,26.51788 -8.71337,0 -24.95716,-7.50357 -24.95716,-26.51788 0,-14.63787 5.16504,-26.51789 12.49356,-26.51789 11.48305,0 15.26326,11.88002 15.26326,26.51789 0,17.94415 -14.85897,26.51788 -23.57232,26.51788 -8.71337,0 -24.95716,-7.50357 -24.95716,-26.51788 0,-14.63787 5.16504,-26.51789 12.49356,-26.51789 11.48305,0 15.26326,11.88002 15.26326,26.51789 0,17.94415 -14.85897,26.51788 -23.57232,26.51788 -8.71337,0 -24.95716,-7.50357 -24.95716,-26.51788 0,-14.63787 5.16504,-26.51789 12.49356,-26.51789 11.48305,0 15.26326,11.88002 15.26326,26.51789 0,17.94415 -14.85897,26.51788 -23.57232,26.51788 -8.71337,0 -24.95716,-7.73288 -24.62406,-26.9765 h -30.83592"
         style="fill:none;fill-opacity:1;fill-rule:nonzero;stroke:#000000;stroke-width:5;stroke-miterlimit:4;stroke-opacity:1"
         id="path1269"
         inkscape:connector-curvature="0" />
    </g>
    <rect
       style="opacity:1;fill:none;fill-opacity:1;stroke:#000000;stroke-width:0.264583;stroke-opacity:1"
       id="rect1273"
       width="4.9198656"
       height="7.1675162"
       x="47.344418"
       y="22.321033"
       ry="1.3986466" />
    <g
       id="g1277"
       transform="matrix(0.04645672,0,0,0.04645672,47.019423,10.673464)">
      <path
         sodipodi:nodetypes="ccccccccccccccccccccccccccccccccccccccccccccccccccc"
         d="m 452.66077,330.91345 -58.02812,-1.07204 c -0.23701,-14.55728 4.92803,-26.4373 12.25655,-26.4373 11.48305,0 15.26326,11.88002 15.26326,26.51789 0,17.94415 -14.85897,26.51788 -23.57232,26.51788 -8.71337,0 -24.95716,-7.50357 -24.95718,-26.51788 -2e-5,-14.63787 5.16502,-26.51789 12.49354,-26.51789 11.48305,0 15.26326,11.88002 15.26326,26.51789 0,17.94415 -14.85897,26.51788 -23.57232,26.51788 -8.71337,0 -24.95716,-7.50357 -24.95718,-26.51788 -2e-5,-14.63787 5.16502,-26.51789 12.49354,-26.51789 11.48305,0 15.26326,11.88002 15.26326,26.51789 0,17.94415 -14.85897,26.51788 -23.57232,26.51788 -8.71337,0 -24.95716,-7.50357 -24.95716,-26.51788 0,-14.63787 5.16504,-26.51789 12.49356,-26.51789 11.48305,0 15.26326,11.88002 15.26326,26.51789 0,17.94415 -14.85897,26.51788 -23.57232,26.51788 -8.71337,0 -24.95716,-7.50357 -24.95712,-26.51788 5e-5,-14.63787 5.16509,-26.51789 12.49361,-26.51789 11.48305,0 15.26326,11.88002 15.26326,26.51789 0,17.94415 -14.85897,26.51788 -23.57232,26.51788 -8.71337,0 -24.95716,-7.50357 -24.95716,-26.51788 0,-14.63787 5.16504,-26.51789 12.49356,-26.51789 11.48305,0 15.26326,11.88002 15.26326,26.51789 0,17.94415 -14.85897,26.51788 -23.57232,26.51788 -8.71337,0 -24.95716,-7.50357 -24.95716,-26.51788 0,-14.63787 5.16504,-26.51789 12.49356,-26.51789 11.48305,0 15.26326,11.88002 15.26326,26.51789 0,17.94415 -14.85897,26.51788 -23.57232,26.51788 -8.71337,0 -24.95716,-7.50357 -24.95716,-26.51788 0,-14.63787 5.16504,-26.51789 12.49356,-26.51789 11.48305,0 15.26326,11.88002 15.26326,26.51789 0,17.94415 -14.85897,26.51788 -23.57232,26.51788 -8.71337,0 -24.95716,-7.50357 -24.95716,-26.51788 1e-5,-14.63787 5.16505,-26.51789 12.49357,-26.51789 11.48305,0 15.26326,11.88002 15.26326,26.51789 0,17.94415 -14.85897,26.51788 -23.57232,26.51788 -8.71337,0 -24.95716,-7.50357 -24.95716,-26.51788 0,-14.63787 5.16504,-26.51789 12.49356,-26.51789 11.48305,0 15.26326,11.88002 15.26326,26.51789 0,17.94415 -14.85897,26.51788 -23.57232,26.51788 -8.71337,0 -24.95716,-7.50357 -24.95716,-26.51788 0,-14.63787 5.16504,-26.51789 12.49356,-26.51789 11.48305,0 15.26326,11.88002 15.26326,26.51789 0,17.94415 -14.85897,26.51788 -23.57232,26.51788 -8.71337,0 -24.95716,-7.50357 -24.95716,-26.51788 0,-14.63787 5.16504,-26.51789 12.49356,-26.51789 11.48305,0 15.26326,11.88002 15.26326,26.51789 0,17.94415 -14.85897,26.51788 -23.57232,26.51788 -8.71337,0 -24.95716,-7.73288 -24.62406,-26.9765 h -30.83592"
         style="fill:none;fill-opacity:1;fill-rule:nonzero;stroke:#000000;stroke-width:5;stroke-miterlimit:4;stroke-opacity:1"
         id="path1275"
         inkscape:connector-curvature="0" />
    </g>
    <rect
       style="opacity:1;fill:none;fill-opacity:1;stroke:#000000;stroke-width:0.264583;stroke-opacity:1"
       id="rect1279"
       width="4.9198656"
       height="7.1675162"
       x="67.981934"
       y="22.321033"
       ry="1.3986466" />
    <g
       id="g1283"
       transform="matrix(0.04645672,0,0,0.04645672,67.656936,10.673464)">
      <path
         sodipodi:nodetypes="ccccccccccccccccccccccccccccccccccccccccccccccccccc"
         d="m 452.66077,330.91345 -58.02812,-1.07204 c -0.23701,-14.55728 4.92803,-26.4373 12.25655,-26.4373 11.48305,0 15.26326,11.88002 15.26326,26.51789 0,17.94415 -14.85897,26.51788 -23.57232,26.51788 -8.71337,0 -24.95716,-7.50357 -24.95718,-26.51788 -2e-5,-14.63787 5.16502,-26.51789 12.49354,-26.51789 11.48305,0 15.26326,11.88002 15.26326,26.51789 0,17.94415 -14.85897,26.51788 -23.57232,26.51788 -8.71337,0 -24.95716,-7.50357 -24.95718,-26.51788 -2e-5,-14.63787 5.16502,-26.51789 12.49354,-26.51789 11.48305,0 15.26326,11.88002 15.26326,26.51789 0,17.94415 -14.85897,26.51788 -23.57232,26.51788 -8.71337,0 -24.95716,-7.50357 -24.95716,-26.51788 0,-14.63787 5.16504,-26.51789 12.49356,-26.51789 11.48305,0 15.26326,11.88002 15.26326,26.51789 0,17.94415 -14.85897,26.51788 -23.57232,26.51788 -8.71337,0 -24.95716,-7.50357 -24.95712,-26.51788 5e-5,-14.63787 5.16509,-26.51789 12.49361,-26.51789 11.48305,0 15.26326,11.88002 15.26326,26.51789 0,17.94415 -14.85897,26.51788 -23.57232,26.51788 -8.71337,0 -24.95716,-7.50357 -24.95716,-26.51788 0,-14.63787 5.16504,-26.51789 12.49356,-26.51789 11.48305,0 15.26326,11.88002 15.26326,26.51789 0,17.94415 -14.85897,26.51788 -23.57232,26.51788 -8.71337,0 -24.95716,-7.50357 -24.95716,-26.51788 0,-14.63787 5.16504,-26.51789 12.49356,-26.51789 11.48305,0 15.26326,11.88002 15.26326,26.51789 0,17.94415 -14.85897,26.51788 -23.57232,26.51788 -8.71337,0 -24.95716,-7.50357 -24.95716,-26.51788 0,-14.63787 5.16504,-26.51789 12.49356,-26.51789 11.48305,0 15.26326,11.88002 15.26326,26.51789 0,17.94415 -14.85897,26.51788 -23.57232,26.51788 -8.71337,0 -24.95716,-7.50357 -24.95716,-26.51788 1e-5,-14.63787 5.16505,-26.51789 12.49357,-26.51789 11.48305,0 15.26326,11.88002 15.26326,26.51789 0,17.94415 -14.85897,26.51788 -23.57232,26.51788 -8.71337,0 -24.95716,-7.50357 -24.95716,-26.51788 0,-14.63787 5.16504,-26.51789 12.49356,-26.51789 11.48305,0 15.26326,11.88002 15.26326,26.51789 0,17.94415 -14.85897,26.51788 -23.57232,26.51788 -8.71337,0 -24.95716,-7.50357 -24.95716,-26.51788 0,-14.63787 5.16504,-26.51789 12.49356,-26.51789 11.48305,0 15.26326,11.88002 15.26326,26.51789 0,17.94415 -14.85897,26.51788 -23.57232,26.51788 -8.71337,0 -24.95716,-7.50357 -24.95716,-26.51788 0,-14.63787 5.16504,-26.51789 12.49356,-26.51789 11.48305,0 15.26326,11.88002 15.26326,26.51789 0,17.94415 -14.85897,26.51788 -23.57232,26.51788 -8.71337,0 -24.95716,-7.73288 -24.62406,-26.9765 h -30.83592"
         style="fill:none;fill-opacity:1;fill-rule:nonzero;stroke:#000000;stroke-width:5;stroke-miterlimit:4;stroke-opacity:1"
         id="path1281"
         inkscape:connector-curvature="0" />
    </g>
    <rect
       style="opacity:1;fill:none;fill-opacity:1;stroke:#000000;stroke-width:0.264583;stroke-opacity:1"
       id="rect1285"
       width="4.9198656"
       height="7.1675162"
       x="88.619453"
       y="22.321033"
       ry="1.3986466" />
    <path
       style="fill:none;stroke:#000000;stroke-width:0.529167;stroke-linecap:butt;stroke-linejoin:miter;stroke-dasharray:none;stroke-opacity:1;marker-end:url(#TriangleStart)"
       d="M 0.54409747,25.908991 H 5.1634478"
       id="path1350" />
    <path
       style="fill:none;stroke:#000000;stroke-width:0.529167;stroke-linecap:butt;stroke-linejoin:miter;stroke-dasharray:none;stroke-opacity:1;marker-end:url(#TriangleStart)"
       d="M 99.537763,25.908991 H 94.918424"
       id="path1569" />
    <path
       style="fill:none;stroke:#000000;stroke-width:0.264583px;stroke-linecap:butt;stroke-linejoin:miter;stroke-opacity:1;marker-start:url(#TriangleStart)"
       d="M 13.328681,20.617321 H 8.7093294 v 1.62612"
       id="path1577" />
    <path
       style="fill:none;stroke:#000000;stroke-width:0.264583px;stroke-linecap:butt;stroke-linejoin:miter;stroke-opacity:1;marker-start:url(#TriangleStart)"
       d="m 33.966194,20.617321 h -4.619353 v 1.62612"
       id="path1603" />
    <path
       style="fill:none;stroke:#000000;stroke-width:0.264583px;stroke-linecap:butt;stroke-linejoin:miter;stroke-opacity:1;marker-start:url(#TriangleStart)"
       d="m 54.074528,20.617321 h -4.619353 v 1.62612"
       id="path1607" />
    <path
       style="fill:none;stroke:#000000;stroke-width:0.264583px;stroke-linecap:butt;stroke-linejoin:miter;stroke-opacity:1;marker-start:url(#TriangleStart)"
       d="m 74.977455,20.617321 h -4.619353 v 1.62612"
       id="path1611" />
    <path
       style="fill:none;stroke:#000000;stroke-width:0.264583px;stroke-linecap:butt;stroke-linejoin:miter;stroke-opacity:1;marker-start:url(#TriangleStart)"
       d="m 95.614968,20.617321 h -4.619353 v 1.62612"
       id="path1615" />
    <text
       xml:space="preserve"
       style="font-style:normal;font-weight:normal;font-size:6.35px;line-height:1.25;font-family:sans-serif;fill:#000000;fill-opacity:1;stroke:none;stroke-width:0.264583"
       x="17.573252"
       y="32.494003"
       id="text1673"><tspan
         sodipodi:role="line"
         id="tspan1671"
         style="font-size:6.35px;stroke-width:0.264583"
         x="17.573252"
         y="32.494003">k<tspan
   style="font-size:65%;baseline-shift:sub"
   id="tspan1725">1</tspan></tspan></text>
    <text
       xml:space="preserve"
       style="font-style:normal;font-weight:normal;font-size:6.35px;line-height:1.25;font-family:sans-serif;fill:#000000;fill-opacity:1;stroke:none;stroke-width:0.264583"
       x="37.152435"
       y="32.494003"
       id="text1731"><tspan
         sodipodi:role="line"
         id="tspan1729"
         style="font-size:6.35px;stroke-width:0.264583"
         x="37.152435"
         y="32.494003">k<tspan
   style="font-size:65%;baseline-shift:sub"
   id="tspan1727">2</tspan></tspan></text>
    <text
       xml:space="preserve"
       style="font-style:normal;font-weight:normal;font-size:6.35px;line-height:1.25;font-family:sans-serif;fill:#000000;fill-opacity:1;stroke:none;stroke-width:0.264583"
       x="57.789955"
       y="32.494003"
       id="text1737"><tspan
         sodipodi:role="line"
         id="tspan1735"
         style="font-size:6.35px;stroke-width:0.264583"
         x="57.789955"
         y="32.494003">k<tspan
   style="font-size:65%;baseline-shift:sub"
   id="tspan1733">3</tspan></tspan></text>
    <text
       xml:space="preserve"
       style="font-style:normal;font-weight:normal;font-size:6.35px;line-height:1.25;font-family:sans-serif;fill:#000000;fill-opacity:1;stroke:none;stroke-width:0.264583"
       x="78.427475"
       y="32.494003"
       id="text1743"><tspan
         sodipodi:role="line"
         id="tspan1741"
         style="font-size:6.35px;stroke-width:0.264583"
         x="78.427475"
         y="32.494003">k<tspan
   style="font-size:65%;baseline-shift:sub"
   id="tspan1739">4</tspan></tspan></text>
    <text
       xml:space="preserve"
       style="font-style:normal;font-weight:normal;font-size:6.35px;line-height:1.25;font-family:sans-serif;fill:#000000;fill-opacity:1;stroke:none;stroke-width:0.264583"
       x="8.5774231"
       y="16.618988"
       id="text1749"><tspan
         sodipodi:role="line"
         id="tspan1747"
         style="font-size:6.35px;stroke-width:0.264583"
         x="8.5774231"
         y="16.618988">x<tspan
   style="font-size:65%;baseline-shift:sub"
   id="tspan1745">1</tspan></tspan></text>
    <text
       xml:space="preserve"
       style="font-style:normal;font-weight:normal;font-size:6.35px;line-height:1.25;font-family:sans-serif;fill:#000000;fill-opacity:1;stroke:none;stroke-width:0.264583"
       x="28.156593"
       y="16.618988"
       id="text1755"><tspan
         sodipodi:role="line"
         id="tspan1753"
         style="font-size:6.35px;stroke-width:0.264583"
         x="28.156593"
         y="16.618988">x<tspan
   style="font-size:65%;baseline-shift:sub"
   id="tspan1751">2</tspan></tspan></text>
    <text
       xml:space="preserve"
       style="font-style:normal;font-weight:normal;font-size:6.35px;line-height:1.25;font-family:sans-serif;fill:#000000;fill-opacity:1;stroke:none;stroke-width:0.264583"
       x="48.794113"
       y="16.618988"
       id="text1761"><tspan
         sodipodi:role="line"
         id="tspan1759"
         style="font-size:6.35px;stroke-width:0.264583"
         x="48.794113"
         y="16.618988">x<tspan
   style="font-size:65%;baseline-shift:sub"
   id="tspan1757">3</tspan></tspan></text>
    <text
       xml:space="preserve"
       style="font-style:normal;font-weight:normal;font-size:6.35px;line-height:1.25;font-family:sans-serif;fill:#000000;fill-opacity:1;stroke:none;stroke-width:0.264583"
       x="69.431633"
       y="16.618988"
       id="text1767"><tspan
         sodipodi:role="line"
         id="tspan1765"
         style="font-size:6.35px;stroke-width:0.264583"
         x="69.431633"
         y="16.618988">x<tspan
   style="font-size:65%;baseline-shift:sub"
   id="tspan1763">4</tspan></tspan></text>
    <text
       xml:space="preserve"
       style="font-style:normal;font-weight:normal;font-size:6.35px;line-height:1.25;font-family:sans-serif;fill:#000000;fill-opacity:1;stroke:none;stroke-width:0.264583"
       x="90.59832"
       y="16.618988"
       id="text1773"><tspan
         sodipodi:role="line"
         id="tspan1771"
         style="font-size:6.35px;stroke-width:0.264583"
         x="90.59832"
         y="16.618988">x<tspan
   style="font-size:65%;baseline-shift:sub"
   id="tspan1769">5</tspan></tspan></text>
    <text
       xml:space="preserve"
       style="font-style:normal;font-weight:normal;font-size:6.35px;line-height:1.25;font-family:sans-serif;fill:#000000;fill-opacity:1;stroke:none;stroke-width:0.264583"
       x="0.63992316"
       y="31.964836"
       id="text1779"><tspan
         sodipodi:role="line"
         id="tspan1777"
         style="font-size:6.35px;stroke-width:0.264583"
         x="0.63992316"
         y="31.964836">F</tspan></text>
    <text
       xml:space="preserve"
       style="font-style:normal;font-weight:normal;font-size:6.35px;line-height:1.25;font-family:sans-serif;fill:#000000;fill-opacity:1;stroke:none;stroke-width:0.264583"
       x="96.94825"
       y="31.964836"
       id="text1783"><tspan
         sodipodi:role="line"
         id="tspan1781"
         style="font-size:6.35px;stroke-width:0.264583"
         x="96.94825"
         y="31.964836">F</tspan></text>
    <g
       id="g1803"
       transform="matrix(0.04645672,0,0,0.04645672,5.7444087,48.773486)">
      <path
         sodipodi:nodetypes="ccccccccccccccccccccccccccccccccccccccccccccccccccc"
         d="m 452.66077,330.91345 -58.02812,-1.07204 c -0.23701,-14.55728 4.92803,-26.4373 12.25655,-26.4373 11.48305,0 15.26326,11.88002 15.26326,26.51789 0,17.94415 -14.85897,26.51788 -23.57232,26.51788 -8.71337,0 -24.95716,-7.50357 -24.95718,-26.51788 -2e-5,-14.63787 5.16502,-26.51789 12.49354,-26.51789 11.48305,0 15.26326,11.88002 15.26326,26.51789 0,17.94415 -14.85897,26.51788 -23.57232,26.51788 -8.71337,0 -24.95716,-7.50357 -24.95718,-26.51788 -2e-5,-14.63787 5.16502,-26.51789 12.49354,-26.51789 11.48305,0 15.26326,11.88002 15.26326,26.51789 0,17.94415 -14.85897,26.51788 -23.57232,26.51788 -8.71337,0 -24.95716,-7.50357 -24.95716,-26.51788 0,-14.63787 5.16504,-26.51789 12.49356,-26.51789 11.48305,0 15.26326,11.88002 15.26326,26.51789 0,17.94415 -14.85897,26.51788 -23.57232,26.51788 -8.71337,0 -24.95716,-7.50357 -24.95712,-26.51788 5e-5,-14.63787 5.16509,-26.51789 12.49361,-26.51789 11.48305,0 15.26326,11.88002 15.26326,26.51789 0,17.94415 -14.85897,26.51788 -23.57232,26.51788 -8.71337,0 -24.95716,-7.50357 -24.95716,-26.51788 0,-14.63787 5.16504,-26.51789 12.49356,-26.51789 11.48305,0 15.26326,11.88002 15.26326,26.51789 0,17.94415 -14.85897,26.51788 -23.57232,26.51788 -8.71337,0 -24.95716,-7.50357 -24.95716,-26.51788 0,-14.63787 5.16504,-26.51789 12.49356,-26.51789 11.48305,0 15.26326,11.88002 15.26326,26.51789 0,17.94415 -14.85897,26.51788 -23.57232,26.51788 -8.71337,0 -24.95716,-7.50357 -24.95716,-26.51788 0,-14.63787 5.16504,-26.51789 12.49356,-26.51789 11.48305,0 15.26326,11.88002 15.26326,26.51789 0,17.94415 -14.85897,26.51788 -23.57232,26.51788 -8.71337,0 -24.95716,-7.50357 -24.95716,-26.51788 1e-5,-14.63787 5.16505,-26.51789 12.49357,-26.51789 11.48305,0 15.26326,11.88002 15.26326,26.51789 0,17.94415 -14.85897,26.51788 -23.57232,26.51788 -8.71337,0 -24.95716,-7.50357 -24.95716,-26.51788 0,-14.63787 5.16504,-26.51789 12.49356,-26.51789 11.48305,0 15.26326,11.88002 15.26326,26.51789 0,17.94415 -14.85897,26.51788 -23.57232,26.51788 -8.71337,0 -24.95716,-7.50357 -24.95716,-26.51788 0,-14.63787 5.16504,-26.51789 12.49356,-26.51789 11.48305,0 15.26326,11.88002 15.26326,26.51789 0,17.94415 -14.85897,26.51788 -23.57232,26.51788 -8.71337,0 -24.95716,-7.50357 -24.95716,-26.51788 0,-14.63787 5.16504,-26.51789 12.49356,-26.51789 11.48305,0 15.26326,11.88002 15.26326,26.51789 0,17.94415 -14.85897,26.51788 -23.57232,26.51788 -8.71337,0 -24.95716,-7.73288 -24.62406,-26.9765 h -30.83592"
         style="fill:none;fill-opacity:1;fill-rule:nonzero;stroke:#000000;stroke-width:5;stroke-miterlimit:4;stroke-opacity:1"
         id="path1801"
         inkscape:connector-curvature="0" />
    </g>
    <rect
       style="opacity:1;fill:none;fill-opacity:1;stroke:#000000;stroke-width:0.264583;stroke-opacity:1"
       id="rect1805"
       width="4.9198656"
       height="7.1675162"
       x="6.1464233"
       y="60.42107"
       ry="1.3986466" />
    <rect
       style="opacity:1;fill:none;fill-opacity:1;stroke:#000000;stroke-width:0.264583;stroke-opacity:1"
       id="rect1807"
       width="4.9198656"
       height="7.1675162"
       x="26.706913"
       y="60.42107"
       ry="1.3986466" />
    <g
       id="g1811"
       transform="matrix(0.04645672,0,0,0.04645672,26.38191,48.773486)">
      <path
         sodipodi:nodetypes="ccccccccccccccccccccccccccccccccccccccccccccccccccc"
         d="m 452.66077,330.91345 -58.02812,-1.07204 c -0.23701,-14.55728 4.92803,-26.4373 12.25655,-26.4373 11.48305,0 15.26326,11.88002 15.26326,26.51789 0,17.94415 -14.85897,26.51788 -23.57232,26.51788 -8.71337,0 -24.95716,-7.50357 -24.95718,-26.51788 -2e-5,-14.63787 5.16502,-26.51789 12.49354,-26.51789 11.48305,0 15.26326,11.88002 15.26326,26.51789 0,17.94415 -14.85897,26.51788 -23.57232,26.51788 -8.71337,0 -24.95716,-7.50357 -24.95718,-26.51788 -2e-5,-14.63787 5.16502,-26.51789 12.49354,-26.51789 11.48305,0 15.26326,11.88002 15.26326,26.51789 0,17.94415 -14.85897,26.51788 -23.57232,26.51788 -8.71337,0 -24.95716,-7.50357 -24.95716,-26.51788 0,-14.63787 5.16504,-26.51789 12.49356,-26.51789 11.48305,0 15.26326,11.88002 15.26326,26.51789 0,17.94415 -14.85897,26.51788 -23.57232,26.51788 -8.71337,0 -24.95716,-7.50357 -24.95712,-26.51788 5e-5,-14.63787 5.16509,-26.51789 12.49361,-26.51789 11.48305,0 15.26326,11.88002 15.26326,26.51789 0,17.94415 -14.85897,26.51788 -23.57232,26.51788 -8.71337,0 -24.95716,-7.50357 -24.95716,-26.51788 0,-14.63787 5.16504,-26.51789 12.49356,-26.51789 11.48305,0 15.26326,11.88002 15.26326,26.51789 0,17.94415 -14.85897,26.51788 -23.57232,26.51788 -8.71337,0 -24.95716,-7.50357 -24.95716,-26.51788 0,-14.63787 5.16504,-26.51789 12.49356,-26.51789 11.48305,0 15.26326,11.88002 15.26326,26.51789 0,17.94415 -14.85897,26.51788 -23.57232,26.51788 -8.71337,0 -24.95716,-7.50357 -24.95716,-26.51788 0,-14.63787 5.16504,-26.51789 12.49356,-26.51789 11.48305,0 15.26326,11.88002 15.26326,26.51789 0,17.94415 -14.85897,26.51788 -23.57232,26.51788 -8.71337,0 -24.95716,-7.50357 -24.95716,-26.51788 1e-5,-14.63787 5.16505,-26.51789 12.49357,-26.51789 11.48305,0 15.26326,11.88002 15.26326,26.51789 0,17.94415 -14.85897,26.51788 -23.57232,26.51788 -8.71337,0 -24.95716,-7.50357 -24.95716,-26.51788 0,-14.63787 5.16504,-26.51789 12.49356,-26.51789 11.48305,0 15.26326,11.88002 15.26326,26.51789 0,17.94415 -14.85897,26.51788 -23.57232,26.51788 -8.71337,0 -24.95716,-7.50357 -24.95716,-26.51788 0,-14.63787 5.16504,-26.51789 12.49356,-26.51789 11.48305,0 15.26326,11.88002 15.26326,26.51789 0,17.94415 -14.85897,26.51788 -23.57232,26.51788 -8.71337,0 -24.95716,-7.50357 -24.95716,-26.51788 0,-14.63787 5.16504,-26.51789 12.49356,-26.51789 11.48305,0 15.26326,11.88002 15.26326,26.51789 0,17.94415 -14.85897,26.51788 -23.57232,26.51788 -8.71337,0 -24.95716,-7.73288 -24.62406,-26.9765 h -30.83592"
         style="fill:none;fill-opacity:1;fill-rule:nonzero;stroke:#000000;stroke-width:5;stroke-miterlimit:4;stroke-opacity:1"
         id="path1809"
         inkscape:connector-curvature="0" />
    </g>
    <rect
       style="opacity:1;fill:none;fill-opacity:1;stroke:#000000;stroke-width:0.264583;stroke-opacity:1"
       id="rect1813"
       width="4.9198656"
       height="7.1675162"
       x="47.344418"
       y="60.42107"
       ry="1.3986466" />
    <g
       id="g1817"
       transform="matrix(0.04645672,0,0,0.04645672,47.019423,48.773486)">
      <path
         sodipodi:nodetypes="ccccccccccccccccccccccccccccccccccccccccccccccccccc"
         d="m 452.66077,330.91345 -58.02812,-1.07204 c -0.23701,-14.55728 4.92803,-26.4373 12.25655,-26.4373 11.48305,0 15.26326,11.88002 15.26326,26.51789 0,17.94415 -14.85897,26.51788 -23.57232,26.51788 -8.71337,0 -24.95716,-7.50357 -24.95718,-26.51788 -2e-5,-14.63787 5.16502,-26.51789 12.49354,-26.51789 11.48305,0 15.26326,11.88002 15.26326,26.51789 0,17.94415 -14.85897,26.51788 -23.57232,26.51788 -8.71337,0 -24.95716,-7.50357 -24.95718,-26.51788 -2e-5,-14.63787 5.16502,-26.51789 12.49354,-26.51789 11.48305,0 15.26326,11.88002 15.26326,26.51789 0,17.94415 -14.85897,26.51788 -23.57232,26.51788 -8.71337,0 -24.95716,-7.50357 -24.95716,-26.51788 0,-14.63787 5.16504,-26.51789 12.49356,-26.51789 11.48305,0 15.26326,11.88002 15.26326,26.51789 0,17.94415 -14.85897,26.51788 -23.57232,26.51788 -8.71337,0 -24.95716,-7.50357 -24.95712,-26.51788 5e-5,-14.63787 5.16509,-26.51789 12.49361,-26.51789 11.48305,0 15.26326,11.88002 15.26326,26.51789 0,17.94415 -14.85897,26.51788 -23.57232,26.51788 -8.71337,0 -24.95716,-7.50357 -24.95716,-26.51788 0,-14.63787 5.16504,-26.51789 12.49356,-26.51789 11.48305,0 15.26326,11.88002 15.26326,26.51789 0,17.94415 -14.85897,26.51788 -23.57232,26.51788 -8.71337,0 -24.95716,-7.50357 -24.95716,-26.51788 0,-14.63787 5.16504,-26.51789 12.49356,-26.51789 11.48305,0 15.26326,11.88002 15.26326,26.51789 0,17.94415 -14.85897,26.51788 -23.57232,26.51788 -8.71337,0 -24.95716,-7.50357 -24.95716,-26.51788 0,-14.63787 5.16504,-26.51789 12.49356,-26.51789 11.48305,0 15.26326,11.88002 15.26326,26.51789 0,17.94415 -14.85897,26.51788 -23.57232,26.51788 -8.71337,0 -24.95716,-7.50357 -24.95716,-26.51788 1e-5,-14.63787 5.16505,-26.51789 12.49357,-26.51789 11.48305,0 15.26326,11.88002 15.26326,26.51789 0,17.94415 -14.85897,26.51788 -23.57232,26.51788 -8.71337,0 -24.95716,-7.50357 -24.95716,-26.51788 0,-14.63787 5.16504,-26.51789 12.49356,-26.51789 11.48305,0 15.26326,11.88002 15.26326,26.51789 0,17.94415 -14.85897,26.51788 -23.57232,26.51788 -8.71337,0 -24.95716,-7.50357 -24.95716,-26.51788 0,-14.63787 5.16504,-26.51789 12.49356,-26.51789 11.48305,0 15.26326,11.88002 15.26326,26.51789 0,17.94415 -14.85897,26.51788 -23.57232,26.51788 -8.71337,0 -24.95716,-7.50357 -24.95716,-26.51788 0,-14.63787 5.16504,-26.51789 12.49356,-26.51789 11.48305,0 15.26326,11.88002 15.26326,26.51789 0,17.94415 -14.85897,26.51788 -23.57232,26.51788 -8.71337,0 -24.95716,-7.73288 -24.62406,-26.9765 h -30.83592"
         style="fill:none;fill-opacity:1;fill-rule:nonzero;stroke:#000000;stroke-width:5;stroke-miterlimit:4;stroke-opacity:1"
         id="path1815"
         inkscape:connector-curvature="0" />
    </g>
    <rect
       style="opacity:1;fill:none;fill-opacity:1;stroke:#000000;stroke-width:0.264583;stroke-opacity:1"
       id="rect1819"
       width="4.9198656"
       height="7.1675162"
       x="67.981934"
       y="60.42107"
       ry="1.3986466" />
    <g
       id="g1823"
       transform="matrix(0.04645672,0,0,0.04645672,67.656936,48.773486)">
      <path
         sodipodi:nodetypes="ccccccccccccccccccccccccccccccccccccccccccccccccccc"
         d="m 452.66077,330.91345 -58.02812,-1.07204 c -0.23701,-14.55728 4.92803,-26.4373 12.25655,-26.4373 11.48305,0 15.26326,11.88002 15.26326,26.51789 0,17.94415 -14.85897,26.51788 -23.57232,26.51788 -8.71337,0 -24.95716,-7.50357 -24.95718,-26.51788 -2e-5,-14.63787 5.16502,-26.51789 12.49354,-26.51789 11.48305,0 15.26326,11.88002 15.26326,26.51789 0,17.94415 -14.85897,26.51788 -23.57232,26.51788 -8.71337,0 -24.95716,-7.50357 -24.95718,-26.51788 -2e-5,-14.63787 5.16502,-26.51789 12.49354,-26.51789 11.48305,0 15.26326,11.88002 15.26326,26.51789 0,17.94415 -14.85897,26.51788 -23.57232,26.51788 -8.71337,0 -24.95716,-7.50357 -24.95716,-26.51788 0,-14.63787 5.16504,-26.51789 12.49356,-26.51789 11.48305,0 15.26326,11.88002 15.26326,26.51789 0,17.94415 -14.85897,26.51788 -23.57232,26.51788 -8.71337,0 -24.95716,-7.50357 -24.95712,-26.51788 5e-5,-14.63787 5.16509,-26.51789 12.49361,-26.51789 11.48305,0 15.26326,11.88002 15.26326,26.51789 0,17.94415 -14.85897,26.51788 -23.57232,26.51788 -8.71337,0 -24.95716,-7.50357 -24.95716,-26.51788 0,-14.63787 5.16504,-26.51789 12.49356,-26.51789 11.48305,0 15.26326,11.88002 15.26326,26.51789 0,17.94415 -14.85897,26.51788 -23.57232,26.51788 -8.71337,0 -24.95716,-7.50357 -24.95716,-26.51788 0,-14.63787 5.16504,-26.51789 12.49356,-26.51789 11.48305,0 15.26326,11.88002 15.26326,26.51789 0,17.94415 -14.85897,26.51788 -23.57232,26.51788 -8.71337,0 -24.95716,-7.50357 -24.95716,-26.51788 0,-14.63787 5.16504,-26.51789 12.49356,-26.51789 11.48305,0 15.26326,11.88002 15.26326,26.51789 0,17.94415 -14.85897,26.51788 -23.57232,26.51788 -8.71337,0 -24.95716,-7.50357 -24.95716,-26.51788 1e-5,-14.63787 5.16505,-26.51789 12.49357,-26.51789 11.48305,0 15.26326,11.88002 15.26326,26.51789 0,17.94415 -14.85897,26.51788 -23.57232,26.51788 -8.71337,0 -24.95716,-7.50357 -24.95716,-26.51788 0,-14.63787 5.16504,-26.51789 12.49356,-26.51789 11.48305,0 15.26326,11.88002 15.26326,26.51789 0,17.94415 -14.85897,26.51788 -23.57232,26.51788 -8.71337,0 -24.95716,-7.50357 -24.95716,-26.51788 0,-14.63787 5.16504,-26.51789 12.49356,-26.51789 11.48305,0 15.26326,11.88002 15.26326,26.51789 0,17.94415 -14.85897,26.51788 -23.57232,26.51788 -8.71337,0 -24.95716,-7.50357 -24.95716,-26.51788 0,-14.63787 5.16504,-26.51789 12.49356,-26.51789 11.48305,0 15.26326,11.88002 15.26326,26.51789 0,17.94415 -14.85897,26.51788 -23.57232,26.51788 -8.71337,0 -24.95716,-7.73288 -24.62406,-26.9765 h -30.83592"
         style="fill:none;fill-opacity:1;fill-rule:nonzero;stroke:#000000;stroke-width:5;stroke-miterlimit:4;stroke-opacity:1"
         id="path1821"
         inkscape:connector-curvature="0" />
    </g>
    <rect
       style="opacity:1;fill:none;fill-opacity:1;stroke:#000000;stroke-width:0.264583;stroke-opacity:1"
       id="rect1825"
       width="4.9198656"
       height="7.1675162"
       x="88.619453"
       y="60.42107"
       ry="1.3986466" />
    <path
       style="fill:none;stroke:#000000;stroke-width:0.529167;stroke-linecap:butt;stroke-linejoin:miter;stroke-dasharray:none;stroke-opacity:1;marker-end:url(#TriangleStart)"
       d="M 0.54409747,64.009013 H 5.1634478"
       id="path1827" />
    <path
       style="fill:none;stroke:#000000;stroke-width:0.264583px;stroke-linecap:butt;stroke-linejoin:miter;stroke-opacity:1;marker-start:url(#TriangleStart)"
       d="M 13.328681,58.717343 H 8.7093294 v 1.62612"
       id="path1831" />
    <path
       style="fill:none;stroke:#000000;stroke-width:0.264583px;stroke-linecap:butt;stroke-linejoin:miter;stroke-opacity:1;marker-start:url(#TriangleStart)"
       d="m 33.966194,58.717343 h -4.619353 v 1.62612"
       id="path1833" />
    <path
       style="fill:none;stroke:#000000;stroke-width:0.264583px;stroke-linecap:butt;stroke-linejoin:miter;stroke-opacity:1;marker-start:url(#TriangleStart)"
       d="m 54.074528,58.717343 h -4.619353 v 1.62612"
       id="path1835" />
    <path
       style="fill:none;stroke:#000000;stroke-width:0.264583px;stroke-linecap:butt;stroke-linejoin:miter;stroke-opacity:1;marker-start:url(#TriangleStart)"
       d="m 74.977455,58.717343 h -4.619353 v 1.62612"
       id="path1837" />
    <text
       xml:space="preserve"
       style="font-style:normal;font-weight:normal;font-size:6.35px;line-height:1.25;font-family:sans-serif;fill:#000000;fill-opacity:1;stroke:none;stroke-width:0.264583"
       x="17.573252"
       y="70.59404"
       id="text1845"><tspan
         sodipodi:role="line"
         id="tspan1843"
         style="font-size:6.35px;stroke-width:0.264583"
         x="17.573252"
         y="70.59404">k<tspan
   style="font-size:65%;baseline-shift:sub"
   id="tspan1841">1</tspan></tspan></text>
    <text
       xml:space="preserve"
       style="font-style:normal;font-weight:normal;font-size:6.35px;line-height:1.25;font-family:sans-serif;fill:#000000;fill-opacity:1;stroke:none;stroke-width:0.264583"
       x="37.152435"
       y="70.59404"
       id="text1851"><tspan
         sodipodi:role="line"
         id="tspan1849"
         style="font-size:6.35px;stroke-width:0.264583"
         x="37.152435"
         y="70.59404">k<tspan
   style="font-size:65%;baseline-shift:sub"
   id="tspan1847">2</tspan></tspan></text>
    <text
       xml:space="preserve"
       style="font-style:normal;font-weight:normal;font-size:6.35px;line-height:1.25;font-family:sans-serif;fill:#000000;fill-opacity:1;stroke:none;stroke-width:0.264583"
       x="57.789955"
       y="70.59404"
       id="text1857"><tspan
         sodipodi:role="line"
         id="tspan1855"
         style="font-size:6.35px;stroke-width:0.264583"
         x="57.789955"
         y="70.59404">k<tspan
   style="font-size:65%;baseline-shift:sub"
   id="tspan1853">3</tspan></tspan></text>
    <text
       xml:space="preserve"
       style="font-style:normal;font-weight:normal;font-size:6.35px;line-height:1.25;font-family:sans-serif;fill:#000000;fill-opacity:1;stroke:none;stroke-width:0.264583"
       x="78.427475"
       y="70.59404"
       id="text1863"><tspan
         sodipodi:role="line"
         id="tspan1861"
         style="font-size:6.35px;stroke-width:0.264583"
         x="78.427475"
         y="70.59404">k<tspan
   style="font-size:65%;baseline-shift:sub"
   id="tspan1859">4</tspan></tspan></text>
    <text
       xml:space="preserve"
       style="font-style:normal;font-weight:normal;font-size:6.35px;line-height:1.25;font-family:sans-serif;fill:#000000;fill-opacity:1;stroke:none;stroke-width:0.264583"
       x="8.5774231"
       y="54.719025"
       id="text1869"><tspan
         sodipodi:role="line"
         id="tspan1867"
         style="font-size:6.35px;stroke-width:0.264583"
         x="8.5774231"
         y="54.719025">x<tspan
   style="font-size:65%;baseline-shift:sub"
   id="tspan1865">1</tspan></tspan></text>
    <text
       xml:space="preserve"
       style="font-style:normal;font-weight:normal;font-size:6.35px;line-height:1.25;font-family:sans-serif;fill:#000000;fill-opacity:1;stroke:none;stroke-width:0.264583"
       x="28.156593"
       y="54.719025"
       id="text1875"><tspan
         sodipodi:role="line"
         id="tspan1873"
         style="font-size:6.35px;stroke-width:0.264583"
         x="28.156593"
         y="54.719025">x<tspan
   style="font-size:65%;baseline-shift:sub"
   id="tspan1871">2</tspan></tspan></text>
    <text
       xml:space="preserve"
       style="font-style:normal;font-weight:normal;font-size:6.35px;line-height:1.25;font-family:sans-serif;fill:#000000;fill-opacity:1;stroke:none;stroke-width:0.264583"
       x="48.794113"
       y="54.719025"
       id="text1881"><tspan
         sodipodi:role="line"
         id="tspan1879"
         style="font-size:6.35px;stroke-width:0.264583"
         x="48.794113"
         y="54.719025">x<tspan
   style="font-size:65%;baseline-shift:sub"
   id="tspan1877">3</tspan></tspan></text>
    <text
       xml:space="preserve"
       style="font-style:normal;font-weight:normal;font-size:6.35px;line-height:1.25;font-family:sans-serif;fill:#000000;fill-opacity:1;stroke:none;stroke-width:0.264583"
       x="69.431633"
       y="54.719025"
       id="text1887"><tspan
         sodipodi:role="line"
         id="tspan1885"
         style="font-size:6.35px;stroke-width:0.264583"
         x="69.431633"
         y="54.719025">x<tspan
   style="font-size:65%;baseline-shift:sub"
   id="tspan1883">4</tspan></tspan></text>
    <text
       xml:space="preserve"
       style="font-style:normal;font-weight:normal;font-size:6.35px;line-height:1.25;font-family:sans-serif;fill:#000000;fill-opacity:1;stroke:none;stroke-width:0.264583"
       x="0.63992316"
       y="70.064873"
       id="text1897"><tspan
         sodipodi:role="line"
         id="tspan1895"
         style="font-size:6.35px;stroke-width:0.264583"
         x="0.63992316"
         y="70.064873">F</tspan></text>
    <path
       style="fill:none;stroke:#000000;stroke-width:0.264583px;stroke-linecap:butt;stroke-linejoin:miter;stroke-opacity:1"
       d="m 94.801176,56.863725 -4.384702,3.549949"
       id="path2029" />
    <path
       style="fill:none;stroke:#000000;stroke-width:0.264583px;stroke-linecap:butt;stroke-linejoin:miter;stroke-opacity:1"
       d="m 96.917844,56.863725 -4.384702,3.549949"
       id="path2031" />
    <path
       style="fill:none;stroke:#000000;stroke-width:0.264583px;stroke-linecap:butt;stroke-linejoin:miter;stroke-opacity:1"
       d="m 97.976178,57.922059 -4.384702,3.549949"
       id="path2033" />
    <path
       style="fill:none;stroke:#000000;stroke-width:0.264583px;stroke-linecap:butt;stroke-linejoin:miter;stroke-opacity:1"
       d="m 97.976178,59.50956 -4.384702,3.549949"
       id="path2035" />
    <path
       style="fill:none;stroke:#000000;stroke-width:0.264583px;stroke-linecap:butt;stroke-linejoin:miter;stroke-opacity:1"
       d="M 97.976178,61.097061 93.591476,64.64701"
       id="path2037" />
    <path
       style="fill:none;stroke:#000000;stroke-width:0.264583px;stroke-linecap:butt;stroke-linejoin:miter;stroke-opacity:1"
       d="m 97.976178,62.684562 -4.384702,3.549949"
       id="path2039" />
    <path
       style="fill:none;stroke:#000000;stroke-width:0.264583px;stroke-linecap:butt;stroke-linejoin:miter;stroke-opacity:1"
       d="m 92.684508,67.597783 -4.384702,3.549949"
       id="path2043" />
    <path
       style="fill:none;stroke:#000000;stroke-width:0.264583px;stroke-linecap:butt;stroke-linejoin:miter;stroke-opacity:1"
       d="m 91.097007,67.597783 -4.384702,3.549949"
       id="path2045" />
    <path
       style="fill:none;stroke:#000000;stroke-width:0.264583px;stroke-linecap:butt;stroke-linejoin:miter;stroke-opacity:1"
       d="m 89.509506,67.597783 -4.384702,3.549949"
       id="path2047" />
    <path
       style="fill:none;stroke:#000000;stroke-width:0.264583px;stroke-linecap:butt;stroke-linejoin:miter;stroke-opacity:1"
       d="m 89.509506,67.597783 -4.384702,3.549949"
       id="path2049" />
    <text
       xml:space="preserve"
       style="font-style:normal;font-weight:normal;font-size:10.5833px;line-height:1.25;font-family:sans-serif;fill:#000000;fill-opacity:1;stroke:none;stroke-width:0.264583"
       x="34.941811"
       y="9.1070385"
       id="text2057"><tspan
         sodipodi:role="line"
         id="tspan2055"
         style="stroke-width:0.264583"
         x="34.941811"
         y="9.1070385">Case 1</tspan></text>
    <text
       xml:space="preserve"
       style="font-style:normal;font-weight:normal;font-size:10.5833px;line-height:1.25;font-family:sans-serif;fill:#000000;fill-opacity:1;stroke:none;stroke-width:0.264583"
       x="34.941811"
       y="47.207062"
       id="text2061"><tspan
         sodipodi:role="line"
         id="tspan2059"
         style="stroke-width:0.264583"
         x="34.941811"
         y="47.207062">Case 2</tspan></text>
  </g>
</svg>
