<?xml version="1.0" encoding="UTF-8" standalone="no"?>
<!-- Created with Inkscape (http://www.inkscape.org/) -->

<svg
   xmlns:ns0="http://www.iki.fi/pav/software/textext/"
   xmlns:dc="http://purl.org/dc/elements/1.1/"
   xmlns:cc="http://creativecommons.org/ns#"
   xmlns:rdf="http://www.w3.org/1999/02/22-rdf-syntax-ns#"
   xmlns:svg="http://www.w3.org/2000/svg"
   xmlns="http://www.w3.org/2000/svg"
   xmlns:xlink="http://www.w3.org/1999/xlink"
   xmlns:sodipodi="http://sodipodi.sourceforge.net/DTD/sodipodi-0.dtd"
   xmlns:inkscape="http://www.inkscape.org/namespaces/inkscape"
   width="3in"
   height="2in"
   viewBox="0 0 270 180"
   id="svg4226"
   version="1.1"
   inkscape:version="0.92.4 5da689c313, 2019-01-14"
   sodipodi:docname="shooting.svg"
   inkscape:export-filename="/home/ryan/Documents/UConn/ME3255/ME3255-CompMech/CompMech03-IVPs/images/shooting.png"
   inkscape:export-xdpi="120"
   inkscape:export-ydpi="120">
  <defs
     id="defs4228">
    <marker
       inkscape:stockid="Arrow1Mend"
       orient="auto"
       refY="0.0"
       refX="0.0"
       id="marker1560"
       style="overflow:visible;"
       inkscape:isstock="true">
      <path
         id="path1558"
         d="M 0.0,0.0 L 5.0,-5.0 L -12.5,0.0 L 5.0,5.0 L 0.0,0.0 z "
         style="fill-rule:evenodd;stroke:#000000;stroke-width:1pt;stroke-opacity:1;fill:#000000;fill-opacity:1"
         transform="scale(0.4) rotate(180) translate(10,0)" />
    </marker>
    <marker
       inkscape:stockid="Arrow1Mend"
       orient="auto"
       refY="0.0"
       refX="0.0"
       id="Arrow1Mend"
       style="overflow:visible;"
       inkscape:isstock="true">
      <path
         id="path823"
         d="M 0.0,0.0 L 5.0,-5.0 L -12.5,0.0 L 5.0,5.0 L 0.0,0.0 z "
         style="fill-rule:evenodd;stroke:#000000;stroke-width:1pt;stroke-opacity:1;fill:#000000;fill-opacity:1"
         transform="scale(0.4) rotate(180) translate(10,0)" />
    </marker>
    <marker
       inkscape:stockid="Arrow1Mstart"
       orient="auto"
       refY="0.0"
       refX="0.0"
       id="Arrow1Mstart"
       style="overflow:visible"
       inkscape:isstock="true">
      <path
         id="path820"
         d="M 0.0,0.0 L 5.0,-5.0 L -12.5,0.0 L 5.0,5.0 L 0.0,0.0 z "
         style="fill-rule:evenodd;stroke:#000000;stroke-width:1pt;stroke-opacity:1;fill:#000000;fill-opacity:1"
         transform="scale(0.4) translate(10,0)" />
    </marker>
  </defs>
  <sodipodi:namedview
     id="base"
     pagecolor="#ffffff"
     bordercolor="#666666"
     borderopacity="1.0"
     inkscape:pageopacity="0.0"
     inkscape:pageshadow="2"
     inkscape:zoom="3.0989583"
     inkscape:cx="151.40741"
     inkscape:cy="54.385426"
     inkscape:document-units="px"
     inkscape:current-layer="layer1"
     showgrid="false"
     units="in"
     inkscape:window-width="2560"
     inkscape:window-height="1373"
     inkscape:window-x="1920"
     inkscape:window-y="30"
     inkscape:window-maximized="1" />
  <metadata
     id="metadata4231">
    <rdf:RDF>
      <cc:Work
         rdf:about="">
        <dc:format>image/svg+xml</dc:format>
        <dc:type
           rdf:resource="http://purl.org/dc/dcmitype/StillImage" />
        <dc:title></dc:title>
      </cc:Work>
    </rdf:RDF>
  </metadata>
  <g
     inkscape:label="Layer 1"
     inkscape:groupmode="layer"
     id="layer1"
     transform="translate(0,-872.36215)">
    <rect
       style="opacity:1;fill:#ff0600;fill-opacity:1;fill-rule:evenodd;stroke:none;stroke-width:1.875;stroke-linecap:round;stroke-miterlimit:4;stroke-dasharray:none;stroke-dashoffset:0;stroke-opacity:1"
       id="rect1287"
       width="7.1092439"
       height="7.1092439"
       x="34.336136"
       y="897.77393"
       ry="3.5546219"
       rx="0" />
    <path
       style="fill:none;fill-rule:evenodd;stroke:#000000;stroke-width:0.9375px;stroke-linecap:butt;stroke-linejoin:miter;stroke-opacity:1;marker-start:url(#Arrow1Mstart);marker-end:url(#Arrow1Mend)"
       d="M 38.231092,883.25291 V 1033.6059 H 259.97899"
       id="path812"
       inkscape:connector-curvature="0" />
    <path
       style="fill:none;fill-rule:evenodd;stroke:#000000;stroke-width:0.9375px;stroke-linecap:butt;stroke-linejoin:miter;stroke-opacity:1"
       d="M 37.928572,901.40417 C 89.304524,900.12039 146.21166,916.03138 234.2647,1028.7655"
       id="path1128"
       inkscape:connector-curvature="0"
       sodipodi:nodetypes="cc" />
    <rect
       style="opacity:1;fill:#07ff00;fill-opacity:1;fill-rule:evenodd;stroke:none;stroke-width:2.3736701;stroke-linecap:round;stroke-miterlimit:4;stroke-dasharray:none;stroke-dashoffset:0;stroke-opacity:1"
       id="rect1287-3"
       width="9.000001"
       height="9.000001"
       x="227.11765"
       y="1023.4114"
       ry="0"
       rx="0" />
    <path
       style="opacity:0.75;fill:none;fill-rule:evenodd;stroke:#000000;stroke-width:0.9375px;stroke-linecap:butt;stroke-linejoin:miter;stroke-opacity:1"
       d="M 37.928572,901.40414 C 89.304526,896.18759 153.71166,916.03135 241.7647,1028.7655"
       id="path1128-3"
       inkscape:connector-curvature="0"
       sodipodi:nodetypes="cc" />
    <path
       style="opacity:0.75;fill:none;fill-rule:evenodd;stroke:#000000;stroke-width:0.9375px;stroke-linecap:butt;stroke-linejoin:miter;stroke-opacity:1"
       d="m 37.928572,901.40417 c 50.468391,4.1616 98.908088,14.62721 186.961128,127.36133"
       id="path1128-6"
       inkscape:connector-curvature="0"
       sodipodi:nodetypes="cc" />
    <path
       style="opacity:0.5;fill:none;fill-rule:evenodd;stroke:#000000;stroke-width:0.9375px;stroke-linecap:butt;stroke-linejoin:miter;stroke-opacity:1"
       d="M 37.928558,901.4041 C 90.817118,886.96066 159.33665,916.03131 247.3897,1028.7655"
       id="path1128-3-7"
       inkscape:connector-curvature="0"
       sodipodi:nodetypes="cc" />
    <path
       style="opacity:0.5;fill:none;fill-rule:evenodd;stroke:#000000;stroke-width:0.9375px;stroke-linecap:butt;stroke-linejoin:miter;stroke-opacity:1"
       d="M 37.928558,901.40413 C 87.035606,913.43128 131.21165,916.03134 219.2647,1028.7655"
       id="path1128-6-5"
       inkscape:connector-curvature="0"
       sodipodi:nodetypes="cc" />
    <text
       id="text1171"
       y="973.6496"
       x="8.2555609"
       style="font-style:normal;font-weight:normal;line-height:0%;font-family:sans-serif;letter-spacing:0px;word-spacing:0px;fill:#000000;fill-opacity:1;stroke:none;stroke-width:0.9375px;stroke-linecap:butt;stroke-linejoin:miter;stroke-opacity:1"
       xml:space="preserve"><tspan
         style="font-size:16.40625px;line-height:1.25;stroke-width:0.9375px"
         y="973.6496"
         x="8.2555609"
         id="tspan1169"
         sodipodi:role="line">y(t)</tspan></text>
    <text
       id="text1283"
       y="1049.7908"
       x="148.38657"
       style="font-style:normal;font-weight:normal;line-height:0%;font-family:sans-serif;letter-spacing:0px;word-spacing:0px;fill:#000000;fill-opacity:1;stroke:none;stroke-width:0.9375px;stroke-linecap:butt;stroke-linejoin:miter;stroke-opacity:1"
       xml:space="preserve"><tspan
         style="font-size:16.40625px;line-height:1.25;stroke-width:0.9375px"
         y="1049.7908"
         x="148.38657"
         id="tspan1281"
         sodipodi:role="line">t</tspan></text>
    <text
       id="text1306"
       y="926.05957"
       x="39.932774"
       style="font-style:normal;font-weight:normal;line-height:0%;font-family:sans-serif;letter-spacing:0px;word-spacing:0px;fill:#000000;fill-opacity:1;stroke:none;stroke-width:0.9375px;stroke-linecap:butt;stroke-linejoin:miter;stroke-opacity:1"
       xml:space="preserve"><tspan
         style="font-size:16.40625px;line-height:1.25;stroke-width:0.9375px"
         y="926.05957"
         x="39.932774"
         id="tspan1304"
         sodipodi:role="line">y(0)</tspan></text>
    <text
       id="text1310"
       y="1005.4951"
       x="58.31266"
       style="font-style:normal;font-weight:normal;line-height:0%;font-family:sans-serif;letter-spacing:0px;word-spacing:0px;fill:#000000;fill-opacity:1;stroke:none;stroke-width:0.9375px;stroke-linecap:butt;stroke-linejoin:miter;stroke-opacity:1"
       xml:space="preserve"><tspan
         style="font-size:16.40625px;line-height:1.25;stroke-width:0.9375px"
         y="1005.4951"
         x="58.31266"
         id="tspan1308"
         sodipodi:role="line">desired y(T)</tspan></text>
    <path
       style="fill:none;fill-rule:evenodd;stroke:#000000;stroke-width:0.9375px;stroke-linecap:butt;stroke-linejoin:miter;stroke-opacity:1"
       d="M 33.226194,902.9477 75.478991,885.82434"
       id="path1312"
       inkscape:connector-curvature="0"
       sodipodi:nodetypes="cc" />
    <g
       id="g1519"
       transform="translate(-141.38037,756.618)"
       ns0:preamble="/home/ryan/Documents/textext_preamble.tex"
       ns0:text="$\\dot{y}(0)=?$">
      <defs
         id="defs1494">
        <g
           id="g1492">
          <symbol
             id="textext-a0d035c9-0"
             overflow="visible">
            <path
               id="path1465"
               d=""
               style="stroke:none;" />
          </symbol>
          <symbol
             id="textext-a0d035c9-1"
             overflow="visible">
            <path
               id="path1468"
               d="M 2.1875 -7.140625 L 1.140625 -7.140625 L 1.140625 -6.09375 L 2.1875 -6.09375 Z M 2.1875 -7.140625 "
               style="stroke:none;" />
          </symbol>
          <symbol
             id="textext-a0d035c9-2"
             overflow="visible">
            <path
               id="path1471"
               d="M 2.359375 -7.265625 C 1.359375 -5.96875 0.734375 -4.140625 0.734375 -2.578125 C 0.734375 -1 1.359375 0.8125 2.359375 2.109375 L 2.90625 2.109375 C 2.03125 0.6875 1.53125 -0.984375 1.53125 -2.578125 C 1.53125 -4.171875 2.03125 -5.859375 2.90625 -7.265625 Z M 2.359375 -7.265625 "
               style="stroke:none;" />
          </symbol>
          <symbol
             id="textext-a0d035c9-3"
             overflow="visible">
            <path
               id="path1474"
               d="M 2.734375 -7.0625 C 2.078125 -7.0625 1.484375 -6.78125 1.109375 -6.296875 C 0.65625 -5.671875 0.421875 -4.71875 0.421875 -3.421875 C 0.421875 -1.03125 1.21875 0.234375 2.734375 0.234375 C 4.234375 0.234375 5.046875 -1.03125 5.046875 -3.359375 C 5.046875 -4.734375 4.828125 -5.65625 4.359375 -6.296875 C 4 -6.78125 3.40625 -7.0625 2.734375 -7.0625 Z M 2.734375 -6.296875 C 3.6875 -6.296875 4.15625 -5.328125 4.15625 -3.4375 C 4.15625 -1.4375 3.703125 -0.5 2.71875 -0.5 C 1.796875 -0.5 1.328125 -1.46875 1.328125 -3.40625 C 1.328125 -5.34375 1.796875 -6.296875 2.734375 -6.296875 Z M 2.734375 -6.296875 "
               style="stroke:none;" />
          </symbol>
          <symbol
             id="textext-a0d035c9-4"
             overflow="visible">
            <path
               id="path1477"
               d="M 0.921875 2.109375 C 1.921875 0.8125 2.546875 -1 2.546875 -2.578125 C 2.546875 -4.140625 1.921875 -5.96875 0.921875 -7.265625 L 0.375 -7.265625 C 1.25 -5.84375 1.75 -4.171875 1.75 -2.578125 C 1.75 -0.984375 1.25 0.703125 0.375 2.109375 Z M 0.921875 2.109375 "
               style="stroke:none;" />
          </symbol>
          <symbol
             id="textext-a0d035c9-5"
             overflow="visible">
            <path
               id="path1480"
               d="M 5.328125 -3.515625 L 0.5 -3.515625 L 0.5 -2.828125 L 5.328125 -2.828125 Z M 5.328125 -1.796875 L 0.5 -1.796875 L 0.5 -1.109375 L 5.328125 -1.109375 Z M 5.328125 -1.796875 "
               style="stroke:none;" />
          </symbol>
          <symbol
             id="textext-a0d035c9-6"
             overflow="visible">
            <path
               id="path1483"
               d="M 3.296875 -1.984375 L 3.296875 -2.453125 C 3.296875 -2.890625 3.40625 -3.0625 4.078125 -3.6875 C 4.828125 -4.359375 5.078125 -4.8125 5.078125 -5.46875 C 5.078125 -6.640625 4.25 -7.390625 2.953125 -7.390625 C 1.515625 -7.390625 0.765625 -6.59375 0.765625 -5.046875 L 1.609375 -5.046875 C 1.609375 -5.515625 1.671875 -5.796875 1.78125 -6.03125 C 1.96875 -6.40625 2.375 -6.609375 2.90625 -6.609375 C 3.671875 -6.609375 4.171875 -6.15625 4.171875 -5.46875 C 4.171875 -5.015625 3.953125 -4.625 3.421875 -4.15625 C 2.84375 -3.625 2.84375 -3.625 2.671875 -3.40625 C 2.46875 -3.125 2.390625 -2.890625 2.390625 -2.53125 L 2.390625 -1.984375 Z M 3.296875 -1.03125 L 2.390625 -1.03125 L 2.390625 0 L 3.296875 0 Z M 3.296875 -1.03125 "
               style="stroke:none;" />
          </symbol>
          <symbol
             id="textext-a0d035c9-7"
             overflow="visible">
            <path
               id="path1486"
               d=""
               style="stroke:none;" />
          </symbol>
          <symbol
             id="textext-a0d035c9-8"
             overflow="visible">
            <path
               id="path1489"
               d="M 5 -5.21875 L 2.671875 -1.171875 L 2.21875 -5.21875 L 1.3125 -5.21875 L 2 0.046875 L 1.46875 0.84375 C 1.203125 1.265625 1.046875 1.359375 0.671875 1.359375 C 0.578125 1.359375 0.515625 1.359375 0.234375 1.328125 L 0.078125 2.078125 C 0.265625 2.15625 0.375 2.171875 0.5625 2.171875 C 1.28125 2.171875 1.78125 1.828125 2.21875 1.09375 L 5.875 -5.21875 Z M 5 -5.21875 "
               style="stroke:none;" />
          </symbol>
        </g>
      </defs>
      <g
         id="textext-a0d035c9-9">
        <g
           id="g1498"
           style="fill:rgb(0%,0%,0%);fill-opacity:1;">
          <use
             id="use1496"
             y="134.765"
             x="224.762"
             xlink:href="#textext-a0d035c9-1" />
        </g>
        <g
           id="g1502"
           style="fill:rgb(0%,0%,0%);fill-opacity:1;">
          <use
             id="use1500"
             y="134.765"
             x="223.432"
             xlink:href="#textext-a0d035c9-8" />
        </g>
        <g
           id="g1510"
           style="fill:rgb(0%,0%,0%);fill-opacity:1;">
          <use
             id="use1504"
             y="134.765"
             x="229.41"
             xlink:href="#textext-a0d035c9-2" />
          <use
             id="use1506"
             y="134.765"
             x="232.727546"
             xlink:href="#textext-a0d035c9-3" />
          <use
             id="use1508"
             y="134.765"
             x="238.266751"
             xlink:href="#textext-a0d035c9-4" />
        </g>
        <g
           id="g1516"
           style="fill:rgb(0%,0%,0%);fill-opacity:1;">
          <use
             id="use1512"
             y="134.765"
             x="244.3539"
             xlink:href="#textext-a0d035c9-5" />
          <use
             id="use1514"
             y="134.765"
             x="250.172058"
             xlink:href="#textext-a0d035c9-6" />
        </g>
      </g>
    </g>
    <path
       style="opacity:1;fill:#ff0000;fill-opacity:1;fill-rule:evenodd;stroke:none;stroke-width:1.875;stroke-linecap:round;stroke-miterlimit:4;stroke-dasharray:none;stroke-dashoffset:0;stroke-opacity:1"
       id="path1820"
       sodipodi:type="arc"
       sodipodi:cx="247.15965"
       sodipodi:cy="1028.9924"
       sodipodi:rx="2.4201682"
       sodipodi:ry="2.4201682"
       sodipodi:start="0"
       sodipodi:end="6.2813004"
       sodipodi:open="true"
       d="m 249.57982,1028.9924 a 2.4201682,2.4201682 0 0 1 -2.41903,2.4202 2.4201682,2.4201682 0 0 1 -2.4213,-2.4179 2.4201682,2.4201682 0 0 1 2.41674,-2.4224 2.4201682,2.4201682 0 0 1 2.42359,2.4156" />
    <path
       style="opacity:1;fill:#ff0000;fill-opacity:1;fill-rule:evenodd;stroke:none;stroke-width:1.875;stroke-linecap:round;stroke-miterlimit:4;stroke-dasharray:none;stroke-dashoffset:0;stroke-opacity:1"
       id="path1820-5"
       sodipodi:type="arc"
       sodipodi:cx="241.71428"
       sodipodi:cy="1028.7655"
       sodipodi:rx="2.4201682"
       sodipodi:ry="2.4201682"
       sodipodi:start="0"
       sodipodi:end="6.2813004"
       sodipodi:open="true"
       d="m 244.13445,1028.7655 a 2.4201682,2.4201682 0 0 1 -2.41903,2.4202 2.4201682,2.4201682 0 0 1 -2.42131,-2.4179 2.4201682,2.4201682 0 0 1 2.41675,-2.4225 2.4201682,2.4201682 0 0 1 2.42358,2.4156" />
    <path
       style="opacity:1;fill:#ff0000;fill-opacity:1;fill-rule:evenodd;stroke:none;stroke-width:1.875;stroke-linecap:round;stroke-miterlimit:4;stroke-dasharray:none;stroke-dashoffset:0;stroke-opacity:1"
       id="path1820-6"
       sodipodi:type="arc"
       sodipodi:cx="234.07564"
       sodipodi:cy="1028.6143"
       sodipodi:rx="2.4201682"
       sodipodi:ry="2.4201682"
       sodipodi:start="0"
       sodipodi:end="6.2813004"
       sodipodi:open="true"
       d="m 236.49581,1028.6143 a 2.4201682,2.4201682 0 0 1 -2.41903,2.4201 2.4201682,2.4201682 0 0 1 -2.42131,-2.4179 2.4201682,2.4201682 0 0 1 2.41675,-2.4224 2.4201682,2.4201682 0 0 1 2.42358,2.4156" />
    <path
       style="opacity:1;fill:#ff0000;fill-opacity:1;fill-rule:evenodd;stroke:none;stroke-width:1.875;stroke-linecap:round;stroke-miterlimit:4;stroke-dasharray:none;stroke-dashoffset:0;stroke-opacity:1"
       id="path1820-2"
       sodipodi:type="arc"
       sodipodi:cx="224.54622"
       sodipodi:cy="1028.1605"
       sodipodi:rx="2.4201682"
       sodipodi:ry="2.4201682"
       sodipodi:start="0"
       sodipodi:end="6.2813004"
       sodipodi:open="true"
       d="m 226.96639,1028.1605 a 2.4201682,2.4201682 0 0 1 -2.41903,2.4202 2.4201682,2.4201682 0 0 1 -2.42131,-2.4179 2.4201682,2.4201682 0 0 1 2.41675,-2.4224 2.4201682,2.4201682 0 0 1 2.42358,2.4156" />
    <path
       style="opacity:1;fill:#ff0000;fill-opacity:1;fill-rule:evenodd;stroke:none;stroke-width:1.875;stroke-linecap:round;stroke-miterlimit:4;stroke-dasharray:none;stroke-dashoffset:0;stroke-opacity:1"
       id="path1820-9"
       sodipodi:type="arc"
       sodipodi:cx="218.64706"
       sodipodi:cy="1028.3873"
       sodipodi:rx="2.4201682"
       sodipodi:ry="2.4201682"
       sodipodi:start="0"
       sodipodi:end="6.2813004"
       sodipodi:open="true"
       d="m 221.06723,1028.3873 a 2.4201682,2.4201682 0 0 1 -2.41903,2.4202 2.4201682,2.4201682 0 0 1 -2.4213,-2.4179 2.4201682,2.4201682 0 0 1 2.41674,-2.4224 2.4201682,2.4201682 0 0 1 2.42359,2.4156" />
    <path
       style="fill:none;fill-rule:evenodd;stroke:#000000;stroke-width:0.9375px;stroke-linecap:butt;stroke-linejoin:miter;stroke-opacity:1;marker-end:url(#marker1560)"
       d="m 102.47467,1011.2905 v 17.0351 l 122.40529,1.0014"
       id="path1556"
       inkscape:connector-curvature="0"
       sodipodi:nodetypes="ccc" />
    <path
       style="opacity:1;fill:#ff0000;fill-opacity:1;fill-rule:evenodd;stroke:none;stroke-width:1.875;stroke-linecap:round;stroke-miterlimit:4;stroke-dasharray:none;stroke-dashoffset:0;stroke-opacity:1"
       id="path1820-5-1"
       sodipodi:type="arc"
       sodipodi:cx="173.27087"
       sodipodi:cy="920.5907"
       sodipodi:rx="2.4201682"
       sodipodi:ry="2.4201682"
       sodipodi:start="0"
       sodipodi:end="6.2813004"
       sodipodi:open="true"
       d="m 175.69104,920.5907 a 2.4201682,2.4201682 0 0 1 -2.41903,2.42017 2.4201682,2.4201682 0 0 1 -2.4213,-2.41789 2.4201682,2.4201682 0 0 1 2.41674,-2.42245 2.4201682,2.4201682 0 0 1 2.42359,2.41561" />
    <g
       id="g2567"
       transform="translate(-43.958046,782.55007)"
       ns0:preamble="/home/ryan/Documents/textext_preamble.tex"
       ns0:text="resulting $y(T)$,\\newline given $\\dot{y}(0)$">
      <defs
         id="defs2494">
        <g
           id="g2492">
          <symbol
             id="textext-46cd1f74-0"
             overflow="visible"
             style="overflow:visible">
            <path
               id="path2432"
               d=""
               style="stroke:none"
               inkscape:connector-curvature="0" />
          </symbol>
          <symbol
             id="textext-46cd1f74-1"
             overflow="visible"
             style="overflow:visible">
            <path
               id="path2435"
               d="M 1.671875,-3.3125 V -4.40625 L 0.28125,-4.296875 v 0.3125 c 0.703125,0 0.78125,0.0625 0.78125,0.5625 V -0.75 c 0,0.4375 -0.109375,0.4375 -0.78125,0.4375 V 0 c 0.390625,-0.015625 0.859375,-0.03125 1.140625,-0.03125 0.390625,0 0.859375,0 1.265625,0.03125 V -0.3125 H 2.46875 c -0.734375,0 -0.75,-0.109375 -0.75,-0.46875 V -2.3125 c 0,-0.984375 0.421875,-1.875 1.171875,-1.875 0.0625,0 0.09375,0 0.109375,0.015625 -0.03125,0 -0.234375,0.125 -0.234375,0.390625 0,0.265625 0.21875,0.421875 0.4375,0.421875 0.171875,0 0.421875,-0.125 0.421875,-0.4375 0,-0.3125 -0.3125,-0.609375 -0.734375,-0.609375 -0.734375,0 -1.09375,0.671875 -1.21875,1.09375 z m 0,0"
               style="stroke:none"
               inkscape:connector-curvature="0" />
          </symbol>
          <symbol
             id="textext-46cd1f74-2"
             overflow="visible"
             style="overflow:visible">
            <path
               id="path2438"
               d="M 1.109375,-2.515625 C 1.171875,-4 2.015625,-4.25 2.359375,-4.25 c 1.015625,0 1.125,1.34375 1.125,1.734375 z m 0,0.21875 h 2.78125 c 0.21875,0 0.25,0 0.25,-0.21875 0,-0.984375 -0.546875,-1.953125 -1.78125,-1.953125 -1.15625,0 -2.078125,1.03125 -2.078125,2.28125 0,1.328125 1.046875,2.296875 2.1875,2.296875 C 3.6875,0.109375 4.140625,-1 4.140625,-1.1875 4.140625,-1.28125 4.0625,-1.3125 4,-1.3125 c -0.078125,0 -0.109375,0.0625 -0.125,0.140625 -0.34375,1.03125 -1.25,1.03125 -1.34375,1.03125 -0.5,0 -0.890625,-0.296875 -1.125,-0.671875 -0.296875,-0.46875 -0.296875,-1.125 -0.296875,-1.484375 z m 0,0"
               style="stroke:none"
               inkscape:connector-curvature="0" />
          </symbol>
          <symbol
             id="textext-46cd1f74-3"
             overflow="visible"
             style="overflow:visible">
            <path
               id="path2441"
               d="m 2.078125,-1.9375 c 0.21875,0.046875 1.03125,0.203125 1.03125,0.921875 0,0.5 -0.34375,0.90625 -1.125,0.90625 -0.84375,0 -1.203125,-0.5625 -1.390625,-1.421875 C 0.5625,-1.65625 0.5625,-1.6875 0.453125,-1.6875 c -0.125,0 -0.125,0.0625 -0.125,0.234375 V -0.125 c 0,0.171875 0,0.234375 0.109375,0.234375 0.046875,0 0.0625,-0.015625 0.25,-0.203125 0.015625,-0.015625 0.015625,-0.03125 0.203125,-0.21875 0.4375,0.40625 0.890625,0.421875 1.09375,0.421875 1.140625,0 1.609375,-0.671875 1.609375,-1.390625 0,-0.515625 -0.296875,-0.828125 -0.421875,-0.9375 C 2.84375,-2.546875 2.453125,-2.625 2.03125,-2.703125 1.46875,-2.8125 0.8125,-2.9375 0.8125,-3.515625 c 0,-0.359375 0.25,-0.765625 1.109375,-0.765625 1.09375,0 1.15625,0.90625 1.171875,1.203125 0,0.09375 0.09375,0.09375 0.109375,0.09375 0.140625,0 0.140625,-0.046875 0.140625,-0.234375 v -1.015625 c 0,-0.15625 0,-0.234375 -0.109375,-0.234375 -0.046875,0 -0.078125,0 -0.203125,0.125 -0.03125,0.03125 -0.125,0.125 -0.171875,0.15625 -0.375,-0.28125 -0.78125,-0.28125 -0.9375,-0.28125 -1.21875,0 -1.59375,0.671875 -1.59375,1.234375 0,0.34375 0.15625,0.625 0.421875,0.84375 0.328125,0.25 0.609375,0.3125 1.328125,0.453125 z m 0,0"
               style="stroke:none"
               inkscape:connector-curvature="0" />
          </symbol>
          <symbol
             id="textext-46cd1f74-4"
             overflow="visible"
             style="overflow:visible">
            <path
               id="path2444"
               d="M 3.890625,-0.78125 V 0.109375 L 5.328125,0 V -0.3125 C 4.640625,-0.3125 4.5625,-0.375 4.5625,-0.875 v -3.53125 l -1.46875,0.109375 v 0.3125 c 0.6875,0 0.78125,0.0625 0.78125,0.5625 v 1.765625 c 0,0.875 -0.484375,1.546875 -1.21875,1.546875 -0.828125,0 -0.875,-0.46875 -0.875,-0.984375 v -3.3125 L 0.3125,-4.296875 v 0.3125 c 0.78125,0 0.78125,0.03125 0.78125,0.90625 v 1.5 c 0,0.78125 0,1.6875 1.515625,1.6875 0.5625,0 1,-0.28125 1.28125,-0.890625 z m 0,0"
               style="stroke:none"
               inkscape:connector-curvature="0" />
          </symbol>
          <symbol
             id="textext-46cd1f74-5"
             overflow="visible"
             style="overflow:visible">
            <path
               id="path2447"
               d="M 1.765625,-6.921875 0.328125,-6.8125 V -6.5 c 0.703125,0 0.78125,0.0625 0.78125,0.5625 V -0.75 c 0,0.4375 -0.109375,0.4375 -0.78125,0.4375 V 0 C 0.65625,-0.015625 1.1875,-0.03125 1.4375,-0.03125 c 0.25,0 0.734375,0.015625 1.109375,0.03125 v -0.3125 c -0.671875,0 -0.78125,0 -0.78125,-0.4375 z m 0,0"
               style="stroke:none"
               inkscape:connector-curvature="0" />
          </symbol>
          <symbol
             id="textext-46cd1f74-6"
             overflow="visible"
             style="overflow:visible">
            <path
               id="path2450"
               d="m 1.71875,-3.984375 h 1.4375 v -0.3125 H 1.71875 V -6.125 h -0.25 c 0,0.8125 -0.296875,1.875 -1.28125,1.921875 v 0.21875 h 0.84375 v 2.75 c 0,1.21875 0.9375,1.34375 1.296875,1.34375 0.703125,0 0.984375,-0.703125 0.984375,-1.34375 v -0.5625 h -0.25 V -1.25 c 0,0.734375 -0.296875,1.109375 -0.671875,1.109375 -0.671875,0 -0.671875,-0.90625 -0.671875,-1.078125 z m 0,0"
               style="stroke:none"
               inkscape:connector-curvature="0" />
          </symbol>
          <symbol
             id="textext-46cd1f74-7"
             overflow="visible"
             style="overflow:visible">
            <path
               id="path2453"
               d="M 1.765625,-4.40625 0.375,-4.296875 v 0.3125 c 0.640625,0 0.734375,0.0625 0.734375,0.546875 V -0.75 c 0,0.4375 -0.109375,0.4375 -0.78125,0.4375 V 0 C 0.640625,-0.015625 1.1875,-0.03125 1.421875,-0.03125 1.78125,-0.03125 2.125,-0.015625 2.46875,0 v -0.3125 c -0.671875,0 -0.703125,-0.046875 -0.703125,-0.4375 z m 0.03125,-1.734375 c 0,-0.3125 -0.234375,-0.53125 -0.515625,-0.53125 -0.3125,0 -0.53125,0.265625 -0.53125,0.53125 0,0.265625 0.21875,0.53125 0.53125,0.53125 0.28125,0 0.515625,-0.21875 0.515625,-0.53125 z m 0,0"
               style="stroke:none"
               inkscape:connector-curvature="0" />
          </symbol>
          <symbol
             id="textext-46cd1f74-8"
             overflow="visible"
             style="overflow:visible">
            <path
               id="path2456"
               d="M 1.09375,-3.421875 V -0.75 c 0,0.4375 -0.109375,0.4375 -0.78125,0.4375 V 0 c 0.359375,-0.015625 0.859375,-0.03125 1.140625,-0.03125 0.25,0 0.765625,0.015625 1.109375,0.03125 v -0.3125 c -0.671875,0 -0.78125,0 -0.78125,-0.4375 V -2.59375 C 1.78125,-3.625 2.5,-4.1875 3.125,-4.1875 c 0.640625,0 0.75,0.53125 0.75,1.109375 V -0.75 c 0,0.4375 -0.109375,0.4375 -0.78125,0.4375 V 0 c 0.34375,-0.015625 0.859375,-0.03125 1.125,-0.03125 0.25,0 0.78125,0.015625 1.109375,0.03125 v -0.3125 c -0.515625,0 -0.765625,0 -0.765625,-0.296875 v -1.90625 c 0,-0.859375 0,-1.15625 -0.3125,-1.515625 -0.140625,-0.171875 -0.46875,-0.375 -1.046875,-0.375 C 2.46875,-4.40625 2,-3.984375 1.71875,-3.359375 V -4.40625 L 0.3125,-4.296875 v 0.3125 c 0.703125,0 0.78125,0.0625 0.78125,0.5625 z m 0,0"
               style="stroke:none"
               inkscape:connector-curvature="0" />
          </symbol>
          <symbol
             id="textext-46cd1f74-9"
             overflow="visible"
             style="overflow:visible">
            <path
               id="path2459"
               d="m 2.21875,-1.71875 c -0.875,0 -0.875,-1 -0.875,-1.21875 0,-0.265625 0.015625,-0.59375 0.15625,-0.84375 0.078125,-0.109375 0.3125,-0.390625 0.71875,-0.390625 0.859375,0 0.859375,0.984375 0.859375,1.21875 0,0.265625 0,0.59375 -0.15625,0.84375 C 2.84375,-2 2.609375,-1.71875 2.21875,-1.71875 Z M 1.0625,-1.328125 c 0,-0.03125 0,-0.265625 0.15625,-0.46875 0.390625,0.28125 0.8125,0.3125 1,0.3125 0.921875,0 1.609375,-0.6875 1.609375,-1.453125 0,-0.375 -0.15625,-0.734375 -0.40625,-0.96875 C 3.78125,-4.25 4.140625,-4.296875 4.3125,-4.296875 c 0.03125,0 0.078125,0 0.109375,0.015625 C 4.3125,-4.25 4.25,-4.140625 4.25,-4.015625 c 0,0.171875 0.140625,0.28125 0.296875,0.28125 0.09375,0 0.28125,-0.0625 0.28125,-0.296875 0,-0.171875 -0.109375,-0.484375 -0.5,-0.484375 -0.203125,0 -0.640625,0.0625 -1.0625,0.46875 C 2.84375,-4.375 2.4375,-4.40625 2.21875,-4.40625 c -0.9375,0 -1.625,0.6875 -1.625,1.453125 0,0.4375 0.21875,0.8125 0.46875,1.03125 -0.125,0.140625 -0.3125,0.46875 -0.3125,0.828125 0,0.3125 0.140625,0.6875 0.453125,0.890625 -0.609375,0.15625 -0.921875,0.59375 -0.921875,0.984375 0,0.71875 0.984375,1.265625 2.203125,1.265625 1.171875,0 2.203125,-0.5 2.203125,-1.28125 0,-0.34375 -0.125,-0.859375 -0.640625,-1.140625 -0.53125,-0.265625 -1.109375,-0.265625 -1.71875,-0.265625 -0.25,0 -0.671875,0 -0.75,-0.015625 C 1.265625,-0.703125 1.0625,-1 1.0625,-1.328125 Z M 2.5,1.828125 c -1.015625,0 -1.703125,-0.515625 -1.703125,-1.046875 0,-0.453125 0.375,-0.828125 0.8125,-0.84375 h 0.59375 c 0.859375,0 1.96875,0 1.96875,0.84375 0,0.546875 -0.703125,1.046875 -1.671875,1.046875 z m 0,0"
               style="stroke:none"
               inkscape:connector-curvature="0" />
          </symbol>
          <symbol
             id="textext-46cd1f74-10"
             overflow="visible"
             style="overflow:visible">
            <path
               id="path2462"
               d="m 2.03125,-0.015625 c 0,-0.625 -0.25,-1.046875 -0.640625,-1.046875 -0.359375,0 -0.53125,0.28125 -0.53125,0.53125 0,0.265625 0.171875,0.53125 0.53125,0.53125 0.15625,0 0.28125,-0.0625 0.375,-0.140625 L 1.78125,-0.15625 c 0.015625,0 0.015625,0 0.015625,0.140625 0,0.640625 -0.265625,1.25 -0.703125,1.71875 -0.0625,0.0625 -0.078125,0.078125 -0.078125,0.109375 0,0.078125 0.046875,0.109375 0.09375,0.109375 0.125,0 0.921875,-0.78125 0.921875,-1.9375 z m 0,0"
               style="stroke:none"
               inkscape:connector-curvature="0" />
          </symbol>
          <symbol
             id="textext-46cd1f74-11"
             overflow="visible"
             style="overflow:visible">
            <path
               id="path2465"
               d="M 4.140625,-3.3125 C 4.234375,-3.546875 4.40625,-3.984375 5.0625,-3.984375 v -0.3125 c -0.234375,0.015625 -0.515625,0.03125 -0.75,0.03125 -0.234375,0 -0.6875,-0.015625 -0.859375,-0.03125 v 0.3125 c 0.359375,0 0.46875,0.234375 0.46875,0.421875 0,0.09375 -0.015625,0.140625 -0.046875,0.25 L 2.84375,-0.78125 1.734375,-3.5625 c -0.0625,-0.125 -0.0625,-0.140625 -0.0625,-0.171875 0,-0.25 0.390625,-0.25 0.578125,-0.25 v -0.3125 c -0.3125,0.015625 -0.859375,0.03125 -1.09375,0.03125 -0.265625,0 -0.671875,-0.015625 -0.96875,-0.03125 v 0.3125 c 0.625,0 0.671875,0.0625 0.796875,0.359375 l 1.4375,3.546875 C 2.484375,0.0625 2.5,0.109375 2.625,0.109375 c 0.140625,0 0.171875,-0.09375 0.21875,-0.1875 z m 0,0"
               style="stroke:none"
               inkscape:connector-curvature="0" />
          </symbol>
          <symbol
             id="textext-46cd1f74-12"
             overflow="visible"
             style="overflow:visible">
            <path
               id="path2468"
               d=""
               style="stroke:none"
               inkscape:connector-curvature="0" />
          </symbol>
          <symbol
             id="textext-46cd1f74-13"
             overflow="visible"
             style="overflow:visible">
            <path
               id="path2471"
               d="M 5,-5.21875 2.671875,-1.171875 2.21875,-5.21875 H 1.3125 L 2,0.046875 1.46875,0.84375 C 1.203125,1.265625 1.046875,1.359375 0.671875,1.359375 c -0.09375,0 -0.15625,0 -0.4375,-0.03125 l -0.15625,0.75 c 0.1875,0.078125 0.296875,0.09375 0.484375,0.09375 0.71875,0 1.21875,-0.34375 1.65625,-1.078125 L 5.875,-5.21875 Z m 0,0"
               style="stroke:none"
               inkscape:connector-curvature="0" />
          </symbol>
          <symbol
             id="textext-46cd1f74-14"
             overflow="visible"
             style="overflow:visible">
            <path
               id="path2474"
               d="M 4.921875,-6.453125 H 7.28125 l 0.171875,-0.8125 H 1.75 l -0.171875,0.8125 h 2.40625 L 2.609375,0 H 3.53125 Z m 0,0"
               style="stroke:none"
               inkscape:connector-curvature="0" />
          </symbol>
          <symbol
             id="textext-46cd1f74-15"
             overflow="visible"
             style="overflow:visible">
            <path
               id="path2477"
               d=""
               style="stroke:none"
               inkscape:connector-curvature="0" />
          </symbol>
          <symbol
             id="textext-46cd1f74-16"
             overflow="visible"
             style="overflow:visible">
            <path
               id="path2480"
               d="m 2.359375,-7.265625 c -1,1.296875 -1.625,3.125 -1.625,4.6875 0,1.578125 0.625,3.390625 1.625,4.6875 H 2.90625 c -0.875,-1.421875 -1.375,-3.09375 -1.375,-4.6875 0,-1.59375 0.5,-3.28125 1.375,-4.6875 z m 0,0"
               style="stroke:none"
               inkscape:connector-curvature="0" />
          </symbol>
          <symbol
             id="textext-46cd1f74-17"
             overflow="visible"
             style="overflow:visible">
            <path
               id="path2483"
               d="m 0.921875,2.109375 c 1,-1.296875 1.625,-3.109375 1.625,-4.6875 0,-1.5625 -0.625,-3.390625 -1.625,-4.6875 H 0.375 c 0.875,1.421875 1.375,3.09375 1.375,4.6875 0,1.59375 -0.5,3.28125 -1.375,4.6875 z m 0,0"
               style="stroke:none"
               inkscape:connector-curvature="0" />
          </symbol>
          <symbol
             id="textext-46cd1f74-18"
             overflow="visible"
             style="overflow:visible">
            <path
               id="path2486"
               d="M 2.1875,-7.140625 H 1.140625 V -6.09375 H 2.1875 Z m 0,0"
               style="stroke:none"
               inkscape:connector-curvature="0" />
          </symbol>
          <symbol
             id="textext-46cd1f74-19"
             overflow="visible"
             style="overflow:visible">
            <path
               id="path2489"
               d="m 2.734375,-7.0625 c -0.65625,0 -1.25,0.28125 -1.625,0.765625 -0.453125,0.625 -0.6875,1.578125 -0.6875,2.875 0,2.390625 0.796875,3.65625 2.3125,3.65625 1.5,0 2.3125,-1.265625 2.3125,-3.59375 0,-1.375 -0.21875,-2.296875 -0.6875,-2.9375 C 4,-6.78125 3.40625,-7.0625 2.734375,-7.0625 Z m 0,0.765625 c 0.953125,0 1.421875,0.96875 1.421875,2.859375 0,2 -0.453125,2.9375 -1.4375,2.9375 -0.921875,0 -1.390625,-0.96875 -1.390625,-2.90625 0,-1.9375 0.46875,-2.890625 1.40625,-2.890625 z m 0,0"
               style="stroke:none"
               inkscape:connector-curvature="0" />
          </symbol>
        </g>
      </defs>
      <g
         id="textext-46cd1f74-20">
        <g
           id="g2514"
           style="fill:#000000;fill-opacity:1">
          <use
             id="use2496"
             y="134.765"
             x="223.43201"
             xlink:href="#textext-46cd1f74-1"
             width="100%"
             height="100%" />
          <use
             id="use2498"
             y="134.765"
             x="227.33435"
             xlink:href="#textext-46cd1f74-2"
             width="100%"
             height="100%" />
          <use
             id="use2500"
             y="134.765"
             x="231.76173"
             xlink:href="#textext-46cd1f74-3"
             width="100%"
             height="100%" />
          <use
             id="use2502"
             y="134.765"
             x="235.69098"
             xlink:href="#textext-46cd1f74-4"
             width="100%"
             height="100%" />
          <use
             id="use2504"
             y="134.765"
             x="241.2262"
             xlink:href="#textext-46cd1f74-5"
             width="100%"
             height="100%" />
          <use
             id="use2506"
             y="134.765"
             x="243.9938"
             xlink:href="#textext-46cd1f74-6"
             width="100%"
             height="100%" />
          <use
             id="use2508"
             y="134.765"
             x="247.86827"
             xlink:href="#textext-46cd1f74-7"
             width="100%"
             height="100%" />
          <use
             id="use2510"
             y="134.765"
             x="250.63588"
             xlink:href="#textext-46cd1f74-8"
             width="100%"
             height="100%" />
          <use
             id="use2512"
             y="134.765"
             x="256.17108"
             xlink:href="#textext-46cd1f74-9"
             width="100%"
             height="100%" />
        </g>
        <g
           id="g2518"
           style="fill:#000000;fill-opacity:1">
          <use
             id="use2516"
             y="134.765"
             x="264.47299"
             xlink:href="#textext-46cd1f74-13"
             width="100%"
             height="100%" />
        </g>
        <g
           id="g2522"
           style="fill:#000000;fill-opacity:1">
          <use
             id="use2520"
             y="134.765"
             x="270.45001"
             xlink:href="#textext-46cd1f74-16"
             width="100%"
             height="100%" />
        </g>
        <g
           id="g2526"
           style="fill:#000000;fill-opacity:1">
          <use
             id="use2524"
             y="134.765"
             x="273.76801"
             xlink:href="#textext-46cd1f74-14"
             width="100%"
             height="100%" />
        </g>
        <g
           id="g2530"
           style="fill:#000000;fill-opacity:1">
          <use
             id="use2528"
             y="134.765"
             x="281.23999"
             xlink:href="#textext-46cd1f74-17"
             width="100%"
             height="100%" />
        </g>
        <g
           id="g2534"
           style="fill:#000000;fill-opacity:1">
          <use
             id="use2532"
             y="134.765"
             x="284.55701"
             xlink:href="#textext-46cd1f74-10"
             width="100%"
             height="100%" />
        </g>
        <g
           id="g2542"
           style="fill:#000000;fill-opacity:1">
          <use
             id="use2536"
             y="146.72"
             x="223.43201"
             xlink:href="#textext-46cd1f74-9"
             width="100%"
             height="100%" />
          <use
             id="use2538"
             y="146.72"
             x="228.4133"
             xlink:href="#textext-46cd1f74-7"
             width="100%"
             height="100%" />
          <use
             id="use2540"
             y="146.72"
             x="231.18091"
             xlink:href="#textext-46cd1f74-11"
             width="100%"
             height="100%" />
        </g>
        <g
           id="g2548"
           style="fill:#000000;fill-opacity:1">
          <use
             id="use2544"
             y="146.72"
             x="236.16022"
             xlink:href="#textext-46cd1f74-2"
             width="100%"
             height="100%" />
          <use
             id="use2546"
             y="146.72"
             x="240.5876"
             xlink:href="#textext-46cd1f74-8"
             width="100%"
             height="100%" />
        </g>
        <g
           id="g2552"
           style="fill:#000000;fill-opacity:1">
          <use
             id="use2550"
             y="146.72"
             x="250.776"
             xlink:href="#textext-46cd1f74-18"
             width="100%"
             height="100%" />
        </g>
        <g
           id="g2556"
           style="fill:#000000;fill-opacity:1">
          <use
             id="use2554"
             y="146.72"
             x="249.446"
             xlink:href="#textext-46cd1f74-13"
             width="100%"
             height="100%" />
        </g>
        <g
           id="g2564"
           style="fill:#000000;fill-opacity:1">
          <use
             id="use2558"
             y="146.72"
             x="255.423"
             xlink:href="#textext-46cd1f74-16"
             width="100%"
             height="100%" />
          <use
             id="use2560"
             y="146.72"
             x="258.74054"
             xlink:href="#textext-46cd1f74-19"
             width="100%"
             height="100%" />
          <use
             id="use2562"
             y="146.72"
             x="264.27975"
             xlink:href="#textext-46cd1f74-17"
             width="100%"
             height="100%" />
        </g>
      </g>
    </g>
    <path
       style="fill:none;fill-rule:evenodd;stroke:#000000;stroke-width:0.9375px;stroke-linecap:butt;stroke-linejoin:miter;stroke-opacity:1"
       d="m 15.61577,928.39861 15.669247,-9.67964 3.850465,9.84007 z"
       id="path2669"
       inkscape:connector-curvature="0"
       sodipodi:nodetypes="cccc" />
    <path
       style="fill:none;fill-rule:evenodd;stroke:#000000;stroke-width:0.9375px;stroke-linecap:butt;stroke-linejoin:miter;stroke-opacity:1"
       d="M 30.696753,926.68728 18.909815,907.08355"
       id="path2671"
       inkscape:connector-curvature="0"
       sodipodi:nodetypes="cc" />
    <path
       style="opacity:1;fill:#000000;fill-opacity:1;fill-rule:evenodd;stroke:none;stroke-width:1.875;stroke-linecap:round;stroke-miterlimit:4;stroke-dasharray:none;stroke-dashoffset:0;stroke-opacity:1"
       id="path2673"
       sodipodi:type="arc"
       sodipodi:cx="29.092396"
       sodipodi:cy="918.72308"
       sodipodi:rx="2.1926253"
       sodipodi:ry="2.1926253"
       sodipodi:start="0"
       sodipodi:end="6.2813004"
       sodipodi:open="true"
       d="m 31.285021,918.72308 a 2.1926253,2.1926253 0 0 1 -2.191592,2.19263 2.1926253,2.1926253 0 0 1 -2.193658,-2.19056 2.1926253,2.1926253 0 0 1 2.189525,-2.19469 2.1926253,2.1926253 0 0 1 2.195721,2.18849" />
    <path
       style="opacity:1;fill:#000000;fill-opacity:1;fill-rule:evenodd;stroke:none;stroke-width:1.875;stroke-linecap:round;stroke-miterlimit:4;stroke-dasharray:none;stroke-dashoffset:0;stroke-opacity:1"
       id="path2673-2"
       sodipodi:type="arc"
       sodipodi:cx="777.23285"
       sodipodi:cy="472.09335"
       sodipodi:rx="2.1926255"
       sodipodi:ry="2.1926255"
       sodipodi:start="0"
       sodipodi:end="3.1548324"
       sodipodi:open="true"
       d="m 779.42547,472.09335 a 2.1926255,2.1926255 0 0 1 -1.1047,1.90369 2.1926255,2.1926255 0 0 1 -2.20095,-0.0146 2.1926255,2.1926255 0 0 1 -1.0794,-1.91815"
       transform="rotate(57.483406)" />
    <path
       style="fill:none;fill-rule:evenodd;stroke:#000000;stroke-width:0.46875;stroke-linecap:butt;stroke-linejoin:miter;stroke-opacity:1;stroke-miterlimit:4;stroke-dasharray:none"
       d="m 13.840336,911.38736 c -2.331675,1.46053 -4.2273845,3.27629 -5.5966385,5.52101"
       id="path2696"
       inkscape:connector-curvature="0"
       sodipodi:nodetypes="cc" />
    <path
       style="fill:none;fill-rule:evenodd;stroke:#000000;stroke-width:0.46875;stroke-linecap:butt;stroke-linejoin:miter;stroke-opacity:1;stroke-miterlimit:4;stroke-dasharray:none"
       d="m 15.874761,912.34707 c -1.379221,0.50749 -2.273686,1.24891 -2.779686,2.1778"
       id="path2698"
       inkscape:connector-curvature="0"
       sodipodi:nodetypes="cc" />
    <path
       style="fill:none;fill-rule:evenodd;stroke:#000000;stroke-width:0.46875;stroke-linecap:butt;stroke-linejoin:miter;stroke-opacity:1;stroke-miterlimit:4;stroke-dasharray:none"
       d="m 14.016437,909.52726 c -1.438814,0.68393 -2.500342,1.52063 -3.396088,2.42447"
       id="path2700"
       inkscape:connector-curvature="0"
       sodipodi:nodetypes="cc" />
    <path
       style="opacity:1;fill:#000000;fill-opacity:1;fill-rule:evenodd;stroke:none;stroke-width:0.79170394;stroke-linecap:round;stroke-miterlimit:4;stroke-dasharray:none;stroke-dashoffset:0;stroke-opacity:1"
       id="path2673-7"
       sodipodi:type="arc"
       sodipodi:cx="27.788519"
       sodipodi:cy="904.75348"
       sodipodi:rx="0.9258188"
       sodipodi:ry="0.9258188"
       sodipodi:start="0"
       sodipodi:end="6.2813004"
       sodipodi:open="true"
       d="m 28.714338,904.75348 a 0.9258188,0.9258188 0 0 1 -0.925383,0.92582 0.9258188,0.9258188 0 0 1 -0.926254,-0.92495 0.9258188,0.9258188 0 0 1 0.924509,-0.92669 0.9258188,0.9258188 0 0 1 0.927126,0.92407" />
    <path
       style="fill:none;fill-rule:evenodd;stroke:#000000;stroke-width:0.234375;stroke-linecap:butt;stroke-linejoin:miter;stroke-miterlimit:4;stroke-dasharray:none;stroke-opacity:1"
       d="m 21.138655,908.13526 5.615546,-2.77942"
       id="path2738"
       inkscape:connector-curvature="0"
       sodipodi:nodetypes="cc" />
    <path
       style="fill:none;fill-rule:evenodd;stroke:#000000;stroke-width:0.234375;stroke-linecap:butt;stroke-linejoin:miter;stroke-miterlimit:4;stroke-dasharray:none;stroke-opacity:1"
       d="m 22.972689,906.03653 3.535714,-1.77732"
       id="path2738-6"
       inkscape:connector-curvature="0"
       sodipodi:nodetypes="cc" />
    <path
       style="fill:none;fill-rule:evenodd;stroke:#000000;stroke-width:0.234375;stroke-linecap:butt;stroke-linejoin:miter;stroke-miterlimit:4;stroke-dasharray:none;stroke-opacity:1"
       d="m 23.728991,908.05963 3.554622,-1.94749"
       id="path2738-0"
       inkscape:connector-curvature="0"
       sodipodi:nodetypes="cc" />
  </g>
</svg>
