<?xml version="1.0" encoding="UTF-8" standalone="no"?>
<!-- Created with Inkscape (http://www.inkscape.org/) -->

<svg
   xmlns:dc="http://purl.org/dc/elements/1.1/"
   xmlns:cc="http://creativecommons.org/ns#"
   xmlns:rdf="http://www.w3.org/1999/02/22-rdf-syntax-ns#"
   xmlns:svg="http://www.w3.org/2000/svg"
   xmlns="http://www.w3.org/2000/svg"
   xmlns:sodipodi="http://sodipodi.sourceforge.net/DTD/sodipodi-0.dtd"
   xmlns:inkscape="http://www.inkscape.org/namespaces/inkscape"
   width="3in"
   height="2in"
   viewBox="0 0 270 180"
   id="svg4226"
   version="1.1"
   inkscape:version="0.92.4 5da689c313, 2019-01-14"
   sodipodi:docname="thermal_fin.svg"
   inkscape:export-filename="/home/ryan/me3255/CompMech05-BVPs/images/thermal_fin.png"
   inkscape:export-xdpi="200"
   inkscape:export-ydpi="200">
  <defs
     id="defs4228">
    <marker
       inkscape:stockid="DotS"
       orient="auto"
       refY="0.0"
       refX="0.0"
       id="DotS"
       style="overflow:visible"
       inkscape:isstock="true">
      <path
         id="path4707"
         d="M -2.5,-1.0 C -2.5,1.7600000 -4.7400000,4.0 -7.5,4.0 C -10.260000,4.0 -12.5,1.7600000 -12.5,-1.0 C -12.5,-3.7600000 -10.260000,-6.0 -7.5,-6.0 C -4.7400000,-6.0 -2.5,-3.7600000 -2.5,-1.0 z "
         style="fill-rule:evenodd;stroke:#ff0000;stroke-width:1pt;stroke-opacity:1;fill:#ff0000;fill-opacity:1"
         transform="scale(0.2) translate(7.4, 1)" />
    </marker>
    <marker
       inkscape:stockid="DotL"
       orient="auto"
       refY="0.0"
       refX="0.0"
       id="DotL"
       style="overflow:visible"
       inkscape:isstock="true">
      <path
         id="path4701"
         d="M -2.5,-1.0 C -2.5,1.7600000 -4.7400000,4.0 -7.5,4.0 C -10.260000,4.0 -12.5,1.7600000 -12.5,-1.0 C -12.5,-3.7600000 -10.260000,-6.0 -7.5,-6.0 C -4.7400000,-6.0 -2.5,-3.7600000 -2.5,-1.0 z "
         style="fill-rule:evenodd;stroke:#000000;stroke-width:1pt;stroke-opacity:1;fill:#000000;fill-opacity:1"
         transform="scale(0.8) translate(7.4, 1)" />
    </marker>
    <marker
       inkscape:stockid="Arrow1Mend"
       orient="auto"
       refY="0.0"
       refX="0.0"
       id="Arrow1Mend"
       style="overflow:visible;"
       inkscape:isstock="true">
      <path
         id="path4649"
         d="M 0.0,0.0 L 5.0,-5.0 L -12.5,0.0 L 5.0,5.0 L 0.0,0.0 z "
         style="fill-rule:evenodd;stroke:#000000;stroke-width:1pt;stroke-opacity:1;fill:#000000;fill-opacity:1"
         transform="scale(0.4) rotate(180) translate(10,0)" />
    </marker>
    <marker
       inkscape:stockid="DotS"
       orient="auto"
       refY="0"
       refX="0"
       id="DotS-6"
       style="overflow:visible"
       inkscape:isstock="true">
      <path
         inkscape:connector-curvature="0"
         id="path4707-2"
         d="m -2.5,-1 c 0,2.76 -2.24,5 -5,5 -2.76,0 -5,-2.24 -5,-5 0,-2.76 2.24,-5 5,-5 2.76,0 5,2.24 5,5 z"
         style="fill:#ff0000;fill-opacity:1;fill-rule:evenodd;stroke:#ff0000;stroke-width:1.00000003pt;stroke-opacity:1"
         transform="matrix(0.2,0,0,0.2,1.48,0.2)" />
    </marker>
    <marker
       inkscape:stockid="DotS"
       orient="auto"
       refY="0"
       refX="0"
       id="DotS-1"
       style="overflow:visible"
       inkscape:isstock="true">
      <path
         inkscape:connector-curvature="0"
         id="path4707-8"
         d="m -2.5,-1 c 0,2.76 -2.24,5 -5,5 -2.76,0 -5,-2.24 -5,-5 0,-2.76 2.24,-5 5,-5 2.76,0 5,2.24 5,5 z"
         style="fill:#ff0000;fill-opacity:1;fill-rule:evenodd;stroke:#ff0000;stroke-width:1.00000003pt;stroke-opacity:1"
         transform="matrix(0.2,0,0,0.2,1.48,0.2)" />
    </marker>
    <marker
       inkscape:stockid="DotS"
       orient="auto"
       refY="0"
       refX="0"
       id="DotS-9"
       style="overflow:visible"
       inkscape:isstock="true">
      <path
         inkscape:connector-curvature="0"
         id="path4707-20"
         d="m -2.5,-1 c 0,2.76 -2.24,5 -5,5 -2.76,0 -5,-2.24 -5,-5 0,-2.76 2.24,-5 5,-5 2.76,0 5,2.24 5,5 z"
         style="fill:#ff0000;fill-opacity:1;fill-rule:evenodd;stroke:#ff0000;stroke-width:1.00000003pt;stroke-opacity:1"
         transform="matrix(0.2,0,0,0.2,1.48,0.2)" />
    </marker>
    <marker
       inkscape:stockid="DotS"
       orient="auto"
       refY="0"
       refX="0"
       id="DotS-3"
       style="overflow:visible"
       inkscape:isstock="true">
      <path
         inkscape:connector-curvature="0"
         id="path4707-7"
         d="m -2.5,-1 c 0,2.76 -2.24,5 -5,5 -2.76,0 -5,-2.24 -5,-5 0,-2.76 2.24,-5 5,-5 2.76,0 5,2.24 5,5 z"
         style="fill:#ff0000;fill-opacity:1;fill-rule:evenodd;stroke:#ff0000;stroke-width:1.00000003pt;stroke-opacity:1"
         transform="matrix(0.2,0,0,0.2,1.48,0.2)" />
    </marker>
    <marker
       inkscape:stockid="DotS"
       orient="auto"
       refY="0"
       refX="0"
       id="DotS-92"
       style="overflow:visible"
       inkscape:isstock="true">
      <path
         inkscape:connector-curvature="0"
         id="path4707-28"
         d="m -2.5,-1 c 0,2.76 -2.24,5 -5,5 -2.76,0 -5,-2.24 -5,-5 0,-2.76 2.24,-5 5,-5 2.76,0 5,2.24 5,5 z"
         style="fill:#ff0000;fill-opacity:1;fill-rule:evenodd;stroke:#ff0000;stroke-width:1.00000003pt;stroke-opacity:1"
         transform="matrix(0.2,0,0,0.2,1.48,0.2)" />
    </marker>
    <marker
       inkscape:stockid="DotS"
       orient="auto"
       refY="0"
       refX="0"
       id="DotS-7"
       style="overflow:visible"
       inkscape:isstock="true">
      <path
         inkscape:connector-curvature="0"
         id="path4707-3"
         d="m -2.5,-1 c 0,2.76 -2.24,5 -5,5 -2.76,0 -5,-2.24 -5,-5 0,-2.76 2.24,-5 5,-5 2.76,0 5,2.24 5,5 z"
         style="fill:#ff0000;fill-opacity:1;fill-rule:evenodd;stroke:#ff0000;stroke-width:1.00000003pt;stroke-opacity:1"
         transform="matrix(0.2,0,0,0.2,1.48,0.2)" />
    </marker>
    <marker
       inkscape:stockid="DotS"
       orient="auto"
       refY="0"
       refX="0"
       id="DotS-7-5"
       style="overflow:visible"
       inkscape:isstock="true">
      <path
         inkscape:connector-curvature="0"
         id="path4707-3-0"
         d="m -2.5,-1 c 0,2.76 -2.24,5 -5,5 -2.76,0 -5,-2.24 -5,-5 0,-2.76 2.24,-5 5,-5 2.76,0 5,2.24 5,5 z"
         style="fill:#ff0000;fill-opacity:1;fill-rule:evenodd;stroke:#ff0000;stroke-width:1.00000003pt;stroke-opacity:1"
         transform="matrix(0.2,0,0,0.2,1.48,0.2)" />
    </marker>
  </defs>
  <sodipodi:namedview
     id="base"
     pagecolor="#ffffff"
     bordercolor="#666666"
     borderopacity="1.0"
     inkscape:pageopacity="0.0"
     inkscape:pageshadow="2"
     inkscape:zoom="3.8506944"
     inkscape:cx="158.87038"
     inkscape:cy="114.66323"
     inkscape:document-units="px"
     inkscape:current-layer="layer1"
     showgrid="false"
     units="in"
     inkscape:window-width="1680"
     inkscape:window-height="983"
     inkscape:window-x="1919"
     inkscape:window-y="30"
     inkscape:window-maximized="1" />
  <metadata
     id="metadata4231">
    <rdf:RDF>
      <cc:Work
         rdf:about="">
        <dc:format>image/svg+xml</dc:format>
        <dc:type
           rdf:resource="http://purl.org/dc/dcmitype/StillImage" />
        <dc:title></dc:title>
      </cc:Work>
    </rdf:RDF>
  </metadata>
  <g
     inkscape:groupmode="layer"
     id="layer2"
     inkscape:label="thermo-case">
    <rect
       style="opacity:1;fill:none;fill-opacity:1;fill-rule:evenodd;stroke:#000000;stroke-width:0.6668359;stroke-linecap:round;stroke-linejoin:round;stroke-miterlimit:4;stroke-dasharray:none;stroke-dashoffset:0;stroke-opacity:1"
       id="rect6227"
       width="87.112511"
       height="3.8948538"
       x="47.621407"
       y="105.29235"
       ry="0.93054265" />
    <rect
       style="opacity:1;fill:none;fill-opacity:1;fill-rule:evenodd;stroke:#000000;stroke-width:0.66683596;stroke-linecap:round;stroke-linejoin:round;stroke-miterlimit:4;stroke-dasharray:none;stroke-dashoffset:0;stroke-opacity:1"
       id="rect6227-9"
       width="87.112511"
       height="3.8948541"
       x="47.621407"
       y="119.91209"
       ry="0.93054271" />
    <rect
       style="opacity:1;fill:none;fill-opacity:1;fill-rule:evenodd;stroke:#000000;stroke-width:0.66683596;stroke-linecap:round;stroke-linejoin:round;stroke-miterlimit:4;stroke-dasharray:none;stroke-dashoffset:0;stroke-opacity:1"
       id="rect6227-3"
       width="87.112511"
       height="3.8948541"
       x="47.621407"
       y="90.628349"
       ry="0.93054271" />
    <rect
       style="opacity:1;fill:none;fill-opacity:1;fill-rule:evenodd;stroke:#000000;stroke-width:0.66683596;stroke-linecap:round;stroke-linejoin:round;stroke-miterlimit:4;stroke-dasharray:none;stroke-dashoffset:0;stroke-opacity:1"
       id="rect6227-1"
       width="87.112511"
       height="3.8948541"
       x="47.621407"
       y="75.964355"
       ry="0.93054271" />
    <rect
       style="opacity:1;fill:none;fill-opacity:1;fill-rule:evenodd;stroke:#000000;stroke-width:0.66683596;stroke-linecap:round;stroke-linejoin:round;stroke-miterlimit:4;stroke-dasharray:none;stroke-dashoffset:0;stroke-opacity:1"
       id="rect6227-94"
       width="87.112511"
       height="3.8948541"
       x="47.621407"
       y="61.300282"
       ry="0.93054271" />
    <rect
       style="opacity:1;fill:none;fill-opacity:1;fill-rule:evenodd;stroke:#000000;stroke-width:0.66683596;stroke-linecap:round;stroke-linejoin:round;stroke-miterlimit:4;stroke-dasharray:none;stroke-dashoffset:0;stroke-opacity:1"
       id="rect6227-7"
       width="87.112511"
       height="3.8948541"
       x="47.621407"
       y="46.636223"
       ry="0.93054271" />
    <rect
       style="opacity:1;fill:none;fill-opacity:1;fill-rule:evenodd;stroke:#000000;stroke-width:0.66683596;stroke-linecap:round;stroke-linejoin:round;stroke-miterlimit:4;stroke-dasharray:none;stroke-dashoffset:0;stroke-opacity:1"
       id="rect6227-8"
       width="87.112511"
       height="3.8948541"
       x="47.621407"
       y="31.972223"
       ry="0.93054271" />
    <rect
       style="opacity:1;fill:none;fill-opacity:1;fill-rule:evenodd;stroke:#000000;stroke-width:0.66683602;stroke-linecap:round;stroke-linejoin:round;stroke-miterlimit:4;stroke-dasharray:none;stroke-dashoffset:0;stroke-opacity:1"
       id="rect6227-8-4"
       width="87.112511"
       height="3.8948541"
       x="4.0213943"
       y="-253.5826"
       ry="0.93054277"
       transform="rotate(90)" />
  </g>
  <g
     inkscape:label="Layer 1"
     inkscape:groupmode="layer"
     id="layer1"
     transform="translate(0,-872.36215)">
    <path
       style="fill:none;fill-rule:evenodd;stroke:#000000;stroke-width:0.9375px;stroke-linecap:butt;stroke-linejoin:miter;stroke-opacity:1"
       d="M 246.16603,1042.6236 V 994.41806 H 42.097047 v 47.96214"
       id="path4515"
       inkscape:connector-curvature="0"
       sodipodi:nodetypes="cccc" />
    <path
       style="fill:none;fill-rule:evenodd;stroke:#000000;stroke-width:0.9375px;stroke-linecap:butt;stroke-linejoin:miter;stroke-opacity:1"
       d="M 121.26972,994.41807 V 905.31076"
       id="path4517"
       inkscape:connector-curvature="0" />
    <path
       style="fill:none;fill-rule:evenodd;stroke:#000000;stroke-width:0.9375px;stroke-linecap:butt;stroke-linejoin:miter;stroke-opacity:1"
       d="M 151.94601,994.41807 V 905.31076"
       id="path4517-3"
       inkscape:connector-curvature="0" />
    <path
       style="opacity:1;fill:none;fill-opacity:1;fill-rule:evenodd;stroke:#000000;stroke-width:0.9375;stroke-linecap:round;stroke-linejoin:round;stroke-miterlimit:4;stroke-dasharray:none;stroke-dashoffset:0;stroke-opacity:1"
       id="path4534"
       sodipodi:type="arc"
       sodipodi:cx="136.60782"
       sodipodi:cy="905.18903"
       sodipodi:rx="15.338099"
       sodipodi:ry="3.0432823"
       sodipodi:start="0"
       sodipodi:end="6.2813004"
       d="m 151.94592,905.18903 a 15.338099,3.0432823 0 0 1 -15.33087,3.04328 15.338099,3.0432823 0 0 1 -15.34532,-3.04042 15.338099,3.0432823 0 0 1 15.31641,-3.04614 15.338099,3.0432823 0 0 1 15.35975,3.03754"
       sodipodi:open="true" />
    <text
       xml:space="preserve"
       style="font-style:normal;font-weight:normal;font-size:16.40625px;line-height:125%;font-family:sans-serif;letter-spacing:0px;word-spacing:0px;fill:#000000;fill-opacity:1;stroke:none;stroke-width:0.9375px;stroke-linecap:butt;stroke-linejoin:miter;stroke-opacity:1"
       x="110.55737"
       y="1027.042"
       id="text4538"><tspan
         sodipodi:role="line"
         id="tspan4536"
         x="110.55737"
         y="1027.042"
         style="stroke-width:0.9375px">T<tspan
   style="font-size:64.99999762%;baseline-shift:sub"
   id="tspan4540">base</tspan></tspan></text>
    <path
       style="opacity:1;fill:#000000;fill-opacity:1;fill-rule:evenodd;stroke:none;stroke-width:0.22542019;stroke-linecap:round;stroke-linejoin:round;stroke-miterlimit:4;stroke-dasharray:none;stroke-dashoffset:0;stroke-opacity:1"
       id="path4544"
       sodipodi:type="arc"
       sodipodi:cx="46.607857"
       sodipodi:cy="994.26599"
       sodipodi:rx="1.8732847"
       sodipodi:ry="1.8147445"
       sodipodi:start="0"
       sodipodi:end="6.2587518"
       d="m 48.481141,994.26599 a 1.8732847,1.8147445 0 0 1 -1.861842,1.81471 1.8732847,1.8147445 0 0 1 -1.884587,-1.79254 1.8732847,1.8147445 0 0 1 1.838818,-1.83661 1.8732847,1.8147445 0 0 1 1.907052,1.77011"
       sodipodi:open="true" />
    <path
       style="opacity:1;fill:#000000;fill-opacity:1;fill-rule:evenodd;stroke:none;stroke-width:0.22542019;stroke-linecap:round;stroke-linejoin:round;stroke-miterlimit:4;stroke-dasharray:none;stroke-dashoffset:0;stroke-opacity:1"
       id="path4544-6"
       sodipodi:type="arc"
       sodipodi:cx="46.607857"
       sodipodi:cy="979.60193"
       sodipodi:rx="1.8732847"
       sodipodi:ry="1.8147447"
       sodipodi:start="0"
       sodipodi:end="6.2587518"
       d="m 48.481141,979.60193 a 1.8732847,1.8147447 0 0 1 -1.861842,1.81471 1.8732847,1.8147447 0 0 1 -1.884587,-1.79254 1.8732847,1.8147447 0 0 1 1.838818,-1.83661 1.8732847,1.8147447 0 0 1 1.907052,1.7701"
       sodipodi:open="true" />
    <path
       style="opacity:1;fill:#000000;fill-opacity:1;fill-rule:evenodd;stroke:none;stroke-width:0.22542019;stroke-linecap:round;stroke-linejoin:round;stroke-miterlimit:4;stroke-dasharray:none;stroke-dashoffset:0;stroke-opacity:1"
       id="path4544-7"
       sodipodi:type="arc"
       sodipodi:cx="46.607857"
       sodipodi:cy="964.93793"
       sodipodi:rx="1.8732847"
       sodipodi:ry="1.8147447"
       sodipodi:start="0"
       sodipodi:end="6.2587518"
       d="m 48.481141,964.93793 a 1.8732847,1.8147447 0 0 1 -1.861842,1.81471 1.8732847,1.8147447 0 0 1 -1.884587,-1.79254 1.8732847,1.8147447 0 0 1 1.838818,-1.83661 1.8732847,1.8147447 0 0 1 1.907052,1.7701"
       sodipodi:open="true" />
    <path
       style="opacity:1;fill:#000000;fill-opacity:1;fill-rule:evenodd;stroke:none;stroke-width:0.22542019;stroke-linecap:round;stroke-linejoin:round;stroke-miterlimit:4;stroke-dasharray:none;stroke-dashoffset:0;stroke-opacity:1"
       id="path4544-5"
       sodipodi:type="arc"
       sodipodi:cx="46.607857"
       sodipodi:cy="950.27393"
       sodipodi:rx="1.8732847"
       sodipodi:ry="1.8147447"
       sodipodi:start="0"
       sodipodi:end="6.2587518"
       d="m 48.481141,950.27393 a 1.8732847,1.8147447 0 0 1 -1.861842,1.81471 1.8732847,1.8147447 0 0 1 -1.884587,-1.79254 1.8732847,1.8147447 0 0 1 1.838818,-1.83661 1.8732847,1.8147447 0 0 1 1.907052,1.7701"
       sodipodi:open="true" />
    <path
       style="opacity:1;fill:#000000;fill-opacity:1;fill-rule:evenodd;stroke:none;stroke-width:0.22542019;stroke-linecap:round;stroke-linejoin:round;stroke-miterlimit:4;stroke-dasharray:none;stroke-dashoffset:0;stroke-opacity:1"
       id="path4544-3"
       sodipodi:type="arc"
       sodipodi:cx="46.607857"
       sodipodi:cy="935.60986"
       sodipodi:rx="1.8732847"
       sodipodi:ry="1.8147447"
       sodipodi:start="0"
       sodipodi:end="6.2587518"
       d="m 48.481141,935.60986 a 1.8732847,1.8147447 0 0 1 -1.861842,1.81471 1.8732847,1.8147447 0 0 1 -1.884587,-1.79254 1.8732847,1.8147447 0 0 1 1.838818,-1.83661 1.8732847,1.8147447 0 0 1 1.907052,1.77011"
       sodipodi:open="true" />
    <path
       style="opacity:1;fill:#000000;fill-opacity:1;fill-rule:evenodd;stroke:none;stroke-width:0.22542019;stroke-linecap:round;stroke-linejoin:round;stroke-miterlimit:4;stroke-dasharray:none;stroke-dashoffset:0;stroke-opacity:1"
       id="path4544-56"
       sodipodi:type="arc"
       sodipodi:cx="46.607857"
       sodipodi:cy="920.9458"
       sodipodi:rx="1.8732847"
       sodipodi:ry="1.8147447"
       sodipodi:start="0"
       sodipodi:end="6.2587518"
       d="m 48.481141,920.9458 a 1.8732847,1.8147447 0 0 1 -1.861842,1.81471 1.8732847,1.8147447 0 0 1 -1.884587,-1.79254 1.8732847,1.8147447 0 0 1 1.838818,-1.83661 1.8732847,1.8147447 0 0 1 1.907052,1.7701"
       sodipodi:open="true" />
    <path
       style="opacity:1;fill:#000000;fill-opacity:1;fill-rule:evenodd;stroke:none;stroke-width:0.22542019;stroke-linecap:round;stroke-linejoin:round;stroke-miterlimit:4;stroke-dasharray:none;stroke-dashoffset:0;stroke-opacity:1"
       id="path4544-2"
       sodipodi:type="arc"
       sodipodi:cx="46.729599"
       sodipodi:cy="906.2818"
       sodipodi:rx="1.8732847"
       sodipodi:ry="1.8147447"
       sodipodi:start="0"
       sodipodi:end="6.2587518"
       d="m 48.602884,906.2818 a 1.8732847,1.8147447 0 0 1 -1.861842,1.81471 1.8732847,1.8147447 0 0 1 -1.884588,-1.79254 1.8732847,1.8147447 0 0 1 1.838819,-1.83661 1.8732847,1.8147447 0 0 1 1.907052,1.7701"
       sodipodi:open="true" />
    <text
       xml:space="preserve"
       style="font-style:normal;font-weight:normal;font-size:16.40625px;line-height:125%;font-family:sans-serif;letter-spacing:0px;word-spacing:0px;fill:#000000;fill-opacity:1;stroke:none;stroke-width:0.9375px;stroke-linecap:butt;stroke-linejoin:miter;stroke-opacity:1"
       x="23.641243"
       y="995.87878"
       id="text4593"><tspan
         sodipodi:role="line"
         id="tspan4591"
         x="23.641243"
         y="995.87878"
         style="stroke-width:0.9375px">T<tspan
   style="font-size:64.99999762%;baseline-shift:sub"
   id="tspan4595">0</tspan></tspan></text>
    <text
       xml:space="preserve"
       style="font-style:normal;font-weight:normal;font-size:16.40625px;line-height:125%;font-family:sans-serif;letter-spacing:0px;word-spacing:0px;fill:#000000;fill-opacity:1;stroke:none;stroke-width:0.9375px;stroke-linecap:butt;stroke-linejoin:miter;stroke-opacity:1"
       x="23.641243"
       y="965.15747"
       id="text4593-9"><tspan
         sodipodi:role="line"
         id="tspan4591-1"
         x="23.641243"
         y="965.15747"
         style="stroke-width:0.9375px">T<tspan
   style="font-size:10.6640625px;baseline-shift:sub;stroke-width:0.9375px"
   id="tspan4595-2">2</tspan></tspan></text>
    <text
       xml:space="preserve"
       style="font-style:normal;font-weight:normal;font-size:16.40625px;line-height:125%;font-family:sans-serif;letter-spacing:0px;word-spacing:0px;fill:#000000;fill-opacity:1;stroke:none;stroke-width:0.9375px;stroke-linecap:butt;stroke-linejoin:miter;stroke-opacity:1"
       x="23.641243"
       y="934.3606"
       id="text4593-7"><tspan
         sodipodi:role="line"
         id="tspan4591-0"
         x="23.641243"
         y="934.3606"
         style="stroke-width:0.9375px">T<tspan
   style="font-size:10.6640625px;baseline-shift:sub;stroke-width:0.9375px"
   id="tspan4595-9">4</tspan></tspan></text>
    <text
       xml:space="preserve"
       style="font-style:normal;font-weight:normal;font-size:16.40625px;line-height:125%;font-family:sans-serif;letter-spacing:0px;word-spacing:0px;fill:#000000;fill-opacity:1;stroke:none;stroke-width:0.9375px;stroke-linecap:butt;stroke-linejoin:miter;stroke-opacity:1"
       x="23.641243"
       y="903.48822"
       id="text4593-3"><tspan
         sodipodi:role="line"
         id="tspan4591-6"
         x="23.641243"
         y="903.48822"
         style="stroke-width:0.9375px">T<tspan
   style="font-size:10.6640625px;baseline-shift:sub;stroke-width:0.9375px"
   id="tspan4595-0">6</tspan></tspan></text>
    <path
       style="fill:none;fill-rule:evenodd;stroke:#000000;stroke-width:0.9375px;stroke-linecap:butt;stroke-linejoin:miter;stroke-opacity:1;marker-end:url(#Arrow1Mend)"
       d="M 136.60559,994.22166 V 896.78957"
       id="path4638"
       inkscape:connector-curvature="0" />
    <text
       xml:space="preserve"
       style="font-style:normal;font-weight:normal;font-size:16.40625px;line-height:125%;font-family:sans-serif;letter-spacing:0px;word-spacing:0px;fill:#000000;fill-opacity:1;stroke:none;stroke-width:0.9375px;stroke-linecap:butt;stroke-linejoin:miter;stroke-opacity:1"
       x="140.01634"
       y="896.78955"
       id="text5038"><tspan
         sodipodi:role="line"
         id="tspan5036"
         x="140.01634"
         y="896.78955"
         style="stroke-width:0.9375px">x</tspan></text>
    <text
       xml:space="preserve"
       style="font-style:normal;font-weight:normal;font-size:16.40625px;line-height:125%;font-family:sans-serif;letter-spacing:0px;word-spacing:0px;fill:#000000;fill-opacity:1;stroke:none;stroke-width:0.9375px;stroke-linecap:butt;stroke-linejoin:miter;stroke-opacity:1"
       x="228.88019"
       y="954.97711"
       id="text5042"><tspan
         sodipodi:role="line"
         id="tspan5040"
         x="228.88019"
         y="954.97711"
         style="stroke-width:0.9375px">T<tspan
   style="font-size:64.99999762%;baseline-shift:sub"
   id="tspan5044">∞</tspan></tspan></text>
    <path
       style="fill:none;fill-rule:evenodd;stroke:#ff0000;stroke-width:2.8125;stroke-linecap:butt;stroke-linejoin:miter;stroke-miterlimit:4;stroke-dasharray:none;stroke-opacity:1;marker-end:url(#DotS)"
       d="m 48.48059,994.22166 h 87.75024"
       id="path5046"
       inkscape:connector-curvature="0"
       sodipodi:nodetypes="cc" />
    <path
       style="fill:none;fill-rule:evenodd;stroke:#ff0000;stroke-width:2.8125;stroke-linecap:butt;stroke-linejoin:miter;stroke-miterlimit:4;stroke-dasharray:none;stroke-opacity:1;marker-end:url(#DotS-6)"
       d="m 67.23059,979.60193 h 69.00024"
       id="path5046-6"
       inkscape:connector-curvature="0"
       sodipodi:nodetypes="cc" />
    <path
       style="fill:none;fill-rule:evenodd;stroke:#ff0000;stroke-width:2.8125;stroke-linecap:butt;stroke-linejoin:miter;stroke-miterlimit:4;stroke-dasharray:none;stroke-opacity:1;marker-end:url(#DotS-1)"
       d="m 76.60559,964.93793 h 59.62524"
       id="path5046-7"
       inkscape:connector-curvature="0"
       sodipodi:nodetypes="cc" />
    <path
       style="fill:none;fill-rule:evenodd;stroke:#ff0000;stroke-width:2.8125;stroke-linecap:butt;stroke-linejoin:miter;stroke-miterlimit:4;stroke-dasharray:none;stroke-opacity:1;marker-end:url(#DotS-9)"
       d="m 85.98059,950.27393 h 50.25024"
       id="path5046-2"
       inkscape:connector-curvature="0"
       sodipodi:nodetypes="cc" />
    <path
       style="fill:none;fill-rule:evenodd;stroke:#ff0000;stroke-width:2.8125;stroke-linecap:butt;stroke-linejoin:miter;stroke-miterlimit:4;stroke-dasharray:none;stroke-opacity:1;marker-end:url(#DotS-3)"
       d="m 93.48059,935.60986 h 42.75024"
       id="path5046-5"
       inkscape:connector-curvature="0"
       sodipodi:nodetypes="cc" />
    <path
       style="fill:none;fill-rule:evenodd;stroke:#ff0000;stroke-width:2.8125;stroke-linecap:butt;stroke-linejoin:miter;stroke-miterlimit:4;stroke-dasharray:none;stroke-opacity:1;marker-end:url(#DotS-92)"
       d="m 100.98059,920.9458 h 35.25024"
       id="path5046-9"
       inkscape:connector-curvature="0"
       sodipodi:nodetypes="cc" />
    <path
       style="fill:none;fill-rule:evenodd;stroke:#ff0000;stroke-width:2.8125;stroke-linecap:butt;stroke-linejoin:miter;stroke-miterlimit:4;stroke-dasharray:none;stroke-opacity:1;marker-end:url(#DotS-7)"
       d="m 108.48059,906.2818 h 27.75024"
       id="path5046-61"
       inkscape:connector-curvature="0"
       sodipodi:nodetypes="cc" />
    <path
       style="fill:none;fill-rule:evenodd;stroke:#ff0000;stroke-width:2.8125;stroke-linecap:butt;stroke-linejoin:miter;stroke-miterlimit:4;stroke-dasharray:none;stroke-opacity:1;marker-end:url(#DotS-7-5)"
       d="m 251.58144,949.77462 v 14.62524"
       id="path5046-61-3"
       inkscape:connector-curvature="0"
       sodipodi:nodetypes="cc" />
  </g>
</svg>
